<?xml version="1.0" encoding="UTF-8" standalone="no"?><svg width="140" height="32" viewBox="0 0 37.041666 8.4666669" version="1.1" id="svg989" inkscape:version="1.2 (dc2aeda, 2022-05-15)" sodipodi:docname="logo_txt.svg" xmlns:inkscape="http://www.inkscape.org/namespaces/inkscape" xmlns:sodipodi="http://sodipodi.sourceforge.net/DTD/sodipodi-0.dtd" xmlns="http://www.w3.org/2000/svg" xmlns:svg="http://www.w3.org/2000/svg"><sodipodi:namedview id="namedview991" pagecolor="#ffffff" bordercolor="#666666" borderopacity="1.0" inkscape:pageshadow="2" inkscape:pageopacity="0.0" inkscape:pagecheckerboard="0" inkscape:document-units="mm" showgrid="false" units="px" inkscape:zoom="4.8071429" inkscape:cx="50.029718" inkscape:cy="16.017831" inkscape:window-width="1920" inkscape:window-height="1052" inkscape:window-x="0" inkscape:window-y="0" inkscape:window-maximized="1" inkscape:current-layer="layer1" inkscape:showpageshadow="2" inkscape:deskcolor="#d1d1d1" /><defs id="defs986" /><g inkscape:label="Camada 1" inkscape:groupmode="layer" id="layer1"><path d="m 1.6674775,6.7386822 q 0.3756396,0 0.5313925,-0.073149 0.155753,-0.073149 0.155753,-0.2834518 0,-0.164585 -0.2015627,-0.2834519 Q 1.9514976,5.970619 1.5392103,5.8151777 1.2185424,5.6963108 0.95284617,5.5683002 0.69631184,5.4402897 0.51307303,5.2665611 0.32983423,5.0836889 0.22905289,4.8368115 0.12827155,4.589934 0.12827155,4.242477 q 0,-0.6766271 0.50390671,-1.0698023 Q 1.136085,2.7794995 2.0156312,2.7794995 q 0.4397732,0 0.8428985,0.082293 0.4031254,0.073149 0.6413358,0.164585 L 3.2616551,4.0870356 Q 3.0234447,4.004743 2.7394245,3.9407379 2.4645663,3.8767326 2.1164126,3.8767326 q -0.6413358,0 -0.6413358,0.3566007 0,0.082293 0.027485,0.1462977 0.027486,0.064005 0.1099433,0.1280106 0.082458,0.054862 0.2198865,0.1280105 0.1465911,0.064005 0.3664776,0.1462978 0.4489351,0.164585 0.7421172,0.3291699 0.2931821,0.1554413 0.458097,0.3474571 0.1740769,0.1828722 0.2382105,0.4114624 0.073295,0.2285903 0.073295,0.5303294 0,0.7132015 -0.5405544,1.0789459 -0.5313925,0.3657443 -1.5117201,0.3657443 -0.6413358,0 -1.07194705,-0.1097234 Q 0.16491931,7.6256123 4.3853307e-6,7.5524634 L 0.22905289,6.4460866 Q 0.57720661,6.5832408 0.94368423,6.6655333 1.3101618,6.738682 1.6674775,6.7386822 Z" style="font-weight:bold;font-size:9.15277px;font-family:Ubuntu;-inkscape-font-specification:'Ubuntu Bold';fill:#000080;stroke-width:3.81366;stroke-miterlimit:100;paint-order:markers fill stroke" id="path302" /><path d="m 9.0794753,2.0571543 q 0.1099433,0.374888 0.2382104,0.8503557 0.1374292,0.466324 0.2840202,0.9692226 0.155753,0.5028984 0.311506,1.005797 0.1557531,0.5028984 0.3023441,0.9326481 0.119105,-0.4663241 0.23821,-1.0149407 0.128268,-0.5486165 0.238211,-1.1338074 0.109943,-0.585191 0.210724,-1.1612384 0.109944,-0.585191 0.201563,-1.124664 h 1.484235 q -0.320668,1.590988 -0.742118,3.2276941 -0.412287,1.636706 -0.89787,3.1088271 H 9.6383537 Q 9.3176857,6.8392619 9.0153417,5.8791829 8.7129977,4.9099604 8.4198156,3.9407379 8.1266335,4.9099604 7.8334515,5.8791829 7.5402693,6.8392619 7.2196015,7.7170484 H 5.909444 Q 5.4238611,6.2449273 5.0024119,4.6082213 4.5901246,2.9715152 4.2694567,1.3805272 h 1.5483679 q 0.091619,0.539473 0.2015627,1.124664 0.1099432,0.5760474 0.2290484,1.1612384 0.1191054,0.5851909 0.2382106,1.1338074 0.128267,0.5486166 0.2565342,1.0149407 0.164915,-0.4480369 0.320668,-0.9509354 0.155753,-0.5028984 0.302344,-1.005797 Q 7.5127835,3.3555469 7.6318887,2.8892228 7.7601559,2.4228987 7.8609373,2.0571543 Z" style="font-weight:bold;font-size:9.15277px;font-family:Ubuntu;-inkscape-font-specification:'Ubuntu Bold';fill:#000080;stroke-width:3.81366;stroke-miterlimit:100;paint-order:markers fill stroke" id="path304" /><path d="m 14.998072,6.766113 q 0.201562,0 0.384802,-0.00914 0.183238,-0.00914 0.293181,-0.02743 V 5.6963138 q -0.08245,-0.018288 -0.247371,-0.036574 -0.164916,-0.018288 -0.302345,-0.018288 -0.192401,0 -0.366478,0.027431 -0.164914,0.018287 -0.293181,0.082293 -0.128268,0.064005 -0.201563,0.1737286 -0.07329,0.1097233 -0.07329,0.2743083 0,0.3200263 0.210723,0.4480368 0.219888,0.1188669 0.595527,0.1188669 z M 14.888128,2.7794995 q 0.604689,0 1.007814,0.1371541 0.403126,0.1371542 0.641336,0.3931752 0.247373,0.2560211 0.348154,0.6217654 0.100781,0.3657444 0.100781,0.8137812 v 2.8345188 q -0.293182,0.064005 -0.815413,0.1462978 -0.52223,0.091436 -1.264347,0.091436 -0.46726,0 -0.852061,-0.082293 Q 13.678753,7.6530431 13.403894,7.4701709 13.129036,7.2781551 12.982445,6.976416 12.835854,6.6746769 12.835854,6.2357837 q 0,-0.420606 0.164915,-0.7132015 0.174077,-0.2925955 0.458097,-0.4663241 0.28402,-0.1737285 0.650498,-0.2468774 0.366478,-0.082293 0.760441,-0.082293 0.265696,0 0.467259,0.027431 0.210725,0.018288 0.338991,0.054862 V 4.6813701 q 0,-0.3474571 -0.210724,-0.5577601 -0.210725,-0.2103031 -0.732955,-0.2103031 -0.348154,0 -0.687146,0.054862 -0.338991,0.045718 -0.586364,0.1371541 L 13.284789,3.0080897 q 0.119105,-0.036574 0.293182,-0.073149 0.183239,-0.045718 0.393963,-0.073149 0.210725,-0.036574 0.439774,-0.054862 0.23821,-0.02743 0.47642,-0.027431 z" style="font-weight:bold;font-size:9.15277px;font-family:Ubuntu;-inkscape-font-specification:'Ubuntu Bold';fill:#000080;stroke-width:3.81366;stroke-miterlimit:100;paint-order:markers fill stroke" id="path306" /><path d="M 21.127404,4.1144664 Q 20.944165,4.0687482 20.696792,4.02303 20.449421,3.968168 20.1654,3.968168 q -0.128267,0 -0.311506,0.02743 -0.174077,0.018287 -0.265696,0.045718 v 3.6757317 h -1.36513 V 3.163531 q 0.366478,-0.1280105 0.861223,-0.2377338 0.503907,-0.1188669 1.117757,-0.1188669 0.109943,0 0.265696,0.018288 0.155753,0.00914 0.311506,0.036574 0.155753,0.018287 0.311506,0.054862 0.155754,0.02743 0.265697,0.073149 z" style="font-weight:bold;font-size:9.15277px;font-family:Ubuntu;-inkscape-font-specification:'Ubuntu Bold';fill:#000080;stroke-width:3.81366;stroke-miterlimit:100;paint-order:markers fill stroke" id="path308" /><path d="m 23.161344,5.2757048 q 0,0.6309089 0.28402,1.0149406 0.284021,0.3840315 0.842899,0.3840315 0.183239,0 0.338992,-0.00914 0.155753,-0.018288 0.256534,-0.036574 V 4.1510409 q -0.128267,-0.082293 -0.338991,-0.1371542 -0.201563,-0.054862 -0.412288,-0.054862 -0.971166,0 -0.971166,1.3166802 z m 3.087574,2.2859022 q -0.183238,0.054862 -0.421448,0.1097233 -0.238211,0.045718 -0.503908,0.082292 -0.256533,0.036574 -0.531392,0.054862 -0.265697,0.027431 -0.513069,0.027431 -0.595526,0 -1.062785,-0.1737286 Q 22.749057,7.4884582 22.42839,7.1684319 22.107722,6.839262 21.933644,6.3820816 21.768729,5.9157575 21.768729,5.3397101 q 0,-0.585191 0.146592,-1.0515151 0.146591,-0.4754676 0.421449,-0.8046375 0.274858,-0.32917 0.668821,-0.5028985 0.403126,-0.1737286 0.916194,-0.1737286 0.284021,0 0.503908,0.054862 0.229048,0.054862 0.458096,0.1554413 V 0.84105436 l 1.365129,-0.21944662 z" style="font-weight:bold;font-size:9.15277px;font-family:Ubuntu;-inkscape-font-specification:'Ubuntu Bold';fill:#000080;stroke-width:3.81366;stroke-miterlimit:100;paint-order:markers fill stroke" id="path310" /><path d="m 27.302524,5.3488536 q 0,-0.6400527 0.192401,-1.1155203 0.201562,-0.4846113 0.52223,-0.8046376 0.320668,-0.3200263 0.732956,-0.4846113 0.421449,-0.1645849 0.861222,-0.1645849 1.026137,0 1.621663,0.630909 0.595526,0.6217655 0.595526,1.8378654 0,0.1188669 -0.0092,0.2651647 -0.0092,0.1371542 -0.01833,0.2468774 h -3.096736 q 0.04581,0.420606 0.393963,0.6674835 0.348154,0.2468774 0.934518,0.2468774 0.37564,0 0.732955,-0.064005 0.366478,-0.073149 0.595526,-0.1737285 l 0.183239,1.1063767 q -0.109943,0.054862 -0.293182,0.1097233 -0.183239,0.054862 -0.412287,0.091436 -0.219886,0.045718 -0.476421,0.073149 -0.256534,0.027431 -0.513069,0.027431 -0.650498,0 -1.136081,-0.1920158 Q 28.237041,7.4610273 27.916373,7.1318574 27.604868,6.7935438 27.449115,6.3363634 27.302524,5.8791829 27.302524,5.3488536 Z m 3.206679,-0.5211858 q -0.0092,-0.1737285 -0.06413,-0.3383134 -0.04581,-0.164585 -0.155753,-0.2925955 -0.100781,-0.1280106 -0.265695,-0.210303 -0.155754,-0.082293 -0.393965,-0.082293 -0.229048,0 -0.393963,0.082293 -0.164915,0.073149 -0.274858,0.2011593 -0.109943,0.1280106 -0.174076,0.3017392 -0.05497,0.1645849 -0.08245,0.3383134 z" style="font-weight:bold;font-size:9.15277px;font-family:Ubuntu;-inkscape-font-specification:'Ubuntu Bold';fill:#000080;stroke-width:3.81366;stroke-miterlimit:100;paint-order:markers fill stroke" id="path312" /><path d="m 32.882143,3.072095 q 0.348153,-0.1005798 0.897869,-0.1828722 0.549718,-0.091436 1.154405,-0.091436 0.61385,0 1.016976,0.164585 0.412287,0.1554414 0.650498,0.4480368 0.23821,0.2925955 0.338991,0.6949143 0.100782,0.4023188 0.100782,0.8960737 v 2.7156522 h -1.365129 v -2.551067 q 0,-0.6583398 -0.174078,-0.9326481 Q 35.328381,3.959025 34.85196,3.959025 q -0.146591,0 -0.311507,0.018287 -0.164915,0.00914 -0.293181,0.02743 v 3.7123054 h -1.365129 z" style="font-weight:bold;font-size:9.15277px;font-family:Ubuntu;-inkscape-font-specification:'Ubuntu Bold';fill:#000080;stroke-width:3.81366;stroke-miterlimit:100;paint-order:markers fill stroke" id="path314" /><text xml:space="preserve" style="font-style:normal;font-variant:normal;font-weight:bold;font-stretch:normal;font-size:1.38525px;font-family:Ubuntu;-inkscape-font-specification:'Ubuntu Bold';fill:#000000;stroke-width:0.577189;stroke-miterlimit:100;paint-order:markers fill stroke" x="2.7332978" y="-1.8457875" id="text4"><tspan sodipodi:role="line" id="tspan4" style="fill:#000000;stroke-width:0.577189" x="2.7332978" y="-1.8457875">ubuntu font</tspan></text></g></svg> 
