<?xml version="1.0" encoding="UTF-8" standalone="no"?>
<svg
   width="100"
   height="100"
   viewBox="-10 0 100 100"
   version="1.1"
   preserveAspectRatio="xMidYMid"
   id="svg6"
   sodipodi:docname="airbnb.svg"
   inkscape:version="1.1.2 (b8e25be833, 2022-02-05)"
   xmlns:inkscape="http://www.inkscape.org/namespaces/inkscape"
   xmlns:sodipodi="http://sodipodi.sourceforge.net/DTD/sodipodi-0.dtd"
   xmlns="http://www.w3.org/2000/svg"
   xmlns:svg="http://www.w3.org/2000/svg">
  <defs
     id="defs10" />
  <sodipodi:namedview
     id="namedview8"
     pagecolor="#ffffff"
     bordercolor="#666666"
     borderopacity="1.0"
     inkscape:pageshadow="2"
     inkscape:pageopacity="0.0"
     inkscape:pagecheckerboard="0"
     showgrid="false"
     inkscape:zoom="3.1557971"
     inkscape:cx="105.20321"
     inkscape:cy="98.865672"
     inkscape:window-width="1920"
     inkscape:window-height="1057"
     inkscape:window-x="-8"
     inkscape:window-y="-8"
     inkscape:window-maximized="1"
     inkscape:current-layer="svg6" />
  <g
     id="g4"
     transform="matrix(0.29035197,0,0,0.29035197,2.835,10)"
     style="stroke-width:3.4441">
    <path
       d="m 238.04054,223.12282 c -1.93143,14.34383 -11.58307,26.75622 -25.09756,32.27223 -6.62087,2.75525 -13.79003,3.58458 -20.96194,2.75525 -6.89363,-0.82657 -13.79002,-3.03353 -20.95918,-7.1664 -9.92992,-5.52152 -19.85983,-14.0683 -31.4429,-26.75622 18.20393,-22.33956 29.23319,-42.75045 33.37158,-60.94887 1.93143,-8.55229 2.20695,-16.27525 1.38038,-23.44717 -1.1021,-6.89363 -3.58458,-13.23897 -7.44744,-18.75498 -8.54954,-12.40964 -22.89061,-19.58155 -38.88759,-19.58155 -15.99697,0 -30.338043,7.44744 -38.887581,19.58155 -3.862859,5.51601 -6.342583,11.86135 -7.447438,18.75498 -1.1021,7.17192 -0.826575,15.1704 1.38038,23.44717 4.135628,18.19842 15.44317,38.88483 33.371579,61.22164 -11.30755,12.69067 -21.512987,21.24021 -31.442905,26.75622 -7.169158,4.13838 -14.065546,6.34534 -20.959179,7.16916 -7.447438,0.82933 -14.619352,-0.27553 -20.961935,-2.75525 -13.514496,-5.51601 -23.166134,-17.93116 -25.097563,-32.27223 -0.826575,-6.89364 -0.275525,-13.78727 2.482479,-21.51023 0.826575,-2.76076 2.206955,-5.51326 3.584579,-8.82507 1.93143,-4.41115 4.138384,-9.10334 6.342583,-13.79277 l 0.278281,-0.5483 C 49.666919,137.62469 70.077804,95.703575 91.315263,54.887316 l 0.826575,-1.65866 c 2.206955,-4.132874 4.411154,-8.544027 6.620864,-12.682411 2.204198,-4.413909 4.686678,-8.552293 7.720208,-12.139628 5.79153,-6.620863 13.5145,-10.205442 22.06403,-10.205442 8.54954,0 16.2725,3.584579 22.06404,10.205442 3.03353,3.587335 5.51601,7.725719 7.72296,12.139628 2.20695,4.138384 4.41115,8.549537 6.61811,12.682411 l 0.82933,1.65866 c 20.95918,41.091784 41.37006,83.012894 60.40057,124.110194 v 0.27277 c 2.20695,4.41391 4.13563,9.38162 6.34258,13.79277 1.38038,3.31181 2.758,6.06431 3.58458,8.82507 2.20695,7.16915 3.03353,14.0683 1.93143,21.2347 z M 127.99589,210.15937 c -14.89212,-18.75222 -24.54651,-36.4051 -27.85556,-51.29447 -1.377628,-6.34534 -1.655909,-11.86134 -0.826579,-16.8263 0.55105,-4.41391 2.206959,-8.27677 4.411159,-11.58858 5.24048,-7.43917 14.06554,-12.13687 24.27098,-12.13687 10.20545,0 19.30603,4.41666 24.27099,12.13687 2.2042,3.31181 3.86011,7.17467 4.41116,11.58858 0.82657,4.96496 0.55105,10.75649 -0.82658,16.8263 -3.30905,14.6166 -12.96345,32.26673 -27.85557,51.29447 z M 252.38161,195.8183 c -1.37762,-3.30905 -2.758,-6.89363 -4.13563,-9.92716 -2.20695,-4.9622 -4.41391,-9.65439 -6.34534,-14.0683 l -0.27552,-0.27277 C 222.59737,130.17725 202.18648,88.256137 180.6735,46.891583 l -0.82658,-1.65866 c -2.20695,-4.138384 -4.4139,-8.552293 -6.6181,-12.963446 C 170.46806,27.301763 167.71005,22.066789 163.2989,17.099075 154.47108,6.0670583 141.78591,0 128.27142,0 114.4814,0 102.07176,6.0670583 92.968413,16.550781 c -4.135629,4.962203 -7.169158,10.202687 -9.927162,15.170401 -2.206955,4.411154 -4.413909,8.825063 -6.620864,12.963447 l -0.826574,1.650394 C 54.359108,87.705087 33.672699,129.62896 14.642194,170.99902 l -0.275525,0.55105 c -1.93143,4.41115 -4.138384,9.09783 -6.3453387,14.06555 -1.3776245,3.03628 -2.7580043,6.34534 -4.1356288,9.92991 -3.58733424,10.20269 -4.68943385,19.85708 -3.31180934,29.78425 3.03628444,20.6864 16.82630584,38.06376 35.85681084,45.78397 7.169158,3.03628 14.616596,4.41391 22.339559,4.41391 2.206954,0 4.964959,-0.27553 7.171913,-0.55381 9.100588,-1.10485 18.4767,-4.13287 27.577288,-9.37611 11.310297,-6.34258 22.066787,-15.44317 34.200907,-28.68214 12.13412,13.23897 23.16613,22.33956 34.19815,28.68214 9.10334,5.24324 18.47945,8.27126 27.58004,9.37611 2.20696,0.27828 4.96496,0.55381 7.17192,0.55381 7.72296,0 15.44317,-1.37763 22.33955,-4.41391 19.30603,-7.72021 32.82053,-25.37309 35.85406,-45.78397 2.20696,-9.6544 1.1021,-19.30328 -2.48248,-29.51148 z"
       fill="#e0565b"
       id="path2"
       style="stroke-width:11.0211" />
  </g>
</svg>
