<?xml version="1.0" encoding="UTF-8" standalone="no"?>
<!-- Generator: Adobe Illustrator 19.0.0, SVG Export Plug-In . SVG Version: 6.00 Build 0)  -->

<svg
   version="1.1"
   id="Layer_1"
   x="0px"
   y="0px"
   viewBox="0 0 100 100"
   xml:space="preserve"
   sodipodi:docname="amazon.svg"
   width="100"
   height="100"
   inkscape:version="1.1.2 (b8e25be833, 2022-02-05)"
   xmlns:inkscape="http://www.inkscape.org/namespaces/inkscape"
   xmlns:sodipodi="http://sodipodi.sourceforge.net/DTD/sodipodi-0.dtd"
   xmlns="http://www.w3.org/2000/svg"
   xmlns:svg="http://www.w3.org/2000/svg"><defs
   id="defs41" /><sodipodi:namedview
   id="namedview39"
   pagecolor="#ffffff"
   bordercolor="#666666"
   borderopacity="1.0"
   inkscape:pageshadow="2"
   inkscape:pageopacity="0.0"
   inkscape:pagecheckerboard="0"
   showgrid="false"
   inkscape:zoom="1.4949248"
   inkscape:cx="48.831888"
   inkscape:cy="180.61109"
   inkscape:window-width="1920"
   inkscape:window-height="1057"
   inkscape:window-x="-8"
   inkscape:window-y="-8"
   inkscape:window-maximized="1"
   inkscape:current-layer="Layer_1" />
<g
   id="g6"
   transform="matrix(0.27461434,0,0,0.27461305,9.9998974,10)"
   style="stroke-width:3.64148">
	<path
   style="fill:#f4b459;stroke-width:3.64148"
   d="m 252.089,239.901 c -120.033,57.126 -194.528,9.331 -242.214,-19.7 -2.95,-1.83 -7.966,0.428 -3.614,5.426 15.886,19.263 67.95,65.692 135.909,65.692 68.005,0 108.462,-37.107 113.523,-43.58 5.026,-6.418 1.476,-9.959 -3.604,-7.838 z M 285.8,221.284 c -3.223,-4.197 -19.6,-4.98 -29.906,-3.714 -10.324,1.229 -25.818,7.538 -24.471,11.325 0.692,1.42 2.103,0.783 9.195,0.146 7.11,-0.71 27.029,-3.223 31.18,2.203 4.17,5.462 -6.354,31.49 -8.275,35.687 -1.857,4.197 0.71,5.28 4.197,2.485 3.441,-2.795 9.668,-10.032 13.847,-20.274 4.151,-10.297 6.682,-24.663 4.233,-27.858 z"
   id="path2" />
	<path
   style="fill:#484848;stroke-width:3.64148"
   d="M 221.71,149.219 V 53.557 C 221.71,37.125 205.815,0 148.689,0 91.572,0 61.184,35.696 61.184,67.85 l 47.74,4.27 c 0,0 10.633,-32.136 35.313,-32.136 24.68,0 22.987,19.992 22.987,24.316 V 85.084 C 135.607,86.149 57.096,95.18 57.096,161.382 c 0,71.191 89.863,74.177 119.332,28.167 1.138,1.866 2.431,3.696 4.051,5.408 10.843,11.398 25.308,24.981 25.308,24.981 l 36.852,-36.415 c 0.019,-0.01 -20.929,-16.452 -20.929,-34.304 z m -109.199,3.359 c 0,-30.579 32.764,-36.779 54.722,-37.507 v 26.319 c -0.009,52.137 -54.722,44.244 -54.722,11.188 z"
   id="path4" />
</g>
<g
   id="g8">
</g>
<g
   id="g10">
</g>
<g
   id="g12">
</g>
<g
   id="g14">
</g>
<g
   id="g16">
</g>
<g
   id="g18">
</g>
<g
   id="g20">
</g>
<g
   id="g22">
</g>
<g
   id="g24">
</g>
<g
   id="g26">
</g>
<g
   id="g28">
</g>
<g
   id="g30">
</g>
<g
   id="g32">
</g>
<g
   id="g34">
</g>
<g
   id="g36">
</g>
</svg>
