<?xml version="1.0" encoding="UTF-8" standalone="no"?>
<svg
   width="100"
   height="100"
   viewBox="-56.24 0 99.999996 99.999996"
   version="1.1"
   id="svg4"
   sodipodi:docname="apple.svg"
   inkscape:version="1.1.2 (b8e25be833, 2022-02-05)"
   xmlns:inkscape="http://www.inkscape.org/namespaces/inkscape"
   xmlns:sodipodi="http://sodipodi.sourceforge.net/DTD/sodipodi-0.dtd"
   xmlns="http://www.w3.org/2000/svg"
   xmlns:svg="http://www.w3.org/2000/svg">
  <defs
     id="defs8" />
  <sodipodi:namedview
     id="namedview6"
     pagecolor="#ffffff"
     bordercolor="#666666"
     borderopacity="1.0"
     inkscape:pageshadow="2"
     inkscape:pageopacity="0.0"
     inkscape:pagecheckerboard="0"
     showgrid="false"
     inkscape:zoom="1.4308525"
     inkscape:cx="130.69132"
     inkscape:cy="226.43844"
     inkscape:window-width="1920"
     inkscape:window-height="1057"
     inkscape:window-x="-8"
     inkscape:window-y="-8"
     inkscape:window-maximized="1"
     inkscape:current-layer="svg4" />
  <path
     d="M -2.864745,16.961796 C 2.391622,10.033775 9.699232,10 9.699232,10 c 0,0 1.086994,6.513517 -4.134942,12.788109 -5.575725,6.699873 -11.913305,5.603554 -11.913305,5.603554 0,0 -1.190029,-5.269217 3.48427,-11.429867 z M -5.68047,32.954358 c 2.704147,0 7.722903,-3.717128 14.255514,-3.717128 11.244759,0 15.668436,8.00134 15.668436,8.00134 0,0 -8.651927,4.423519 -8.651927,15.156984 0,12.108265 10.777946,16.281163 10.777946,16.281163 0,0 -7.53418,21.205794 -17.710738,21.205794 -4.674037,0 -8.307865,-3.149782 -13.232654,-3.149782 -5.018757,0 -9.999138,3.267273 -13.242905,3.267273 -9.292743,2.62e-4 -21.032702,-20.115652 -21.032702,-36.285501 0,-15.908847 9.937107,-24.25438 19.257712,-24.25438 6.059227,0 10.761256,3.494237 13.911318,3.494237 z"
     fill="#999999"
     id="path2"
     style="stroke-width:1" />
</svg>
