<?xml version="1.0" encoding="UTF-8" standalone="no"?>
<svg
   height="100"
   width="100"
   viewBox="-82.15155 -31.73125 59.331675 23.798437"
   version="1.1"
   id="svg8"
   sodipodi:docname="Atari-Logo.wine.svg"
   inkscape:version="1.1.2 (b8e25be833, 2022-02-05)"
   xmlns:inkscape="http://www.inkscape.org/namespaces/inkscape"
   xmlns:sodipodi="http://sodipodi.sourceforge.net/DTD/sodipodi-0.dtd"
   xmlns="http://www.w3.org/2000/svg"
   xmlns:svg="http://www.w3.org/2000/svg">
  <defs
     id="defs12" />
  <sodipodi:namedview
     id="namedview10"
     pagecolor="#ffffff"
     bordercolor="#666666"
     borderopacity="1.0"
     inkscape:pageshadow="2"
     inkscape:pageopacity="0.0"
     inkscape:pagecheckerboard="0"
     showgrid="false"
     inkscape:zoom="0.985"
     inkscape:cx="336.04061"
     inkscape:cy="400"
     inkscape:window-width="1920"
     inkscape:window-height="1057"
     inkscape:window-x="-8"
     inkscape:window-y="-8"
     inkscape:window-maximized="1"
     inkscape:current-layer="svg8" />
  <g
     id="g960"
     transform="matrix(0.30149166,0,0,0.30149166,-76.218383,-38.965013)">
    <path
       style="fill:#e41b23"
       d="M 149.965,106.133 A 62.339,62.339 0 0 1 126.145,91.897 C 119.098,85.202 113.672,76.816 109.937,67.866 105.991,58.563 104.229,48.556 102.96,38.619 101.409,25.793 100.986,12.897 101.058,0 h -9.585 v 20.79 c -0.071,12.262 0.353,24.524 1.41,36.716 0.563,5.638 1.198,11.346 2.678,16.843 1.479,5.497 3.664,10.783 6.483,15.787 3.594,6.342 8.387,11.98 13.741,16.984 3.243,2.959 6.625,5.849 10.359,8.245 5.075,3.313 10.643,5.92 16.421,7.893 4.862,1.621 9.797,2.96 14.87,3.594 v -18.957 c -2.466,-0.352 -5.003,-0.986 -7.47,-1.762 z"
       id="path841" />
    <path
       style="fill:#e41b23"
       d="m 69.837,86.471 c 0,13.461 -0.069,26.992 0.071,40.452 5.849,-0.071 11.769,0 17.688,0 V 0.071 h -17.76 z"
       id="path839" />
    <path
       style="fill:#e41b23"
       d="m 38.477,109.798 c 7.61,-6.484 14.447,-14.235 18.816,-23.327 2.678,-5.708 4.793,-11.627 5.85,-17.83 C 64.622,59.692 65.186,50.6 65.68,41.509 A 421.1,421.1 0 0 0 66.102,22.623 V 0.001 H 56.449 V 11.206 C 56.167,22.271 55.532,33.335 53.841,44.258 52.502,52.856 50.6,61.453 47.006,69.346 43.903,76.252 39.888,82.807 34.814,88.374 A 63.007,63.007 0 0 1 17.547,101.905 C 12.051,104.794 6.131,106.978 0,107.895 v 18.957 c 5.074,-0.705 10.078,-1.973 14.94,-3.665 8.455,-2.958 16.701,-7.328 23.537,-13.389 z"
       id="path2" />
  </g>
</svg>
