<?xml version="1.0" encoding="UTF-8" standalone="no"?>
<svg
   height="100"
   width="100"
   viewBox="-17.714925 -4.905725 12.794112 3.6792937"
   version="1.1"
   id="svg53"
   sodipodi:docname="booking-.svg"
   inkscape:version="1.1.2 (b8e25be833, 2022-02-05)"
   xmlns:inkscape="http://www.inkscape.org/namespaces/inkscape"
   xmlns:sodipodi="http://sodipodi.sourceforge.net/DTD/sodipodi-0.dtd"
   xmlns="http://www.w3.org/2000/svg"
   xmlns:svg="http://www.w3.org/2000/svg">
  <sodipodi:namedview
     id="namedview55"
     pagecolor="#ffffff"
     bordercolor="#666666"
     borderopacity="1.0"
     inkscape:pageshadow="2"
     inkscape:pageopacity="0.0"
     inkscape:pagecheckerboard="0"
     showgrid="false"
     inkscape:zoom="8.48"
     inkscape:cx="50"
     inkscape:cy="50"
     inkscape:window-width="1920"
     inkscape:window-height="1057"
     inkscape:window-x="-8"
     inkscape:window-y="-8"
     inkscape:window-maximized="1"
     inkscape:current-layer="svg53" />
  <defs
     id="defs23">
    <clipPath
       clipPathUnits="userSpaceOnUse"
       id="f">
      <path
         d="m 589.4997,28.9718 h 94.5002 V 12.9375 h -94.5002 z"
         id="path2" />
    </clipPath>
    <clipPath
       clipPathUnits="userSpaceOnUse"
       id="g">
      <path
         d="M 589.4998,12.9375 H 684 v 16.0343 h -94.5002 z"
         id="path5" />
    </clipPath>
    <clipPath
       clipPathUnits="userSpaceOnUse"
       id="c">
      <path
         d="m 589.4997,28.9718 h 94.5002 V 12.9375 h -94.5002 z"
         id="path8" />
    </clipPath>
    <clipPath
       clipPathUnits="userSpaceOnUse"
       id="d">
      <path
         d="m 589.4998,28.6562 h 94.4801 V 12.958 h -94.4801 z"
         id="path11" />
    </clipPath>
    <clipPath
       clipPathUnits="userSpaceOnUse"
       id="e">
      <path
         d="M 589.4998,12.9375 H 684 v 16.0343 h -94.5002 z"
         id="path14" />
    </clipPath>
    <clipPath
       clipPathUnits="userSpaceOnUse"
       id="a">
      <path
         d="m 589.4997,28.9718 h 94.5002 V 12.9375 h -94.5002 z"
         id="path17" />
    </clipPath>
    <clipPath
       clipPathUnits="userSpaceOnUse"
       id="b">
      <path
         d="M 589.4998,12.9375 H 684 v 16.0343 h -94.5002 z"
         id="path20" />
    </clipPath>
  </defs>
  <g
     id="g5271"
     transform="matrix(0.032,0,0,0.03271984,-3.1189437,0.9716543)">
    <path
       id="rect1029"
       style="fill:#0c3b7c;fill-opacity:1;stroke-width:5.6;stroke-linecap:round;stroke-linejoin:round;paint-order:markers stroke fill"
       d="m -2638.6797,-2113.0664 c -263.4113,0 -475.4707,212.0613 -475.4707,475.4726 v 1195.00005 299.05664 475.4707 h 475.4707 299.0567 1250 c 263.41128,0 475.47261,-212.05938 475.47261,-475.4707 V -1637.5938 c 0,-263.4113 -212.06133,-475.4726 -475.47261,-475.4726 z"
       transform="matrix(0.12794112,0,0,0.12794112,-17.714925,-9.4631342)" />
    <path
       d="m -270.75071,-72.859675 -25.78139,-0.02552 V -103.7086 c 0,-6.58786 2.55373,-10.0134 8.19919,-10.80174 h 17.5822 c 12.54917,0 20.65722,7.91546 20.66622,20.718845 -0.009,13.13978 -7.91545,20.924276 -20.66622,20.931979 z m -25.78139,-83.150135 v -8.1119 c 0,-7.10015 3.00439,-10.4769 9.59742,-10.91087 h 13.19243 c 11.314,0 18.0906,6.77147 18.0906,18.09833 0,8.63831 -4.63883,18.71719 -17.67464,18.71719 h -23.20581 z m 58.7079,30.76306 -4.66072,-2.61923 4.0688,-3.47946 c 4.7313,-4.06879 12.66345,-13.21425 12.66345,-29.01691 0,-24.18033 -18.7557,-39.78655 -47.78417,-39.78655 h -33.12681 v -0.009 h -3.77217 c -8.60624,0.31583 -15.49197,7.31457 -15.58825,15.97471 v 137.246125 h 15.20304 c 0.0389,0.0078 0.0515,0 0.064,0.0078 l 37.87477,-0.0078 c 32.2691,0 53.09709,-17.564215 53.09709,-44.770781 0,-14.647114 -6.73166,-27.170604 -18.0457,-33.538924"
       fill="#273b7d"
       id="path45"
       style="fill:#ffffff;fill-opacity:1;stroke-width:92.1165" />
    <circle
       style="fill:#00bafc;fill-opacity:1;stroke-width:0.691139;stroke-linecap:round;stroke-linejoin:round;paint-order:markers stroke fill"
       id="path921"
       cx="-187.06551"
       cy="-65.810326"
       r="18.629089" />
  </g>
</svg>
