<?xml version="1.0" encoding="UTF-8" standalone="no"?>
<!-- Created with Inkscape (http://www.inkscape.org/) -->

<svg
   width="100"
   height="100"
   viewBox="0 0 100 100"
   version="1.1"
   id="svg5"
   inkscape:version="1.1.2 (b8e25be833, 2022-02-05)"
   sodipodi:docname="cma--.svg"
   xmlns:inkscape="http://www.inkscape.org/namespaces/inkscape"
   xmlns:sodipodi="http://sodipodi.sourceforge.net/DTD/sodipodi-0.dtd"
   xmlns="http://www.w3.org/2000/svg"
   xmlns:svg="http://www.w3.org/2000/svg">
  <sodipodi:namedview
     id="namedview7"
     pagecolor="#c1c1c1"
     bordercolor="#666666"
     borderopacity="1.0"
     inkscape:pageshadow="2"
     inkscape:pageopacity="0"
     inkscape:pagecheckerboard="0"
     inkscape:document-units="px"
     showgrid="false"
     width="100px"
     inkscape:zoom="5.7663437"
     inkscape:cx="40.927148"
     inkscape:cy="52.199455"
     inkscape:window-width="1920"
     inkscape:window-height="1057"
     inkscape:window-x="-8"
     inkscape:window-y="-8"
     inkscape:window-maximized="1"
     inkscape:current-layer="layer1" />
  <defs
     id="defs2" />
  <g
     inkscape:label="Camada 1"
     inkscape:groupmode="layer"
     id="layer1">
    <g
       id="g7465"
       transform="matrix(1.0098933,0,0,1.0098933,-0.4038653,0.04005935)"
       style="stroke-width:0.990204">
      <path
         style="fill:#2d303c;fill-opacity:1;stroke:none;stroke-width:0.0990204;stroke-linecap:butt;stroke-linejoin:miter;stroke-miterlimit:4;stroke-dasharray:none;stroke-opacity:1"
         d="m 34.807743,58.542269 c 1.946875,0 1.817618,-4.001547 0,-4.001547 H 15.759285 c -3.865075,0 -3.8064,-10.195721 0,-10.195721 h 19.02105 c 1.7231,0 1.946442,-3.946731 0,-3.946731 H 15.101496 c -6.0512836,0 -6.7383059,18.070439 0,18.089183 z"
         id="path1247"
         sodipodi:nodetypes="ccccccssc" />
      <path
         id="path2457"
         style="fill:#c00811;fill-opacity:1;stroke:none;stroke-width:0.0990204;stroke-linecap:butt;stroke-linejoin:miter;stroke-miterlimit:4;stroke-dasharray:none;stroke-opacity:1"
         d="m 77.115931,40.39827 c -0.794496,0 -2.309532,0.303327 -2.948838,1.274095 l -9.159817,13.910618 c -1.200437,1.82283 1.624817,3.978729 2.633637,2.426668 l 8.47435,-13.03527 c 0.240311,-0.369718 0.527405,-0.518374 1.000668,-0.518374 0.473263,0 0.762255,0.148655 1.002567,0.518374 l 8.472451,13.03527 c 1.00882,1.552061 3.835973,-0.603838 2.635535,-2.426668 L 80.066668,41.672365 C 79.427362,40.701597 77.910427,40.39827 77.115931,40.39827 Z" />
      <path
         id="path2099"
         style="fill:#2d303c;fill-opacity:1;stroke:none;stroke-width:0.0990204;stroke-linecap:butt;stroke-linejoin:miter;stroke-miterlimit:4;stroke-dasharray:none;stroke-opacity:1"
         d="m 39.019606,40.400274 c -0.842249,0.03303 -1.802716,0.588248 -1.900084,1.490984 l 0.106637,15.377104 c 0,1.600816 3.972726,1.793537 3.972726,0 V 46.612384 c 2.994922,2.671733 6.104363,4.092566 9.269693,4.889807 3.165331,-0.797241 6.272832,-2.218074 9.267755,-4.889807 v 10.655978 c 0,1.793537 3.972725,1.600816 3.972725,0 l 0.106637,-15.377104 c -0.141624,-1.313071 -2.109124,-1.891643 -2.883085,-1.196277 -2.962958,2.662075 -6.526466,5.327163 -10.464032,6.642537 -3.937566,-1.315374 -7.503013,-3.980462 -10.46597,-6.642537 -0.241863,-0.217302 -0.600162,-0.309718 -0.983002,-0.294707 z" />
      <circle
         style="fill:#c00811;fill-opacity:1;stroke-width:0.0990204;stroke-linecap:round;stroke-linejoin:round;stroke-miterlimit:4;stroke-dasharray:none"
         id="path3416"
         cx="77.116806"
         cy="55.677807"
         r="2.6677155" />
    </g>
  </g>
</svg>
