<?xml version="1.0" encoding="UTF-8" standalone="no"?>
<svg
   width="100"
   height="100"
   viewBox="0 -189 100 100"
   version="1.1"
   preserveAspectRatio="xMidYMid"
   id="svg10"
   sodipodi:docname="dinersclub-svgrepo-com.svg"
   inkscape:version="1.1.2 (b8e25be833, 2022-02-05)"
   xmlns:inkscape="http://www.inkscape.org/namespaces/inkscape"
   xmlns:sodipodi="http://sodipodi.sourceforge.net/DTD/sodipodi-0.dtd"
   xmlns="http://www.w3.org/2000/svg"
   xmlns:svg="http://www.w3.org/2000/svg">
  <defs
     id="defs14" />
  <sodipodi:namedview
     id="namedview12"
     pagecolor="#ffffff"
     bordercolor="#666666"
     borderopacity="1.0"
     inkscape:pageshadow="2"
     inkscape:pageopacity="0.0"
     inkscape:pagecheckerboard="0"
     showgrid="false"
     inkscape:zoom="0.85058594"
     inkscape:cx="136.37658"
     inkscape:cy="372.68427"
     inkscape:window-width="1920"
     inkscape:window-height="1057"
     inkscape:window-x="-8"
     inkscape:window-y="-8"
     inkscape:window-maximized="1"
     inkscape:current-layer="svg10" />
  <g
     id="g916"
     transform="matrix(0.47528513,0,0,0.47528513,9.6772258,-170.99949)">
    <path
       d="m 99.284607,133.85956 c 36.445943,0.17716 69.714523,-29.65862 69.714523,-65.955357 0,-39.68894 -33.26858,-67.12238713 -69.714523,-67.11100935 H 67.919831 C 31.037433,0.78181587 0.67911688,28.221765 0.67911688,67.904203 c 0,36.304867 30.35831612,66.132517 67.24071412,65.955357 h 31.364776"
       fill="#006095"
       id="path2" />
    <path
       d="M 81.909312,103.24683 V 31.175111 c 14.517142,5.557232 24.822778,19.582781 24.847208,36.033422 -0.0244,16.453892 -10.330066,30.471315 -24.847208,36.038297 M 29.387684,67.208533 C 29.420255,50.767644 39.709609,36.750222 54.218607,31.176736 V 103.2322 C 39.709609,97.663594 29.420255,83.654298 29.387684,67.208533 M 68.066402,6.2935365 C 34.364617,6.3049143 7.0549983,33.56607 7.0468554,67.208533 7.0549983,100.84775 34.364617,128.10402 68.066402,128.11378 101.77959,128.10402 129.09409,100.84775 129.09898,67.208533 129.09409,33.56607 101.77959,6.3049143 68.066402,6.2935365"
       fill="#ffffff"
       id="path4" />
  </g>
</svg>
