<?xml version="1.0" encoding="UTF-8" standalone="no"?>
<svg
   width="100"
   height="100"
   viewBox="0 0 100 100"
   fill="#5865f2"
   aria-label="Discord"
   role="img"
   version="1.1"
   id="svg6"
   sodipodi:docname="discord.svg"
   inkscape:version="1.1.2 (b8e25be833, 2022-02-05)"
   xmlns:inkscape="http://www.inkscape.org/namespaces/inkscape"
   xmlns:sodipodi="http://sodipodi.sourceforge.net/DTD/sodipodi-0.dtd"
   xmlns="http://www.w3.org/2000/svg"
   xmlns:svg="http://www.w3.org/2000/svg">
  <defs
     id="defs10" />
  <sodipodi:namedview
     id="namedview8"
     pagecolor="#ffffff"
     bordercolor="#666666"
     borderopacity="1.0"
     inkscape:pageshadow="2"
     inkscape:pageopacity="0.0"
     inkscape:pagecheckerboard="0"
     showgrid="false"
     inkscape:zoom="8.48"
     inkscape:cx="50"
     inkscape:cy="50"
     inkscape:window-width="1920"
     inkscape:window-height="1057"
     inkscape:window-x="-8"
     inkscape:window-y="-8"
     inkscape:window-maximized="1"
     inkscape:current-layer="svg6" />
  <path
     d="m 77.720618,24.59311 c -5.12453,-2.34874 -10.56935,-4.05692 -16.29174,-5.06047 -0.10676,0 -0.21352,0 -0.25623,0.12811 -0.70462,1.25978 -1.49465,2.88255 -2.02846,4.16368 -6.19214,-0.91814 -12.27752,-0.91814 -18.298847,0 -0.555158,-1.32384 -1.34519,-2.92525 -2.135222,-4.16368 -0.06406,-0.0854 -0.149465,-0.14947 -0.256226,-0.12811 -4.91101,0.9822 -11.188562,2.77578 -16.227685,5.06047 -0.0427,0 -0.08541,0.0427 -0.106761,0.0854 -10.462586,15.58712 -13.2383739,30.53367 -11.743719,45.48022 0,0.0641 0.0427,0.14947 0.106762,0.21352 6.832709,5.03913 13.451896,8.11385 19.985674,10.0996 0.106761,0 0.213522,0 0.277579,-0.0854 1.537359,-2.09251 2.903901,-4.31315 4.099625,-6.66189 0.06406,-0.12811 0,-0.29893 -0.149465,-0.34163 -2.135222,-0.85409 -4.270444,-1.8363 -6.2562,-2.98931 -0.149465,-0.0854 -0.170817,-0.32029 0,-0.42705 0.427045,-0.32028 0.854089,-0.64057 1.238429,-0.96085 0.06406,-0.0641 0.170817,-0.0641 0.256226,-0.0427 13.11026,5.97862 27.33084,5.97862 40.14217,0 0.0854,-0.0427 0.19217,-0.0214 0.25622,0.0214 0.4057,0.34163 0.81139,0.66192 1.23843,0.9822 0.14947,0.10676 0.12811,0.34164 0,0.42705 -1.98575,1.17437 -4.05692,2.13522 -6.2562,2.98931 -0.14946,0.064 -0.21352,0.21352 -0.12811,0.36298 1.19572,2.34875 2.58362,4.54803 4.05692,6.61919 0.0641,0.0854 0.17082,0.12811 0.27758,0.0854 6.53378,-2.02846 13.17432,-5.08183 20.02838,-10.0996 0.064,-0.0427 0.10676,-0.10676 0.10676,-0.21352 1.66547,-17.27394 -2.79714,-32.24185 -11.82913,-45.48022 0,-0.0427 -0.0641,-0.0854 -0.10676,-0.0854 z M 36.724363,61.1054 c -4.056921,0 -7.259753,-3.62988 -7.259753,-8.11384 0,-4.48397 3.202832,-8.11384 7.259753,-8.11384 4.056921,0 7.259755,3.62987 7.259755,8.11384 0,4.48396 -3.202834,8.11384 -7.259755,8.11384 z m 26.690275,0 c -4.05693,0 -7.25976,-3.62988 -7.25976,-8.11384 0,-4.48397 3.20283,-8.11384 7.25976,-8.11384 4.05692,0 7.25975,3.62987 7.25975,8.11384 0,4.48396 -3.20283,8.11384 -7.25975,8.11384 z"
     fill="#5865f2"
     id="path4"
     style="stroke-width:0.999999" />
</svg>
