<?xml version="1.0" encoding="UTF-8" standalone="no"?>
<svg
   height="100"
   width="100"
   viewBox="-150.0003 -135.8345 108.33355 101.87587"
   version="1.1"
   id="svg19"
   sodipodi:docname="disney+-.svg"
   inkscape:version="1.1.2 (b8e25be833, 2022-02-05)"
   xmlns:inkscape="http://www.inkscape.org/namespaces/inkscape"
   xmlns:sodipodi="http://sodipodi.sourceforge.net/DTD/sodipodi-0.dtd"
   xmlns="http://www.w3.org/2000/svg"
   xmlns:svg="http://www.w3.org/2000/svg">
  <defs
     id="defs23">
    <linearGradient
       y2="84.294998"
       x2="189.496"
       y1="184.483"
       x1="930.50299"
       gradientUnits="userSpaceOnUse"
       id="linearGradient852">
      <stop
         offset="0"
         stop-color="#101c50"
         id="stop842" />
      <stop
         offset=".236"
         stop-color="#0d267a"
         id="stop844" />
      <stop
         offset=".497"
         stop-color="#085aa4"
         id="stop846" />
      <stop
         offset=".655"
         stop-color="#058bbf"
         id="stop848" />
      <stop
         offset="1"
         stop-color="#b1ffff"
         id="stop850" />
    </linearGradient>
    <linearGradient
       y2="84.294998"
       x2="189.496"
       y1="184.483"
       x1="930.50299"
       gradientUnits="userSpaceOnUse"
       id="a"
       gradientTransform="matrix(0.08666663,0,0,0.08666663,-139.16683,-109.2312)">
      <stop
         offset="0"
         stop-color="#101c50"
         id="stop4" />
      <stop
         offset=".236"
         stop-color="#0d267a"
         id="stop6" />
      <stop
         offset=".497"
         stop-color="#085aa4"
         id="stop8" />
      <stop
         offset=".655"
         stop-color="#058bbf"
         id="stop10" />
      <stop
         offset="1"
         stop-color="#b1ffff"
         id="stop12" />
    </linearGradient>
  </defs>
  <sodipodi:namedview
     id="namedview21"
     pagecolor="#ffffff"
     bordercolor="#666666"
     borderopacity="1.0"
     inkscape:pageshadow="2"
     inkscape:pageopacity="0.0"
     inkscape:pagecheckerboard="0"
     showgrid="false"
     width="100px"
     inkscape:zoom="5.9962655"
     inkscape:cx="45.861879"
     inkscape:cy="53.866861"
     inkscape:window-width="1920"
     inkscape:window-height="1057"
     inkscape:window-x="-8"
     inkscape:window-y="-8"
     inkscape:window-maximized="1"
     inkscape:current-layer="svg19" />
  <g
     id="g1190"
     transform="matrix(1.8181557,0,0,1.8181557,113.86188,58.984391)">
    <path
       style="fill:#101c50;fill-opacity:1;stroke-width:11.5384"
       d="m -91.932088,-77.30278 h -5.31683 c -0.10599,-1.807086 -0.32413,-3.567372 -0.667071,-5.380265 a 0.3960665,0.3960665 0 0 0 -0.38853,-0.323699 h -1.22572 a 0.35879985,0.35879985 0 0 0 -0.27681,0.13156 0.36200651,0.36200651 0 0 0 -0.0761,0.299086 c 0.34831,1.754306 0.56888,3.480965 0.67773,5.275051 h -5.115151 c -0.23834,0 -0.43195,0.193007 -0.43195,0.430387 v 1.105519 a 0.43281315,0.43281315 0 0 0 0.43195,0.432293 h 5.188381 c 0.003,0.272827 0.006,0.51714 0.006,0.746373 0,1.59328 -0.0687,2.905759 -0.22932,4.386892 a 0.39615317,0.39615317 0 0 0 0.10236,0.312433 0.39701983,0.39701983 0 0 0 0.29614,0.132947 h 1.136801 a 0.42925982,0.42925982 0 0 0 0.42796,-0.387834 c 0.15531,-1.491186 0.22187,-2.819958 0.22187,-4.444524 0,-0.228367 -0.002,-0.473547 -0.006,-0.746373 h 5.2442 c 0.23772,0 0.43177,-0.194394 0.43177,-0.432293 v -1.10552 a 0.43263982,0.43263982 0 0 0 -0.43186,-0.432033"
       id="path989" />
    <path
       id="path979"
       style="fill:#101c50;fill-opacity:1;stroke-width:10.6508"
       d="m 16.412109,44.294922 c -0.292546,-0.0041 -0.586653,-0.0014 -0.882812,0.0098 -1.046804,0.04 -2.44613,0.253555 -3.554688,0.558593 -0.780478,0.21312 -1.313464,0.552713 -1.685547,1.207031 -0.185187,0.32704 -0.3570312,0.68209 -0.263671,1.042969 0.08048,0.306399 0.519171,0.412673 0.871093,0.46875 0.33864,0.0536 1.108178,0.09613 1.3125,-0.152343 0.08751,-0.10816 0.07869,-0.210164 0.0059,-0.339844 -0.07673,-0.1364 -0.270875,-0.234492 -0.457032,-0.269532 -0.208079,-0.03808 -0.609558,-0.06184 -0.705078,-0.103515 -0.05315,-0.02248 -0.109375,-0.05469 -0.109375,-0.05469 a 0.44287892,0.44287892 0 0 1 0.04492,-0.04297 c 0.04088,-0.03304 0.19068,-0.09602 0.285157,-0.119141 0.119602,-0.02688 0.248156,-0.06915 0.376953,-0.105469 0.901761,-0.249442 2.685748,-0.292042 3.503906,-0.261719 3.17368,0.1184 6.128746,0.82565 9.119141,2.054688 2.929111,1.204637 6.258855,3.259978 8.201171,5.757812 0.735119,0.945438 1.656542,2.498644 1.767579,3.806641 0.101279,1.197677 -0.282874,2.343803 -1.013672,3.181641 -0.554482,0.633199 -1.285663,1.100884 -2.083985,1.476562 -1.818393,0.858078 -4.030282,1.034742 -6.011719,0.982422 -0.260242,-0.0064 -1.239583,-0.09387 -1.470703,-0.128906 -0.402793,-0.06528 -0.914062,-0.16211 -0.914062,-0.16211 L 22.617188,56.96875 c 0,0 0.618095,0.02135 1.052734,0.04687 1.110395,0.06568 3.409675,0.447099 4.560547,0.904297 0.245279,0.09648 0.50259,0.245081 0.52539,0.488281 0.01656,0.187359 -0.131995,0.346988 -0.296875,0.492188 a 1.2855968,1.2855968 0 0 1 -0.259765,0.183593 c -0.19848,0.10432 -0.534871,0.283137 -0.558594,0.3125 -0.06268,0.0836 -0.06724,0.207074 0.01953,0.275391 0.221363,0.171356 0.939737,0.266899 1.13086,0.255859 0.642238,-0.0364 1.276445,-0.472515 1.611328,-1.058593 0.297839,-0.519039 0.326376,-0.917069 0.130859,-1.492188 -0.210479,-0.627358 -0.858739,-1.220426 -1.552734,-1.572265 -0.842795,-0.427279 -2.312485,-0.746309 -3.066407,-0.867188 -0.588875,-0.09384 -1.213891,-0.184066 -1.78125,-0.197266 -0.583844,-0.01656 -1.533203,0.01172 -1.533203,0.01172 0,0 -0.01786,-0.831647 -0.05469,-1.384765 -0.06152,-0.907838 -0.313273,-2.692553 -1.140625,-3.207032 -0.1512,-0.09296 -0.336527,-0.10449 -0.441406,0.03711 -0.160311,0.209519 -0.31807,1.007484 -0.353516,1.214843 -0.06792,0.383439 -0.278869,2.196578 -0.271484,2.472657 0.0054,0.280799 -0.02245,1.048828 -0.03906,1.072265 -0.0096,0.01096 -0.01991,0.01913 -0.0332,0.0293 -0.03247,0.02112 -0.561618,0.117296 -0.902344,0.166016 -0.721355,0.10512 -2.457146,0.671409 -3.015625,0.917968 -0.760881,0.332719 -1.872207,0.915969 -2.18164,1.691407 -0.2244,0.556319 -0.140737,1.021836 0.154296,1.546875 0.379523,0.672078 0.879029,1.196177 1.433594,1.722656 0.19776,0.18632 1.094175,0.938071 1.302735,1.09375 0.752804,0.556239 1.613533,1.09657 2.519531,1.542969 0.294959,0.147199 0.648437,0.314453 0.648437,0.314453 0,0 0.07007,0.709108 0.136719,1.117187 0.0824,0.510239 0.251727,0.953385 0.72461,1.152344 0.287999,0.12312 0.618001,0.102762 0.929687,0.04492 0.258239,-0.0496 0.436765,-0.165232 0.544922,-0.388672 0.04124,-0.08336 0.115138,-0.33974 0.126953,-0.4375 0.02474,-0.214239 0.02148,-0.519531 0.02148,-0.519531 0,0 0.761436,0.176411 1.273438,0.269531 1.487674,0.27528 3.101862,0.300459 4.505859,0.130859 2.06911,-0.252559 4.481069,-1.020551 6.039063,-2.367187 0.418965,-0.362399 1.123125,-1.208029 1.419922,-1.742187 0.173196,-0.312 0.33814,-0.626054 0.503906,-1.007813 0.03408,-0.07664 0.238759,-0.704243 0.277344,-0.976563 0.02114,-0.11816 0.143673,-1.014522 0.0918,-1.488281 h -0.002 c 0.0088,-0.199039 -0.101558,-0.714397 -0.113281,-0.80664 -0.0082,-0.01 -0.06755,-0.261835 -0.107422,-0.433594 -0.04024,-0.1736 -0.281306,-0.77452 -0.33789,-0.875 -0.1644,-0.293279 -0.263186,-0.543835 -0.390625,-0.796875 C 35.3395,53.800702 34.24948,52.470118 33.373002,51.601559 32.920011,51.152044 32.292772,50.590258 31.814453,50.199219 31.58518,50.00858 30.109661,48.924292 29.857422,48.757812 29.05766,48.234214 27.634067,47.431773 26.730469,46.996094 25.471191,46.389776 23.75134,45.723451 22.4375,45.326172 c -2.008646,-0.609839 -3.977569,-1.00239 -6.025391,-1.03125 z m 3.810547,12.773437 c 0,0 -0.01882,0.907822 -0.02344,1.824219 -0.0082,1.737116 0.03711,3.5 0.03711,3.5 0,0 -0.619741,-0.222073 -0.99414,-0.376953 -1.089755,-0.456239 -2.569147,-1.394707 -3.298829,-2.003906 -0.174082,-0.14512 -0.794617,-0.741975 -0.904297,-0.871094 -0.189682,-0.22232 -0.360315,-0.438092 -0.3125,-0.712891 0.04552,-0.26512 0.570292,-0.483851 0.828126,-0.576172 0.859604,-0.306958 2.348072,-0.565033 3.140624,-0.65039 0.622965,-0.06912 1.527344,-0.132813 1.527344,-0.132813 z"
       transform="matrix(1.0833355,0,0,1.0833355,-150.0003,-139.06334)" />
  </g>
</svg>
