<?xml version="1.0" encoding="UTF-8" standalone="no"?>
<svg
   width="100"
   height="100"
   viewBox="0 0 100 100"
   version="1.1"
   id="svg4"
   sodipodi:docname="epic_games.svg"
   inkscape:version="1.1.2 (b8e25be833, 2022-02-05)"
   xmlns:inkscape="http://www.inkscape.org/namespaces/inkscape"
   xmlns:sodipodi="http://sodipodi.sourceforge.net/DTD/sodipodi-0.dtd"
   xmlns="http://www.w3.org/2000/svg"
   xmlns:svg="http://www.w3.org/2000/svg">
  <defs
     id="defs8" />
  <sodipodi:namedview
     id="namedview6"
     pagecolor="#ffffff"
     bordercolor="#666666"
     borderopacity="1.0"
     inkscape:pageshadow="2"
     inkscape:pageopacity="0.0"
     inkscape:pagecheckerboard="0"
     showgrid="false"
     inkscape:zoom="8.48"
     inkscape:cx="50"
     inkscape:cy="50"
     inkscape:window-width="1920"
     inkscape:window-height="1057"
     inkscape:window-x="-8"
     inkscape:window-y="-8"
     inkscape:window-maximized="1"
     inkscape:current-layer="svg4" />
  <path
     d="M 21.797682,10 C 17.215415,10 15.5355,11.692419 15.5355,16.262201 v 55.204863 c 0,0.522475 0.0275,1.002452 0.0675,1.447431 0.117494,1.002452 0.117494,1.979905 1.052447,3.072353 0.09,0.129994 1.029947,0.819961 1.029947,0.819961 0.507474,0.247488 0.857457,0.42998 1.429927,0.662469 l 27.786088,11.639444 c 1.432428,0.652468 2.047396,0.927455 3.087343,0.887457 h 0.0125 c 1.052446,0.04 1.667414,-0.232489 3.099842,-0.887457 L 80.872179,77.469278 c 0.58747,-0.232489 0.922453,-0.417481 1.442428,-0.662469 0,0 0.939952,-0.717466 1.029947,-0.819961 0.937453,-1.092448 0.937453,-2.069901 1.052446,-3.072353 0.04,-0.442479 0.0675,-0.922456 0.0675,-1.432432 V 16.264701 c 0,-4.569782 -1.692414,-6.262201 -6.262182,-6.262201 z M 66.31542,20.362005 h 2.262385 c 3.777307,0 5.627213,1.837412 5.627213,5.667229 v 6.262201 h -4.582267 v -6.017212 c 0,-1.222442 -0.559972,-1.782415 -1.747411,-1.782415 h -0.779961 c -1.222437,0 -1.782408,0.559973 -1.782408,1.782415 v 19.371574 c 0,1.222442 0.559971,1.782415 1.782408,1.782415 h 0.872457 c 1.16994,0 1.729911,-0.559973 1.729911,-1.782415 v -6.927169 h 4.582267 v 7.149659 c 0,3.812318 -1.872404,5.689728 -5.662211,5.689728 H 66.31542 c -3.802308,0 -5.667213,-1.88991 -5.667213,-5.689728 V 26.061733 c 0,-3.812318 1.862405,-5.702228 5.667213,-5.702228 z m -40.625436,0.264987 h 10.376972 v 4.257297 h -5.717209 v 8.669586 h 5.50972 v 4.247297 h -5.50972 v 9.242059 h 5.797206 v 4.259796 H 25.689984 Z m 12.719354,0 h 7.319628 c 3.787307,0 5.662211,1.88741 5.662211,5.699728 v 8.152111 c 0,3.812318 -1.877404,5.689728 -5.662211,5.689728 H 43.0866 v 11.131968 h -4.677262 z m 15.091733,0 h 4.659763 v 30.676035 h -4.659763 z m -10.42947,4.124803 v 11.299461 h 1.927402 c 1.17244,0 1.732412,-0.569973 1.732412,-1.797414 V 26.54671 c 0,-1.222442 -0.559972,-1.797414 -1.732412,-1.797414 z M 30.219754,58.590179 h 0.689965 l 0.157491,0.0275 h 0.249988 l 0.129993,0.04 h 0.129994 l 0.117494,0.0375 0.129993,0.0275 0.102495,0.0275 0.232488,0.0525 0.132494,0.0375 0.08999,0.0275 0.102496,0.04 0.129993,0.04 0.09,0.0375 0.132494,0.0525 0.117494,0.0525 0.102494,0.0625 0.117495,0.0525 0.08999,0.0625 0.132493,0.0675 0.102495,0.0625 0.102495,0.0525 0.102494,0.0775 0.107495,0.0675 0.09,0.0775 0.312484,0.237488 -0.08,0.102495 -0.09,0.09 -0.08,0.0925 -0.09,0.102495 -0.0625,0.09 -0.08,0.0925 -0.09,0.09 -0.08,0.102495 -0.0625,0.08999 -0.0925,0.107495 -0.0775,0.09 -0.09,0.102495 -0.08,0.0925 -0.0625,0.102495 -0.09249,0.09 -0.0775,0.107494 -0.08999,0.09 -0.08,0.09 -0.09,-0.0625 -0.102495,-0.0925 -0.107495,-0.0625 -0.19249,-0.129994 -0.117494,-0.0675 -0.107495,-0.0625 -0.117494,-0.0675 -0.08999,-0.0525 -0.102495,-0.05 -0.209989,-0.08 -0.129994,-0.0225 -0.102494,-0.0275 -0.117495,-0.0275 -0.132492,-0.0275 -0.129994,-0.0125 h -0.129994 l -0.152492,-0.0275 h -0.249987 l -0.129994,0.0125 h -0.129993 l -0.129993,0.04 -0.102495,0.0275 -0.117495,0.04 -0.117493,0.0225 -0.107495,0.0525 -0.129993,0.0525 -0.179991,0.129993 -0.107495,0.0625 -0.09,0.08 -0.09,0.0625 -0.0925,0.08 -0.0625,0.09 -0.107494,0.09 -0.129994,0.182492 -0.0625,0.102495 -0.0525,0.117494 -0.0625,0.0925 -0.0675,0.117494 -0.04,0.117494 -0.05,0.102495 -0.04,0.129994 -0.0125,0.129994 -0.0375,0.119994 -0.0275,0.129994 v 0.129994 l -0.0125,0.129994 v 0.299985 l 0.0125,0.129994 v 0.102495 l 0.0125,0.129994 0.0225,0.117494 0.04,0.102496 0.0125,0.132493 0.04,0.102495 0.0375,0.09 0.0525,0.129994 0.0675,0.129994 0.05,0.09249 0.129993,0.20749 0.08,0.102495 0.0625,0.0925 0.107494,0.0775 0.0625,0.09 0.09,0.08 0.209989,0.157493 0.09,0.05 0.102495,0.0675 0.119994,0.0525 0.129993,0.05 0.09,0.0525 0.259987,0.0775 0.117493,0.0125 0.129994,0.04 0.129994,0.0125 h 0.559971 l 0.157491,-0.0125 h 0.117495 l 0.132494,-0.0525 0.129992,-0.0125 0.129994,-0.0375 0.102495,-0.0275 0.117494,-0.0525 0.102495,-0.05 0.117494,-0.0525 0.08,-0.0525 0.102495,-0.0625 v -1.160049 h -1.83736 V 62.55749 h 4.152289 v 4.167301 l -0.09,0.0625 -0.09,0.0775 -0.09249,0.0675 -0.102495,0.0775 -0.102495,0.0525 -0.09,0.08 -0.20999,0.129994 -0.129993,0.0625 -0.20749,0.129993 -0.132493,0.0525 -0.102495,0.05 -0.117494,0.0525 -0.259987,0.102495 -0.102494,0.0525 -0.237488,0.0775 -0.117494,0.0275 -0.117494,0.04 -0.129994,0.04 -0.102494,0.0225 -0.38998,0.08 -0.119995,0.0125 -0.259986,0.0275 -0.142494,0.0125 -0.129992,0.01 -0.142494,0.0125 h -0.649966 l -0.129993,-0.0225 h -0.129994 l -0.129993,-0.0275 h -0.117494 l -0.129994,-0.04 -0.379981,-0.0775 -0.102494,-0.04 -0.117494,-0.0125 -0.129994,-0.0525 -0.237488,-0.0775 -0.232488,-0.102495 -0.129994,-0.0525 -0.09,-0.0525 -0.129994,-0.05 -0.0925,-0.08 -0.129992,-0.05 -0.0775,-0.0675 -0.102495,-0.0625 -0.209989,-0.157493 -0.102495,-0.0675 -0.08,-0.0775 -0.102494,-0.08 -0.169992,-0.167492 -0.09,-0.08 -0.0775,-0.09 -0.0925,-0.0925 -0.0625,-0.102495 -0.08,-0.0775 -0.0625,-0.107495 -0.08,-0.102495 -0.0625,-0.09 -0.0675,-0.102495 -0.0625,-0.119994 -0.0525,-0.102495 -0.0525,-0.117494 -0.05,-0.102496 -0.102496,-0.237488 -0.04,-0.09 -0.0525,-0.117494 -0.0275,-0.117495 -0.0225,-0.102495 -0.0275,-0.129994 -0.04,-0.119994 -0.0275,-0.129994 -0.0125,-0.102495 -0.0225,-0.129994 -0.0275,-0.232488 -0.0275,-0.259988 V 62.97247 l 0.0275,-0.132494 v -0.129994 l 0.04,-0.129993 v -0.129994 l 0.0375,-0.117495 0.04,-0.129993 0.0525,-0.232489 0.0375,-0.129994 0.04,-0.117494 0.157492,-0.352484 0.05,-0.102495 0.0525,-0.117494 0.0675,-0.119994 0.05,-0.102495 0.0675,-0.09 0.129994,-0.20999 0.0775,-0.102495 0.08,-0.09 0.0625,-0.102495 0.169992,-0.169992 0.0775,-0.09249 0.0925,-0.09 0.0775,-0.09 0.107494,-0.08 0.179991,-0.157493 0.102495,-0.0775 0.107494,-0.0675 0.09,-0.0775 0.102495,-0.0675 0.107494,-0.05 0.117494,-0.0675 0.129994,-0.0625 0.09,-0.0675 0.129994,-0.05 0.117494,-0.0525 0.117493,-0.0625 0.107495,-0.0275 0.129993,-0.04 0.102495,-0.0525 0.117495,-0.0225 0.117493,-0.04 0.129994,-0.0275 0.107495,-0.04 0.129992,-0.0275 h 0.129994 l 0.117495,-0.0375 h 0.129992 l 0.129994,-0.0275 h 0.117494 z m 39.960469,0.0275 h 0.689965 l 0.157492,0.0275 h 0.247487 l 0.129994,0.0375 h 0.142493 l 0.129993,0.04 0.232487,0.0525 0.129994,0.0275 0.117495,0.0225 0.132492,0.04 0.117495,0.04 0.102495,0.0275 0.117493,0.0375 0.129994,0.04 0.102495,0.0525 0.129993,0.05 0.119994,0.0525 0.117494,0.0675 0.09,0.05 0.117495,0.0675 0.117493,0.05 0.107495,0.0675 0.117494,0.0775 0.09,0.0675 0.209989,0.157493 0.102495,0.0625 -0.08,0.102495 -0.0625,0.107495 -0.0775,0.09 -0.08,0.102495 -0.0625,0.117494 -0.0675,0.107495 -0.0775,0.09 -0.08,0.102495 -0.0625,0.107495 -0.08,0.102495 -0.0625,0.08999 -0.08,0.102495 -0.0625,0.119995 -0.08,0.102495 -0.0775,0.09 -0.08,0.102495 -0.0625,0.107495 -0.102494,-0.08 -0.119994,-0.0625 -0.09,-0.0675 -0.102494,-0.0625 -0.117495,-0.0525 -0.107494,-0.0675 -0.117494,-0.05 -0.09,-0.0525 -0.129994,-0.05 -0.0925,-0.0525 -0.102495,-0.04 -0.232488,-0.0775 -0.259987,-0.08 -0.38998,-0.0775 -0.129994,-0.0125 -0.237487,-0.0275 h -0.272486 l -0.142493,0.0275 -0.129994,0.0275 -0.117494,0.0275 -0.102495,0.05 -0.09249,0.0525 -0.102494,0.09 -0.0775,0.117494 -0.0525,0.119995 v 0.309985 l 0.0675,0.142493 0.05,0.08 0.08,0.0775 0.129994,0.0675 0.102495,0.0625 0.117494,0.0525 0.129993,0.05 0.169991,0.04 0.09,0.04 0.107495,0.0275 0.129993,0.0275 0.102495,0.0375 0.117494,0.0275 0.142492,0.04 0.129994,0.04 0.142493,0.0375 0.142493,0.0275 0.117494,0.04 0.142492,0.0375 0.129994,0.0275 0.117494,0.0275 0.39248,0.117494 0.102495,0.04 0.129993,0.04 0.117494,0.05 0.129994,0.0675 0.259986,0.102495 0.117495,0.0675 0.209989,0.129994 0.192489,0.142493 0.119995,0.0775 0.09,0.09 0.09,0.107495 0.0925,0.09 0.0625,0.09 0.09249,0.129993 0.0625,0.0925 0.0525,0.129994 0.05,0.0775 0.04,0.129994 0.04,0.107495 0.0275,0.117494 0.05,0.259988 0.0125,0.129994 0.0125,0.117494 v 0.312485 l -0.0125,0.142493 -0.0275,0.259988 -0.0275,0.129994 -0.0375,0.117494 -0.0275,0.129994 -0.04,0.129994 -0.0375,0.117494 -0.0525,0.0925 -0.0525,0.117494 -0.0625,0.102495 -0.08,0.0925 -0.129992,0.20749 -0.157493,0.182491 -0.09,0.0625 -0.102495,0.0925 -0.08,0.0775 -0.102495,0.0775 -0.102495,0.0525 -0.102494,0.08 -0.119994,0.0625 -0.232488,0.117494 -0.129994,0.0525 -0.117493,0.05 -0.129994,0.04 -0.117495,0.04 -0.107493,0.0275 -0.259987,0.05 -0.09,0.0275 -0.129994,0.0275 h -0.129992 l -0.117495,0.0275 h -0.129994 l -0.129992,0.0275 h -0.927453 l -0.38998,-0.04 -0.129994,-0.0275 -0.117494,-0.0125 -0.259987,-0.05 -0.142492,-0.0275 -0.117495,-0.0275 -0.129993,-0.04 -0.132493,-0.0275 -0.117495,-0.0375 -0.129992,-0.04 -0.129994,-0.0525 -0.102495,-0.0375 -0.129993,-0.04 -0.129994,-0.0525 -0.09249,-0.05 -0.129993,-0.04 -0.102495,-0.0675 -0.129993,-0.05 -0.102495,-0.0675 -0.0925,-0.0625 -0.129993,-0.0675 -0.08999,-0.05 -0.102495,-0.08 -0.102496,-0.0625 -0.107493,-0.08 -0.09,-0.0775 -0.102495,-0.08 -0.0925,-0.0625 -0.102495,-0.0925 0.08,-0.102495 0.09,-0.09 0.0775,-0.0925 0.0925,-0.102495 0.0625,-0.09 0.08,-0.102495 0.09,-0.0925 0.0775,-0.09 0.0925,-0.102495 0.0625,-0.0925 0.09249,-0.09 0.0775,-0.102495 0.08,-0.09249 0.09,-0.102495 0.0625,-0.09 0.0925,-0.0925 0.09,-0.102495 0.09,0.08 0.119995,0.0775 0.08999,0.0775 0.129993,0.0675 0.09,0.0675 0.117494,0.0775 0.107494,0.0675 0.117495,0.05 0.09,0.0675 0.117494,0.0375 0.129993,0.0525 0.107495,0.0525 0.117494,0.0375 0.102495,0.0525 0.129994,0.04 0.117493,0.0375 0.129994,0.04 0.129994,0.0125 0.119993,0.04 0.129994,0.0125 h 0.142492 l 0.117494,0.0375 h 0.702465 l 0.117493,-0.0225 0.129994,-0.0275 0.09,-0.0125 0.107493,-0.04 0.09,-0.05 0.117494,-0.08 0.0675,-0.09 0.05,-0.102495 0.04,-0.119995 V 65.23745 l -0.0525,-0.117495 -0.0625,-0.102495 -0.08,-0.0775 -0.117494,-0.08 -0.09,-0.0375 -0.117494,-0.0525 -0.129994,-0.0525 -0.142492,-0.0625 -0.0925,-0.0275 -0.102495,-0.0275 -0.129993,-0.04 -0.08999,-0.0225 -0.129994,-0.04 -0.129993,-0.0125 -0.132494,-0.0525 -0.129992,-0.0125 -0.142494,-0.0375 -0.117494,-0.0275 -0.129993,-0.04 -0.129994,-0.0275 -0.129992,-0.0375 -0.117495,-0.04 -0.129994,-0.0275 -0.102494,-0.04 -0.237488,-0.0775 -0.129993,-0.0525 -0.129994,-0.0375 -0.259986,-0.107495 -0.117495,-0.0625 -0.129993,-0.0675 -0.09,-0.0625 -0.119995,-0.0675 -0.08999,-0.0625 -0.117495,-0.0675 -0.169991,-0.169992 -0.09,-0.0775 -0.157493,-0.182492 -0.0675,-0.09 -0.05,-0.09 -0.08,-0.119994 -0.0375,-0.09 -0.119994,-0.312485 -0.0225,-0.129994 -0.0275,-0.117494 v -0.117495 l -0.0275,-0.129993 v -0.532475 l 0.0275,-0.259988 0.0275,-0.107494 0.0225,-0.117495 0.04,-0.102495 0.0275,-0.129994 0.0525,-0.08999 0.05,-0.132494 0.0525,-0.102495 0.05,-0.129994 0.0675,-0.09 0.09,-0.102495 0.0675,-0.107495 0.102496,-0.08999 0.0775,-0.09 0.08,-0.107495 0.117494,-0.09 0.08,-0.0675 0.102495,-0.0775 0.20749,-0.129994 0.117493,-0.0675 0.237488,-0.117495 0.102495,-0.0375 0.117494,-0.04 0.129993,-0.0525 0.129994,-0.0375 0.09249,-0.0275 0.117494,-0.0275 0.102495,-0.0275 0.117494,-0.0275 0.129993,-0.0275 0.259987,-0.0225 0.119994,-0.0125 z m -30.793435,0.09 h 2.35738 l 0.107494,0.237488 0.05,0.102495 0.04,0.129994 0.0525,0.117495 0.0375,0.102495 0.0675,0.117494 0.0775,0.237489 0.0675,0.117494 0.102495,0.232489 0.0275,0.102495 0.207489,0.469978 0.04,0.117494 0.0525,0.107495 0.0625,0.117494 0.0275,0.117495 0.0675,0.129993 0.0225,0.117495 0.119995,0.232489 0.05,0.09249 0.0525,0.129994 0.04,0.129994 0.0375,0.09 0.0675,0.129993 0.04,0.107495 0.05,0.129994 0.04,0.09 0.0525,0.129994 0.117493,0.232488 0.0375,0.117495 0.0275,0.119994 0.0525,0.117494 0.0625,0.102496 0.0525,0.129993 0.0525,0.117495 0.0375,0.102495 0.107495,0.237489 0.0375,0.117494 0.0525,0.117494 0.04,0.117495 0.05,0.102495 0.0675,0.119994 0.05,0.117494 0.0525,0.102496 0.0275,0.129993 0.102495,0.232489 0.0525,0.107495 0.0375,0.117495 0.107494,0.232488 0.0625,0.129994 0.0275,0.102495 0.0675,0.132494 0.0225,0.09 0.0525,0.129993 0.0675,0.129994 0.05,0.09 0.04,0.129994 0.0525,0.107495 0.0375,0.129993 0.0675,0.09 0.0775,0.259988 0.0525,0.09249 0.05,0.129994 0.0675,0.102495 0.0525,0.129994 0.0225,0.117494 0.04,0.102495 0.0525,0.117495 0.0625,0.107495 H 43.05175 l -0.0625,-0.107495 -0.04,-0.117495 -0.0525,-0.117494 -0.05,-0.129994 -0.0275,-0.102495 -0.107495,-0.232489 -0.0375,-0.107495 -0.102495,-0.232488 -0.04,-0.102496 -0.0525,-0.129993 -0.0775,-0.237489 -0.0525,-0.102495 h -3.619816 l -0.05,0.117494 -0.04,0.107495 -0.0525,0.129994 -0.05,0.117494 -0.0275,0.102495 -0.0525,0.129994 -0.05,0.102495 -0.04,0.117495 -0.0525,0.107495 -0.05,0.129993 -0.04,0.09 -0.0525,0.129994 -0.0375,0.129994 -0.0525,0.09249 -0.04,0.129994 H 35.46457 l 0.0375,-0.119994 0.107495,-0.232489 0.0375,-0.129994 0.04,-0.102495 0.0675,-0.117494 0.05,-0.117495 0.0525,-0.107495 0.0275,-0.117494 0.05,-0.129994 0.0675,-0.102495 0.05,-0.117494 0.08,-0.237489 0.117495,-0.232489 0.04,-0.117494 0.05,-0.102495 0.04,-0.119995 0.157493,-0.349983 0.0525,-0.129994 0.0375,-0.102495 0.04,-0.117494 0.0675,-0.107495 0.05,-0.129994 0.04,-0.117494 0.04,-0.102495 0.05,-0.129994 0.0675,-0.0925 0.04,-0.129994 0.05,-0.102495 0.04,-0.117494 0.0525,-0.129994 0.0625,-0.102495 0.04,-0.129994 0.05,-0.09249 0.04,-0.129994 0.0525,-0.129994 0.05,-0.09 0.0525,-0.129993 0.04,-0.107495 0.05,-0.129994 0.04,-0.09 0.0675,-0.129994 0.05,-0.129993 0.0525,-0.102495 0.0275,-0.117495 0.05,-0.119994 0.0675,-0.117495 0.05,-0.102495 0.0275,-0.129993 0.0525,-0.117495 0.0525,-0.107495 0.102496,-0.232489 0.0375,-0.102495 0.107495,-0.259987 0.05,-0.0925 0.0525,-0.129994 0.04,-0.102495 0.0375,-0.129994 0.0525,-0.117494 0.0675,-0.102495 0.05,-0.129994 0.04,-0.09249 0.04,-0.129994 0.05,-0.102495 0.0675,-0.117495 0.04,-0.129993 0.0375,-0.107495 0.0525,-0.129994 0.05,-0.09 0.0675,-0.129994 0.04,-0.129993 0.0375,-0.09 0.0525,-0.129994 z m 7.319628,0.0675 h 2.577369 l 0.08,0.102495 0.129994,0.20999 0.0625,0.117495 0.0675,0.09 0.0625,0.117494 0.0675,0.102495 0.0625,0.119994 0.0675,0.102495 0.0625,0.09 0.0675,0.117495 0.0625,0.107494 0.0925,0.102495 0.0375,0.102496 0.08,0.117494 0.0625,0.107495 0.08,0.09 0.0525,0.117494 0.0625,0.102495 0.08,0.107495 0.0375,0.102495 0.0925,0.117494 0.192491,0.312485 0.0525,0.102496 0.0775,0.102495 0.0675,0.102495 0.0625,0.119994 0.19749,0.309985 0.0625,0.119995 0.0675,0.102495 0.0775,-0.102495 0.0525,-0.132494 0.0775,-0.09 0.0675,-0.117494 0.0625,-0.09 0.0525,-0.129994 0.09,-0.09249 0.0675,-0.117495 0.0525,-0.08999 0.0625,-0.107495 0.08,-0.117495 0.0625,-0.08999 0.0675,-0.129994 0.0625,-0.09 0.08,-0.119994 0.05,-0.09 0.0675,-0.129994 0.0625,-0.0775 0.0675,-0.107495 0.0775,-0.129994 0.0675,-0.08999 0.05,-0.117495 0.08,-0.09249 0.0625,-0.129994 0.0675,-0.0775 0.0775,-0.102495 0.0675,-0.129994 0.0625,-0.0925 0.0675,-0.117494 0.0625,-0.09 0.0675,-0.129994 0.0775,-0.09249 0.0525,-0.117495 0.0675,-0.09 h 2.617367 v 9.297056 h -2.449876 v -5.469739 l -0.0625,0.09249 -0.08,0.129994 -0.0625,0.0775 -0.08,0.102496 -0.05,0.129993 -0.08,0.0925 -0.0625,0.09 -0.08,0.129993 -0.129994,0.182492 -0.0775,0.102495 -0.0675,0.129994 -0.0775,0.09249 -0.0675,0.09 -0.05,0.129994 -0.08,0.09 -0.0625,0.0925 -0.08,0.129994 -0.0625,0.08999 -0.08,0.102496 -0.0625,0.117494 -0.0525,0.0925 -0.0775,0.102495 -0.0675,0.117494 -0.0775,0.09 -0.08,0.107495 -0.05,0.102495 -0.0675,0.117494 -0.0775,0.0925 -0.08,0.102495 -0.05,0.129994 -0.09249,0.0775 -0.05,0.102495 -0.08,0.132494 -0.0625,0.09 h -0.0525 l -0.0775,-0.117494 -0.0675,-0.107495 -0.0625,-0.117494 -0.0675,-0.09 -0.0775,-0.117494 -0.0675,-0.102495 -0.0775,-0.107495 -0.0675,-0.102495 -0.0625,-0.117495 -0.0675,-0.09 -0.09,-0.119994 -0.0525,-0.102495 -0.0775,-0.117494 -0.0675,-0.09 -0.0625,-0.117494 -0.08,-0.107495 -0.0625,-0.129994 -0.08,-0.09 -0.0625,-0.117494 -0.0675,-0.107495 -0.0625,-0.117494 -0.08,-0.09 -0.0625,-0.117494 -0.08,-0.102496 -0.05,-0.107494 -0.08,-0.102496 -0.0625,-0.117494 -0.08,-0.09 -0.0625,-0.119994 -0.08,-0.102495 -0.05,-0.117494 -0.0925,-0.09 -0.05,-0.119994 -0.08,-0.102495 v 5.482238 H 46.72139 v -9.207061 z m 11.559412,0 h 7.332128 v 2.0974 h -4.897251 v 1.497429 h 4.399776 v 1.979905 h -4.399776 v 1.587424 h 4.959748 v 2.1099 h -7.382125 v -9.192061 z m -17.734098,2.849864 -0.04,0.117495 -0.0375,0.107495 -0.0525,0.129993 -0.0525,0.117495 -0.0375,0.117494 -0.107494,0.232489 -0.05,0.129994 -0.04,0.107495 -0.04,0.129993 -0.05,0.09 -0.04,0.129994 -0.0525,0.129994 -0.05,0.09249 -0.04,0.129994 -0.05,0.102495 -0.04,0.129994 -0.0675,0.117494 -0.0275,0.102495 -0.05,0.129994 -0.0525,0.119995 -0.04,0.102495 -0.05,0.129993 h 2.147391 l -0.05,-0.129993 -0.04,-0.117495 -0.102494,-0.237488 -0.04,-0.117495 -0.0525,-0.102495 -0.0375,-0.129994 -0.0525,-0.117494 -0.04,-0.117494 -0.05,-0.107495 -0.04,-0.117495 -0.0525,-0.129994 -0.0375,-0.102495 -0.107495,-0.232489 -0.0225,-0.119994 -0.0525,-0.117494 -0.0525,-0.129994 -0.0375,-0.09 -0.107495,-0.259987 -0.0375,-0.117495 z M 36.706924,79.034212 H 63.408068 L 49.77876,83.526497 Z"
     id="path2"
     style="stroke-width:1" />
</svg>
