<?xml version="1.0" encoding="UTF-8" standalone="no"?>
<!-- Generator: Adobe Illustrator 19.0.0, SVG Export Plug-In . SVG Version: 6.00 Build 0)  -->

<svg
   version="1.1"
   id="Layer_1"
   x="0px"
   y="0px"
   viewBox="0 0 100 100"
   xml:space="preserve"
   sodipodi:docname="facebook.svg"
   width="100"
   height="100"
   inkscape:version="1.1.2 (b8e25be833, 2022-02-05)"
   xmlns:inkscape="http://www.inkscape.org/namespaces/inkscape"
   xmlns:sodipodi="http://sodipodi.sourceforge.net/DTD/sodipodi-0.dtd"
   xmlns="http://www.w3.org/2000/svg"
   xmlns:svg="http://www.w3.org/2000/svg"><defs
   id="defs37" /><sodipodi:namedview
   id="namedview35"
   pagecolor="#ffffff"
   bordercolor="#666666"
   borderopacity="1.0"
   inkscape:pageshadow="2"
   inkscape:pageopacity="0.0"
   inkscape:pagecheckerboard="0"
   showgrid="false"
   width="100px"
   inkscape:zoom="8.48"
   inkscape:cx="50"
   inkscape:cy="50"
   inkscape:window-width="1920"
   inkscape:window-height="1057"
   inkscape:window-x="-8"
   inkscape:window-y="-8"
   inkscape:window-maximized="1"
   inkscape:current-layer="Layer_1" />
<path
   style="fill:#475993;stroke-width:1.00001"
   d="M 79.219566,10 H 20.780239 C 14.826596,10 10,14.826365 10,20.78016 v 58.439288 c 0,5.953796 4.8264,10.78016 10.780239,10.78016 h 28.821997 l 0.04912,-28.587532 h -7.427084 c -0.965202,0 -1.748596,-0.780452 -1.752314,-1.745648 l -0.03562,-9.214948 c -0.0037,-0.970478 0.782024,-1.75915 1.75251,-1.75915 h 7.41358 v -8.90398 c 0,-10.332984 6.310798,-15.959373 15.528554,-15.959373 h 7.563878 c 0.967746,0 1.75251,0.784563 1.75251,1.752498 v 7.770091 c 0,0.967544 -0.784176,1.75191 -1.751532,1.752498 l -4.641852,0.0022 c -5.012904,0 -5.983586,2.382066 -5.983586,5.877864 v 7.708446 h 11.015082 c 1.049548,0 1.863864,0.916464 1.74018,1.958764 l -1.092212,9.214948 c -0.104504,0.881826 -0.852282,1.54623 -1.74018,1.54623 H 62.119526 L 62.070404,90 H 79.219958 C 85.1736,90 90,85.173634 90,79.220036 V 20.78016 C 89.999804,14.826365 85.173404,10 79.219566,10 Z"
   id="path2" />
<g
   id="g4">
</g>
<g
   id="g6">
</g>
<g
   id="g8">
</g>
<g
   id="g10">
</g>
<g
   id="g12">
</g>
<g
   id="g14">
</g>
<g
   id="g16">
</g>
<g
   id="g18">
</g>
<g
   id="g20">
</g>
<g
   id="g22">
</g>
<g
   id="g24">
</g>
<g
   id="g26">
</g>
<g
   id="g28">
</g>
<g
   id="g30">
</g>
<g
   id="g32">
</g>
</svg>
