<?xml version="1.0" encoding="UTF-8" standalone="no"?>
<svg
   width="100"
   height="100"
   viewBox="0 0 100 100"
   role="img"
   version="1.1"
   id="svg6"
   sodipodi:docname="github.svg"
   inkscape:version="1.1.2 (b8e25be833, 2022-02-05)"
   xmlns:inkscape="http://www.inkscape.org/namespaces/inkscape"
   xmlns:sodipodi="http://sodipodi.sourceforge.net/DTD/sodipodi-0.dtd"
   xmlns="http://www.w3.org/2000/svg"
   xmlns:svg="http://www.w3.org/2000/svg"
   xmlns:rdf="http://www.w3.org/1999/02/22-rdf-syntax-ns#"
   xmlns:cc="http://creativecommons.org/ns#"
   xmlns:dc="http://purl.org/dc/elements/1.1/">
  <defs
     id="defs10" />
  <sodipodi:namedview
     id="namedview8"
     pagecolor="#ffffff"
     bordercolor="#666666"
     borderopacity="1.0"
     inkscape:pageshadow="2"
     inkscape:pageopacity="0.0"
     inkscape:pagecheckerboard="0"
     showgrid="false"
     width="100px"
     inkscape:zoom="8.48"
     inkscape:cx="50"
     inkscape:cy="50"
     inkscape:window-width="1920"
     inkscape:window-height="1057"
     inkscape:window-x="-8"
     inkscape:window-y="-8"
     inkscape:window-maximized="1"
     inkscape:current-layer="svg6" />
  <title
     id="title2">GitHub icon</title>
  <path
     d="m 50,10.9905 c -22.1,0 -40,17.91 -40,40 0,17.676666 11.46,32.666666 27.35,37.949999 2,0.376667 2.733333,-0.86 2.733333,-1.923333 0,-0.95 -0.03333,-3.466667 -0.05,-6.8 C 28.906666,82.630499 26.56,74.850499 26.56,74.850499 c -1.82,-4.616666 -4.45,-5.85 -4.45,-5.85 -3.623333,-2.48 0.28,-2.43 0.28,-2.43 4.016667,0.28 6.126666,4.12 6.126666,4.12 3.566667,6.116667 9.363334,4.35 11.65,3.326667 0.36,-2.586667 1.39,-4.35 2.533334,-5.35 -8.883334,-1 -18.22,-4.44 -18.22,-19.766666 0,-4.366667 1.55,-7.933334 4.116666,-10.733334 -0.45,-1.01 -1.8,-5.076666 0.35,-10.586666 0,0 3.35,-1.073333 11,4.1 3.2,-0.89 6.6,-1.33 10,-1.35 3.4,0.02 6.8,0.46 10,1.35 7.6,-5.173333 10.95,-4.1 10.95,-4.1 2.15,5.51 0.8,9.576666 0.4,10.586666 2.55,2.8 4.1,6.366667 4.1,10.733334 0,15.366666 -9.35,18.749999 -18.25,19.733333 1.4,1.2 2.7,3.653333 2.7,7.4 0,5.353333 -0.05,9.653333 -0.05,10.953333 0,1.05 0.7,2.3 2.75,1.9 16.003333,-5.246667 27.453333,-20.246667 27.453333,-37.896666 0,-22.09 -17.91,-40 -39.999999,-40"
     id="path4"
     style="stroke-width:1" />
  <metadata
     id="metadata827">
    <rdf:RDF>
      <cc:Work
         rdf:about="">
        <dc:title>GitHub icon</dc:title>
      </cc:Work>
    </rdf:RDF>
  </metadata>
</svg>
