<?xml version="1.0" encoding="UTF-8" standalone="no"?>
<svg
   width="100"
   height="100"
   viewBox="0 0 100 100"
   version="1.1"
   id="svg6"
   sodipodi:docname="glassdoor-svgrepo-com.svg"
   inkscape:version="1.1.2 (b8e25be833, 2022-02-05)"
   xmlns:inkscape="http://www.inkscape.org/namespaces/inkscape"
   xmlns:sodipodi="http://sodipodi.sourceforge.net/DTD/sodipodi-0.dtd"
   xmlns="http://www.w3.org/2000/svg"
   xmlns:svg="http://www.w3.org/2000/svg">
  <defs
     id="defs10" />
  <sodipodi:namedview
     id="namedview8"
     pagecolor="#ffffff"
     bordercolor="#666666"
     borderopacity="1.0"
     inkscape:pageshadow="2"
     inkscape:pageopacity="0.0"
     inkscape:pagecheckerboard="0"
     showgrid="false"
     width="100px"
     inkscape:zoom="8.48"
     inkscape:cx="50"
     inkscape:cy="50"
     inkscape:window-width="1920"
     inkscape:window-height="1057"
     inkscape:window-x="-8"
     inkscape:window-y="-8"
     inkscape:window-maximized="1"
     inkscape:current-layer="svg6" />
  <path
     d="M 67.14825,78.57812 H 21.4295 C 21.4295,84.89062 26.53888,90 32.85138,90 h 34.28125 c 6.3125,0 11.42187,-5.10938 11.42187,-11.42188 v -46.9375 c 0,-0.23437 -0.1875,-0.42187 -0.42187,-0.42187 H 67.53888 c -0.23438,0 -0.42188,0.1875 -0.42188,0.42187 v 46.9375 z m 0,-68.57812 c 6.3125,0 11.42188,5.10937 11.42188,11.42188 H 32.867 v 46.93749 c 0,0.23438 -0.1875,0.42188 -0.42187,0.42188 H 21.85138 c -0.23438,0 -0.42188,-0.1875 -0.42188,-0.42188 V 21.42188 C 21.4295,15.10937 26.53888,10 32.85138,10 Z"
     style="fill:#0caa41;fill-opacity:1;stroke-width:0.999994"
     id="path4" />
</svg>
