<?xml version="1.0" encoding="UTF-8" standalone="no"?>
<svg
   width="100"
   height="100"
   viewBox="0 0 100 100"
   version="1.1"
   id="svg10"
   sodipodi:docname="google.svg"
   inkscape:version="1.1.2 (b8e25be833, 2022-02-05)"
   xmlns:inkscape="http://www.inkscape.org/namespaces/inkscape"
   xmlns:sodipodi="http://sodipodi.sourceforge.net/DTD/sodipodi-0.dtd"
   xmlns="http://www.w3.org/2000/svg"
   xmlns:svg="http://www.w3.org/2000/svg">
  <defs
     id="defs14" />
  <sodipodi:namedview
     id="namedview12"
     pagecolor="#ffffff"
     bordercolor="#666666"
     borderopacity="1.0"
     inkscape:pageshadow="2"
     inkscape:pageopacity="0.0"
     inkscape:pagecheckerboard="0"
     showgrid="false"
     width="100px"
     inkscape:zoom="8.48"
     inkscape:cx="50"
     inkscape:cy="50"
     inkscape:window-width="1920"
     inkscape:window-height="1057"
     inkscape:window-x="-8"
     inkscape:window-y="-8"
     inkscape:window-maximized="1"
     inkscape:current-layer="svg10" />
  <g
     id="g835"
     transform="matrix(3.4108528,0,0,3.3333334,10,10)">
    <path
       fill="#ea4335"
       d="M 5.2662,9.7645294 C 6.1987875,6.938632 8.8544492,4.9090909 12,4.9090909 c 1.690909,0 3.218182,0.6 4.418182,1.5818182 L 19.909091,3 C 17.781818,1.1454545 15.054546,0 12,0 7.2700697,0 3.1977497,2.6982979 1.2399902,6.6500244 Z"
       id="path2" />
    <path
       fill="#34a853"
       d="m 16.040727,18.012589 c -1.08981,0.703713 -2.474638,1.07832 -4.040727,1.07832 -3.1335139,0 -5.7808806,-2.014038 -6.7230182,-4.823032 L 1.2374626,17.334988 C 3.1927905,21.293629 7.2650029,24 12,24 c 2.932836,0 5.735346,-1.04261 7.834192,-3.00042 z"
       id="path4" />
    <path
       fill="#4a90e2"
       d="M 19.834192,20.99958 C 22.029168,18.952099 23.454545,15.903663 23.454545,12 c 0,-0.709091 -0.109091,-1.472727 -0.272727,-2.1818182 H 12 v 4.6363642 h 6.436364 c -0.317591,1.55908 -1.170065,2.766666 -2.395637,3.558043 z"
       id="path6" />
    <path
       fill="#fbbc05"
       d="M 5.2769818,14.267877 C 5.0383263,13.556323 4.9090909,12.793759 4.9090909,12 c 0,-0.781722 0.1253456,-1.533188 0.3571091,-2.2354706 L 1.2399902,6.6500244 C 0.43658717,8.2604316 0,10.075385 0,12 c 0,1.919548 0.44478074,3.730171 1.2374626,5.334988 z"
       id="path8" />
  </g>
</svg>
