<?xml version="1.0" encoding="UTF-8" standalone="no"?>
<svg
   width="100"
   height="100"
   version="1.1"
   id="svg21"
   sodipodi:docname="gov-br--.svg"
   inkscape:version="1.1.2 (b8e25be833, 2022-02-05)"
   inkscape:export-filename="C:\Users\suitedoalex\sites\gov.br-logo-0.png"
   inkscape:export-xdpi="561.73712"
   inkscape:export-ydpi="561.73712"
   xmlns:inkscape="http://www.inkscape.org/namespaces/inkscape"
   xmlns:sodipodi="http://sodipodi.sourceforge.net/DTD/sodipodi-0.dtd"
   xmlns="http://www.w3.org/2000/svg"
   xmlns:svg="http://www.w3.org/2000/svg"
   xmlns:rdf="http://www.w3.org/1999/02/22-rdf-syntax-ns#"
   xmlns:cc="http://creativecommons.org/ns#"
   xmlns:dc="http://purl.org/dc/elements/1.1/">
  <metadata
     id="metadata27">
    <rdf:RDF>
      <cc:Work
         rdf:about="">
        <dc:format>image/svg+xml</dc:format>
        <dc:type
           rdf:resource="http://purl.org/dc/dcmitype/StillImage" />
      </cc:Work>
    </rdf:RDF>
  </metadata>
  <defs
     id="defs25" />
  <sodipodi:namedview
     pagecolor="#ffffff"
     bordercolor="#666666"
     borderopacity="1"
     objecttolerance="10"
     gridtolerance="10"
     guidetolerance="10"
     inkscape:pageopacity="0"
     inkscape:pageshadow="2"
     inkscape:window-width="1920"
     inkscape:window-height="1057"
     id="namedview23"
     showgrid="false"
     inkscape:zoom="4.24"
     inkscape:cx="27.830189"
     inkscape:cy="48.820755"
     inkscape:window-x="-8"
     inkscape:window-y="-8"
     inkscape:window-maximized="1"
     inkscape:current-layer="svg21"
     inkscape:pagecheckerboard="0"
     width="100px" />
  <style
     type="text/css"
     id="style2">.st0{fill:#2864AE;}
	.st1{fill:#48AD45;}
	.st2{fill:#FABD14;}</style>
  <g
     id="g7"
     transform="matrix(1.0347003,0,0,1.0347003,93.911676,257.91167)"
     inkscape:export-filename="C:\Users\suitedoalex\sites\gov.br-logo-4.png"
     inkscape:export-xdpi="74.672417"
     inkscape:export-ydpi="74.672417">
    <title
       id="title4">background</title>
    <rect
       id="canvas_background"
       height="180"
       width="497"
       y="-1"
       x="-1"
       style="fill:none" />
  </g>
  <g
     id="g924"
     transform="matrix(1.589172,0,0,1.589172,-5.89172,-52.402091)">
    <g
       id="g914">
      <path
         d="m 18.571486,53.688941 c 1.906035,0 3.425032,-1.608064 3.425032,-3.988582 0.147366,-1.868788 -1.246938,-3.502763 -3.115726,-3.651748 -0.102022,-0.0081 -0.205664,-0.01134 -0.309306,-0.0097 -1.991862,0 -3.034756,1.75705 -3.034756,3.870367 -0.0016,2.411287 1.426692,3.77968 3.034756,3.77968 z m 8.602256,2.291452 c 0,6.369102 -3.093056,8.422501 -9.34556,8.422501 -2.014535,0.0049 -4.017733,-0.325499 -5.923767,-0.981356 l 0.267201,-4.228255 c 1.608065,0.869618 3.412077,1.310095 5.24038,1.280946 3.096293,0 4.762656,-1.45746 4.762656,-4.493836 v -0.835611 h -0.05992 c -1.165968,1.719803 -3.133539,2.720593 -5.209611,2.649339 C 12.64772,57.794121 10,54.581231 10,49.99347 c 0,-4.615291 2.171616,-8.066233 6.99419,-8.066233 2.199146,0.01781 4.2153,1.225886 5.26791,3.156211 h 0.06154 v -2.795085 h 4.850103 v 13.69041 z"
         class="st0"
         id="Caminho_4108"
         inkscape:connector-curvature="0"
         style="fill:#2864ae;fill-opacity:1;stroke-width:0.16194" />
      <path
         d="m 48.774922,57.776308 h 5.961015 L 60.340682,42.364475 H 55.134309 L 51.97324,53.344009 h -0.0583 L 48.778163,42.364475 h -5.61932 z"
         class="st1"
         id="Caminho_4109"
         inkscape:connector-curvature="0"
         style="fill:#46ad44;fill-opacity:1;stroke-width:0.16194" />
      <path
         d="m 39.677131,50.07444 c 0,-2.306026 -1.005648,-4.346471 -3.460659,-4.346471 -2.455011,0 -3.459039,2.040445 -3.459039,4.346471 0,2.276877 1.005648,4.317321 3.459039,4.317321 2.453392,0 3.460659,-2.040444 3.460659,-4.317321 z m -12.41918,0 c 0,-5.115686 3.871985,-8.069472 8.958521,-8.069472 5.086537,0 8.958523,2.957025 8.958523,8.069472 0,5.086536 -3.871986,8.041942 -8.958523,8.041942 -5.086536,0 -8.958521,-2.955406 -8.958521,-8.041942 z"
         class="st2"
         id="Caminho_4110"
         inkscape:connector-curvature="0"
         style="fill:#fabd10;fill-opacity:1;stroke-width:0.16194" />
    </g>
    <g
       id="g909"
       transform="translate(-37.774133,28.805948)">
      <path
         d="m 60.943097,55.598214 c 0,1.395923 -1.131961,2.526265 -2.527884,2.526265 -1.395923,0 -2.526265,-1.131961 -2.526265,-2.527884 0,-1.394304 1.130342,-2.524645 2.526265,-2.526265 1.394304,-0.0016 2.526265,1.128722 2.527884,2.523026 0,0.0016 0,0.0032 0,0.0049 z"
         class="st0"
         id="Caminho_4111"
         inkscape:connector-curvature="0"
         style="fill:#2864ae;fill-opacity:1;stroke-width:0.16194" />
      <path
         d="m 70.002023,46.097193 c -1.951378,0 -3.253374,1.713325 -3.253374,4.020971 0,2.247727 1.48013,3.935142 3.253374,3.935142 2.011297,0 3.224228,-1.687415 3.224228,-4.142425 0,-2.038825 -1.153013,-3.813688 -3.224228,-3.813688 z M 61.42568,35.597 h 5.355357 v 8.756098 h 0.05992 c 1.280946,-1.59349 3.254995,-2.464727 5.295438,-2.335175 4.259024,0 6.592579,4.05012 6.592579,7.77798 0,4.553754 -2.453392,8.341531 -7.039534,8.341531 -2.218579,0.08583 -4.286553,-1.127103 -5.29382,-3.10601 H 66.3357 v 2.752981 H 61.42244 V 35.59862 h 0.0032 z"
         class="st0"
         id="Caminho_4112"
         inkscape:connector-curvature="0"
         style="fill:#2864ae;fill-opacity:1;stroke-width:0.16194" />
      <path
         d="m 89.729558,46.629975 c -0.589461,-0.147365 -1.196736,-0.207283 -1.804012,-0.176514 -2.484158,0 -3.871986,1.804012 -3.871986,4.820955 v 6.508369 h -5.326208 v -15.41831 h 4.854964 v 2.840428 h 0.05992 c 0.67205,-1.935183 2.506832,-3.220987 4.553754,-3.193458 0.605656,0.0097 1.208071,0.06963 1.80401,0.176515 z"
         class="st2"
         id="Caminho_4113"
         inkscape:connector-curvature="0"
         style="fill:#fabd10;fill-opacity:1;stroke-width:0.16194" />
    </g>
  </g>
</svg>
