<?xml version="1.0" encoding="UTF-8" standalone="no"?>
<!-- Created with Inkscape (http://www.inkscape.org/) -->

<svg
   version="1.1"
   id="svg2"
   xml:space="preserve"
   width="100"
   height="100"
   viewBox="0 0 100 100"
   sodipodi:docname="hapvida-logo.svg"
   inkscape:export-filename="G:\Users\suitedoalex\sites\hapvida-logo-0.png"
   inkscape:export-xdpi="561.73999"
   inkscape:export-ydpi="561.73999"
   inkscape:version="1.1.2 (b8e25be833, 2022-02-05)"
   xmlns:inkscape="http://www.inkscape.org/namespaces/inkscape"
   xmlns:sodipodi="http://sodipodi.sourceforge.net/DTD/sodipodi-0.dtd"
   xmlns="http://www.w3.org/2000/svg"
   xmlns:svg="http://www.w3.org/2000/svg"
   xmlns:rdf="http://www.w3.org/1999/02/22-rdf-syntax-ns#"
   xmlns:cc="http://creativecommons.org/ns#"
   xmlns:dc="http://purl.org/dc/elements/1.1/"><metadata
     id="metadata8"><rdf:RDF><cc:Work
         rdf:about=""><dc:format>image/svg+xml</dc:format><dc:type
           rdf:resource="http://purl.org/dc/dcmitype/StillImage" /></cc:Work></rdf:RDF></metadata><defs
     id="defs6"><clipPath
       clipPathUnits="userSpaceOnUse"
       id="clipPath18"><path
         d="M 1.98,790.02 H 612 V 0.03 H 1.98 Z"
         id="path16"
         inkscape:connector-curvature="0" /></clipPath><clipPath
       clipPathUnits="userSpaceOnUse"
       id="clipPath118"><path
         d="M 201.06,596.52 H 411 V 542.64 H 201.06 Z"
         id="path116"
         inkscape:connector-curvature="0" /></clipPath></defs><sodipodi:namedview
     pagecolor="#ffffff"
     bordercolor="#666666"
     borderopacity="1"
     objecttolerance="10"
     gridtolerance="10"
     guidetolerance="10"
     inkscape:pageopacity="0"
     inkscape:pageshadow="2"
     inkscape:window-width="1920"
     inkscape:window-height="1057"
     id="namedview4"
     showgrid="false"
     inkscape:zoom="8.48"
     inkscape:cx="50"
     inkscape:cy="50"
     inkscape:window-x="-8"
     inkscape:window-y="-8"
     inkscape:window-maximized="1"
     inkscape:current-layer="g10"
     inkscape:pagecheckerboard="0" /><g
     id="g10"
     inkscape:groupmode="layer"
     inkscape:label="hapvida-logo"
     transform="matrix(1.3333333,0,0,-1.3333333,0,700)"><g
       id="g947"
       transform="matrix(0.67811985,0,0,0.67812403,-39.83226,309.49245)"
       style="stroke-width:1.47467"><g
         id="g64"
         transform="matrix(1.9187515,0,0,1.9187515,104.78753,226.46489)"
         inkscape:export-filename="G:\Users\suitedoalex\sites\hapvida-logo-4.png"
         inkscape:export-xdpi="75.14151"
         inkscape:export-ydpi="75.14151"
         style="stroke-width:1.47467"><path
           d="M 0,0 C 0,2.343 2.148,9.5 4.811,9.5 7.464,9.5 9.62,2.343 9.62,0 9.62,-2.36 7.464,-4.276 4.811,-4.276 2.148,-4.276 0,-2.36 0,0"
           style="fill:#fab20b;fill-opacity:1;fill-rule:nonzero;stroke:none;stroke-width:1.47467"
           id="path66"
           inkscape:connector-curvature="0" /></g><g
         id="g68"
         transform="matrix(1.9187515,0,0,1.9187515,114.02056,306.7397)"
         inkscape:export-filename="G:\Users\suitedoalex\sites\hapvida-logo-4.png"
         inkscape:export-xdpi="75.14151"
         inkscape:export-ydpi="75.14151"
         style="stroke-width:1.47467"><path
           d="m 0,0 c -3.896,0 -7.055,-3.09 -7.055,-6.91 0,-3.804 3.159,-16.213 7.055,-16.213 3.894,0 7.055,12.409 7.055,16.213 C 7.055,-3.09 3.894,0 0,0"
           style="fill:#ef2f2c;fill-opacity:1;fill-rule:nonzero;stroke:none;stroke-width:1.47467"
           id="path70"
           inkscape:connector-curvature="0" /></g><g
         id="g72"
         transform="matrix(1.9187515,0,0,1.9187515,77.11529,260.73571)"
         inkscape:export-filename="G:\Users\suitedoalex\sites\hapvida-logo-4.png"
         inkscape:export-xdpi="75.14151"
         inkscape:export-ydpi="75.14151"
         style="stroke-width:1.47467"><path
           d="M 0,0 C 3.036,-1.671 13.604,-4.248 15.269,-1.219 16.941,1.81 9.082,9.31 6.036,10.974 2.997,12.643 -0.812,11.532 -2.485,8.503 -4.152,5.465 -3.038,1.659 0,0"
           style="fill:#f1471d;fill-opacity:1;fill-rule:nonzero;stroke:none;stroke-width:1.47467"
           id="path74"
           inkscape:connector-curvature="0" /></g><g
         id="g76"
         transform="matrix(1.9187515,0,0,1.9187515,155.72846,276.58268)"
         inkscape:export-filename="G:\Users\suitedoalex\sites\hapvida-logo-4.png"
         inkscape:export-xdpi="75.14151"
         inkscape:export-ydpi="75.14151"
         style="stroke-width:1.47467"><path
           d="m 0,0 c -1.672,3.029 -5.48,4.141 -8.52,2.468 -3.043,-1.664 -10.902,-9.159 -9.231,-12.19 1.668,-3.032 12.235,-0.454 15.27,1.22 C 0.553,-6.844 1.67,-3.04 0,0"
           style="fill:#f1471d;fill-opacity:1;fill-rule:nonzero;stroke:none;stroke-width:1.47467"
           id="path78"
           inkscape:connector-curvature="0" /></g><g
         id="g80"
         transform="matrix(1.9187515,0,0,1.9187515,84.853613,238.78711)"
         inkscape:export-filename="G:\Users\suitedoalex\sites\hapvida-logo-4.png"
         inkscape:export-xdpi="75.14151"
         inkscape:export-ydpi="75.14151"
         style="stroke-width:1.47467"><path
           d="m 0,0 c 0.915,-1.918 3.206,-2.741 5.129,-1.817 1.927,0.901 7.014,5.234 6.093,7.132 C 10.309,7.234 3.741,6.023 1.825,5.128 -0.095,4.207 -0.914,1.919 0,0"
           style="fill:#f47216;fill-opacity:1;fill-rule:nonzero;stroke:none;stroke-width:1.47467"
           id="path82"
           inkscape:connector-curvature="0" /></g><g
         id="g84"
         transform="matrix(1.9187515,0,0,1.9187515,139.70689,248.62647)"
         inkscape:export-filename="G:\Users\suitedoalex\sites\hapvida-logo-4.png"
         inkscape:export-xdpi="75.14151"
         inkscape:export-ydpi="75.14151"
         style="stroke-width:1.47467"><path
           d="m 0,0 c -1.928,0.894 -8.497,2.115 -9.42,0.187 -0.905,-1.899 4.18,-6.231 6.101,-7.133 1.931,-0.924 4.228,-0.1 5.146,1.818 C 2.738,-3.21 1.913,-0.922 0,0"
           style="fill:#f47216;fill-opacity:1;fill-rule:nonzero;stroke:none;stroke-width:1.47467"
           id="path86"
           inkscape:connector-curvature="0" /></g></g><g
       id="g24"
       transform="matrix(1.9187515,0,0,1.9187515,-270.76778,340.78219)"
       inkscape:export-filename="G:\Users\suitedoalex\sites\hapvida-logo-4.png"
       inkscape:export-xdpi="75.14151"
       inkscape:export-ydpi="75.14151" /></g></svg>
