<?xml version="1.0" encoding="UTF-8" standalone="no"?>
<svg
   width="100"
   height="100"
   viewBox="0 0 100 100"
   version="1.1"
   id="svg4"
   sodipodi:docname="heroku.svg"
   inkscape:version="1.1.2 (b8e25be833, 2022-02-05)"
   xmlns:inkscape="http://www.inkscape.org/namespaces/inkscape"
   xmlns:sodipodi="http://sodipodi.sourceforge.net/DTD/sodipodi-0.dtd"
   xmlns="http://www.w3.org/2000/svg"
   xmlns:svg="http://www.w3.org/2000/svg">
  <defs
     id="defs8" />
  <sodipodi:namedview
     id="namedview6"
     pagecolor="#ffffff"
     bordercolor="#666666"
     borderopacity="1.0"
     inkscape:pageshadow="2"
     inkscape:pageopacity="0.0"
     inkscape:pagecheckerboard="0"
     showgrid="false"
     width="100px"
     inkscape:zoom="8.48"
     inkscape:cx="50"
     inkscape:cy="50"
     inkscape:window-width="1920"
     inkscape:window-height="1057"
     inkscape:window-x="-8"
     inkscape:window-y="-8"
     inkscape:window-maximized="1"
     inkscape:current-layer="svg4" />
  <path
     fill="#6762a6"
     fill-rule="evenodd"
     d="M 78.803761,10 H 21.205091 C 17.230174,10 14,13.221558 14,17.205622 V 82.801017 C 14,86.77844 17.230174,90 21.205091,90 h 57.59867 C 82.779785,90 86,86.77844 86,82.801017 V 17.205622 C 86,13.221558 82.779785,10 78.803761,10 Z m 3.195868,72.801017 c 0,1.76627 -1.430834,3.196106 -3.195868,3.196106 h -57.59867 c -1.763926,0 -3.204722,-1.429836 -3.204722,-3.196106 V 17.205622 c 0,-1.772908 1.440796,-3.204958 3.204722,-3.204958 h 57.59867 c 1.765034,0 3.195868,1.43205 3.195868,3.204958 z m -49.99974,-4.79648 9.005534,-8.00354 -9.005534,-8.00133 z M 64.522059,45.57426 c -1.618961,-1.627933 -4.574697,-3.572379 -9.517892,-3.572379 -5.42346,0 -11.009589,1.413236 -15.002213,2.706949 V 22.004095 h -8.001843 v 34.691234 l 5.654739,-2.561972 c 0.09406,-0.04207 9.210255,-4.12904 17.349317,-4.12904 4.060128,0 4.959794,2.235503 5.002951,4.103586 v 23.896634 h 7.99299 V 54.00498 c 0.009,-0.5135 -0.04207,-4.952413 -3.478049,-8.43072 M 54.001365,35.001328 h 8.001842 c 3.615274,-4.095839 5.457765,-8.456175 5.997788,-12.998009 h -7.994097 c -0.890817,4.53298 -2.861675,8.867863 -6.005533,12.998009"
     id="path2"
     style="stroke-width:3.33321" />
</svg>
