<?xml version="1.0" encoding="UTF-8" standalone="no"?>
<svg
   width="100"
   height="100"
   viewBox="0 0 100 100"
   role="img"
   version="1.1"
   id="svg4"
   sodipodi:docname="indeed-svgrepo-com.svg"
   inkscape:version="1.1.2 (b8e25be833, 2022-02-05)"
   xmlns:inkscape="http://www.inkscape.org/namespaces/inkscape"
   xmlns:sodipodi="http://sodipodi.sourceforge.net/DTD/sodipodi-0.dtd"
   xmlns="http://www.w3.org/2000/svg"
   xmlns:svg="http://www.w3.org/2000/svg">
  <defs
     id="defs8" />
  <sodipodi:namedview
     id="namedview6"
     pagecolor="#ffffff"
     bordercolor="#666666"
     borderopacity="1.0"
     inkscape:pageshadow="2"
     inkscape:pageopacity="0.0"
     inkscape:pagecheckerboard="0"
     showgrid="false"
     inkscape:zoom="8.48"
     inkscape:cx="50"
     inkscape:cy="50"
     inkscape:window-width="1920"
     inkscape:window-height="1057"
     inkscape:window-x="-8"
     inkscape:window-y="-8"
     inkscape:window-maximized="1"
     inkscape:current-layer="svg4" />
  <path
     d="M 48.55407,81.876662 V 52.669976 c 0.849996,0.07667 1.66666,0.116667 2.526656,0.116667 4.076649,0 7.9133,-1.066667 11.166619,-2.976668 v 32.06002 c 0,2.740002 -0.649997,4.763337 -1.916659,6.113337 C 59.070691,89.326667 57.397366,90 55.360708,90 53.360716,90 51.770723,89.326667 50.467395,87.939999 49.207401,86.596665 48.55407,84.57333 48.55407,81.876662 Z m 0.07667,-69.990046 c 8.483296,-2.976668 18.139922,-2.8166679 25.396558,3.290003 1.349994,1.23 2.889987,2.776668 3.503318,4.600003 0.733328,2.306668 -2.566658,-0.243334 -3.01999,-0.556667 -2.366656,-1.510001 -4.726647,-2.776669 -7.373302,-3.646669 -14.269939,-4.283337 -27.763215,3.456668 -36.153179,15.476677 -3.506652,5.313336 -5.789975,10.906673 -7.666634,17.056677 -0.199999,0.673334 -0.363332,1.550001 -0.73333,2.140002 -0.373332,0.676667 -0.16,-1.820002 -0.16,-1.900002 0.279999,-2.543335 0.81333,-5.000003 1.469994,-7.456671 C 27.767492,27.78996 36.324122,16.88662 48.63407,11.886616 Z m 16.426593,23.530016 a 10.066624,10.066673 0 1 1 -20.133247,0 10.066624,10.066673 0 1 1 20.133247,0 z"
     id="path2"
     style="fill:#000080;stroke-width:3.33333" />
</svg>
