<?xml version="1.0" encoding="UTF-8" standalone="no"?>
<!-- Generator: Adobe Illustrator 19.0.0, SVG Export Plug-In . SVG Version: 6.00 Build 0)  -->

<svg
   version="1.1"
   id="Layer_1"
   x="0px"
   y="0px"
   viewBox="0 0 100 100"
   xml:space="preserve"
   sodipodi:docname="instagram.svg"
   width="100"
   height="100"
   inkscape:version="1.1.2 (b8e25be833, 2022-02-05)"
   xmlns:inkscape="http://www.inkscape.org/namespaces/inkscape"
   xmlns:sodipodi="http://sodipodi.sourceforge.net/DTD/sodipodi-0.dtd"
   xmlns="http://www.w3.org/2000/svg"
   xmlns:svg="http://www.w3.org/2000/svg"><defs
   id="defs66" /><sodipodi:namedview
   id="namedview64"
   pagecolor="#ffffff"
   bordercolor="#666666"
   borderopacity="1.0"
   inkscape:pageshadow="2"
   inkscape:pageopacity="0.0"
   inkscape:pagecheckerboard="0"
   showgrid="false"
   inkscape:zoom="1.1176987"
   inkscape:cx="283.61846"
   inkscape:cy="314.03811"
   inkscape:window-width="1920"
   inkscape:window-height="1057"
   inkscape:window-x="-8"
   inkscape:window-y="-8"
   inkscape:window-maximized="1"
   inkscape:current-layer="Layer_1" />
<g
   id="XMLID_13_"
   transform="matrix(0.1451816,0,0,0.1451816,10,10)">
	
		<linearGradient
   id="XMLID_2_"
   gradientUnits="userSpaceOnUse"
   x1="275.517"
   y1="4.5714002"
   x2="275.517"
   y2="549.72021"
   gradientTransform="matrix(1,0,0,-1,0,554)">
		<stop
   offset="0"
   style="stop-color:#E09B3D"
   id="stop2" />
		<stop
   offset="0.3"
   style="stop-color:#C74C4D"
   id="stop4" />
		<stop
   offset="0.6"
   style="stop-color:#C21975"
   id="stop6" />
		<stop
   offset="1"
   style="stop-color:#7024C4"
   id="stop8" />
	</linearGradient>
	<path
   id="XMLID_17_"
   style="fill:url(#XMLID_2_)"
   d="M 386.878,0 H 164.156 C 73.64,0 0,73.64 0,164.156 v 222.722 c 0,90.516 73.64,164.156 164.156,164.156 h 222.722 c 90.516,0 164.156,-73.64 164.156,-164.156 V 164.156 C 551.033,73.64 477.393,0 386.878,0 Z M 495.6,386.878 C 495.6,446.923 446.923,495.6 386.878,495.6 H 164.156 C 104.111,495.6 55.434,446.923 55.434,386.878 V 164.156 c 0,-60.046 48.677,-108.722 108.722,-108.722 h 222.722 c 60.045,0 108.722,48.676 108.722,108.722 z" />
	
		<linearGradient
   id="XMLID_3_"
   gradientUnits="userSpaceOnUse"
   x1="275.517"
   y1="4.5714002"
   x2="275.517"
   y2="549.72021"
   gradientTransform="matrix(1,0,0,-1,0,554)">
		<stop
   offset="0"
   style="stop-color:#E09B3D"
   id="stop12" />
		<stop
   offset="0.3"
   style="stop-color:#C74C4D"
   id="stop14" />
		<stop
   offset="0.6"
   style="stop-color:#C21975"
   id="stop16" />
		<stop
   offset="1"
   style="stop-color:#7024C4"
   id="stop18" />
	</linearGradient>
	<path
   id="XMLID_81_"
   style="fill:url(#XMLID_3_)"
   d="M 275.517,133 C 196.933,133 133,196.933 133,275.516 c 0,78.583 63.933,142.517 142.517,142.517 78.584,0 142.517,-63.933 142.517,-142.517 C 418.034,196.932 354.101,133 275.517,133 Z m 0,229.6 c -48.095,0 -87.083,-38.988 -87.083,-87.083 0,-48.095 38.989,-87.083 87.083,-87.083 48.095,0 87.083,38.988 87.083,87.083 0,48.094 -38.989,87.083 -87.083,87.083 z" />
	
		<linearGradient
   id="XMLID_4_"
   gradientUnits="userSpaceOnUse"
   x1="418.306"
   y1="4.5714002"
   x2="418.306"
   y2="549.72021"
   gradientTransform="matrix(1,0,0,-1,0,554)">
		<stop
   offset="0"
   style="stop-color:#E09B3D"
   id="stop22" />
		<stop
   offset="0.3"
   style="stop-color:#C74C4D"
   id="stop24" />
		<stop
   offset="0.6"
   style="stop-color:#C21975"
   id="stop26" />
		<stop
   offset="1"
   style="stop-color:#7024C4"
   id="stop28" />
	</linearGradient>
	<circle
   id="XMLID_83_"
   style="fill:url(#XMLID_4_)"
   cx="418.306"
   cy="134.07201"
   r="34.148998" />
</g>
<g
   id="g33">
</g>
<g
   id="g35">
</g>
<g
   id="g37">
</g>
<g
   id="g39">
</g>
<g
   id="g41">
</g>
<g
   id="g43">
</g>
<g
   id="g45">
</g>
<g
   id="g47">
</g>
<g
   id="g49">
</g>
<g
   id="g51">
</g>
<g
   id="g53">
</g>
<g
   id="g55">
</g>
<g
   id="g57">
</g>
<g
   id="g59">
</g>
<g
   id="g61">
</g>
</svg>
