<?xml version="1.0" encoding="UTF-8" standalone="no"?>
<svg
   height="100"
   width="100"
   viewBox="-26.4198 -19.30975 19.080967 14.482313"
   version="1.1"
   id="svg10"
   sodipodi:docname="LG_Corporation-Logo.wine.svg"
   inkscape:version="1.1.2 (b8e25be833, 2022-02-05)"
   xmlns:inkscape="http://www.inkscape.org/namespaces/inkscape"
   xmlns:sodipodi="http://sodipodi.sourceforge.net/DTD/sodipodi-0.dtd"
   xmlns="http://www.w3.org/2000/svg"
   xmlns:svg="http://www.w3.org/2000/svg">
  <defs
     id="defs14" />
  <sodipodi:namedview
     id="namedview12"
     pagecolor="#ffffff"
     bordercolor="#666666"
     borderopacity="1.0"
     inkscape:pageshadow="2"
     inkscape:pageopacity="0.0"
     inkscape:pagecheckerboard="0"
     showgrid="false"
     width="100px"
     inkscape:zoom="8.48"
     inkscape:cx="50"
     inkscape:cy="50"
     inkscape:window-width="1920"
     inkscape:window-height="1057"
     inkscape:window-x="-8"
     inkscape:window-y="-8"
     inkscape:window-maximized="1"
     inkscape:current-layer="svg10" />
  <g
     id="g914"
     transform="matrix(0.19747443,0,0,0.19763039,-24.511703,-19.70098)">
    <path
       d="M 38.65,77.239 C 59.978,77.239 77.3,59.968 77.3,38.628 77.3,17.287 59.978,0 38.65,0 17.289,0 0,17.287 0,38.628 0,59.968 17.289,77.239 38.65,77.239"
       fill="#a50034"
       id="path2" />
    <path
       fill="#ffffff"
       d="M 47.868,55.563 V 52.516 H 40.2 V 21.676 H 37.095 V 55.563 Z M 26.308,30.922 c 2.563,0 4.629,-2.084 4.629,-4.629 0,-2.547 -2.066,-4.639 -4.629,-4.639 -2.563,0 -4.629,2.092 -4.629,4.639 0,2.547 2.066,4.629 4.629,4.629"
       id="path4" />
    <path
       d="M 40.199,6.304 C 39.795,6.284 39.027,6.259 38.66,6.259 20.82,6.259 6.301,20.783 6.301,38.612 c 0,8.66 3.365,16.777 9.46,22.881 6.12,6.09 14.241,9.455 22.899,9.455 8.625,0 16.744,-3.365 22.853,-9.455 6.11,-6.104 9.491,-14.221 9.491,-22.881 V 37.173 H 47.898 v 2.978 h 20.024 c 0,0.065 0,0.381 -0.014,0.463 C 66.89,55.856 54.16,67.928 38.66,67.928 30.814,67.928 23.457,64.877 17.92,59.336 12.365,53.818 9.304,46.467 9.304,38.611 c 0,-7.811 3.061,-15.2 8.616,-20.735 5.537,-5.53 12.894,-8.581 20.74,-8.581 0.338,0 1.16,0 1.539,0.02 z"
       fill="#ffffff"
       id="path6" />
  </g>
</svg>
