<?xml version="1.0" encoding="UTF-8" standalone="no"?>
<!-- Generator: Adobe Illustrator 19.0.0, SVG Export Plug-In . SVG Version: 6.00 Build 0)  -->

<svg
   version="1.1"
   id="Layer_1"
   x="0px"
   y="0px"
   viewBox="0 0 100 100"
   xml:space="preserve"
   sodipodi:docname="linkedin.svg"
   width="100"
   height="100"
   inkscape:version="1.1.2 (b8e25be833, 2022-02-05)"
   xmlns:inkscape="http://www.inkscape.org/namespaces/inkscape"
   xmlns:sodipodi="http://sodipodi.sourceforge.net/DTD/sodipodi-0.dtd"
   xmlns="http://www.w3.org/2000/svg"
   xmlns:svg="http://www.w3.org/2000/svg"><defs
   id="defs37" /><sodipodi:namedview
   id="namedview35"
   pagecolor="#ffffff"
   bordercolor="#666666"
   borderopacity="1.0"
   inkscape:pageshadow="2"
   inkscape:pageopacity="0.0"
   inkscape:pagecheckerboard="0"
   showgrid="false"
   width="100px"
   inkscape:zoom="1.1400524"
   inkscape:cx="3.5086108"
   inkscape:cy="186.83352"
   inkscape:window-width="1920"
   inkscape:window-height="1057"
   inkscape:window-x="-8"
   inkscape:window-y="-8"
   inkscape:window-maximized="1"
   inkscape:current-layer="Layer_1" />
<path
   style="fill:#0077b7;stroke-width:0.209424"
   d="M 82.763351,10 H 17.236649 C 13.24,10 10,13.24 10,17.236649 V 82.763141 C 10,86.76 13.24,90 17.236649,90 H 82.763141 C 86.76,90 90,86.76 90,82.763141 V 17.236649 C 90,13.24 86.76,10 82.763351,10 Z M 34.755393,79.077277 c 0,1.163142 -0.942828,2.105969 -2.105969,2.105969 h -8.964607 c -1.163142,0 -2.105969,-0.942827 -2.105969,-2.105969 V 41.49801 c 0,-1.163141 0.942827,-2.105968 2.105969,-2.105968 h 8.964607 c 1.163141,0 2.105969,0.942827 2.105969,2.105968 z M 28.16712,35.849634 c -4.703455,0 -8.516439,-3.812985 -8.516439,-8.51644 0,-4.703456 3.812984,-8.51644 8.516439,-8.51644 4.703456,0 8.51644,3.812984 8.51644,8.51644 0,4.703455 -3.812775,8.51644 -8.51644,8.51644 z m 53.437068,43.397277 c 0,1.069319 -0.867015,1.936335 -1.936335,1.936335 h -9.619685 c -1.06932,0 -1.936336,-0.867016 -1.936336,-1.936335 V 61.620105 c 0,-2.629529 0.771309,-11.522723 -6.871832,-11.522723 -5.928586,0 -7.131099,6.087121 -7.372565,8.818848 v 20.330681 c 0,1.069319 -0.866807,1.936335 -1.936336,1.936335 h -9.303874 c -1.069319,0 -1.936335,-0.867016 -1.936335,-1.936335 V 41.328377 c 0,-1.069319 0.867016,-1.936335 1.936335,-1.936335 h 9.303874 c 1.06932,0 1.936336,0.867016 1.936336,1.936335 v 3.278534 c 2.198324,-3.299058 5.46534,-5.845445 12.421361,-5.845445 15.40356,0 15.315392,14.390785 15.315392,22.297801 z"
   id="path2" />
<g
   id="g4">
</g>
<g
   id="g6">
</g>
<g
   id="g8">
</g>
<g
   id="g10">
</g>
<g
   id="g12">
</g>
<g
   id="g14">
</g>
<g
   id="g16">
</g>
<g
   id="g18">
</g>
<g
   id="g20">
</g>
<g
   id="g22">
</g>
<g
   id="g24">
</g>
<g
   id="g26">
</g>
<g
   id="g28">
</g>
<g
   id="g30">
</g>
<g
   id="g32">
</g>
</svg>
