<?xml version="1.0" encoding="UTF-8" standalone="no"?>
<svg
   height="100"
   width="100"
   id="svg895"
   version="1.1"
   viewBox="-96 -98.908 69.333333 74.181"
   sodipodi:docname="Mastercard-Logo.wine.svg"
   inkscape:version="1.1.2 (b8e25be833, 2022-02-05)"
   xmlns:inkscape="http://www.inkscape.org/namespaces/inkscape"
   xmlns:sodipodi="http://sodipodi.sourceforge.net/DTD/sodipodi-0.dtd"
   xmlns="http://www.w3.org/2000/svg"
   xmlns:svg="http://www.w3.org/2000/svg">
  <sodipodi:namedview
     id="namedview9"
     pagecolor="#ffffff"
     bordercolor="#666666"
     borderopacity="1.0"
     inkscape:pageshadow="2"
     inkscape:pageopacity="0.0"
     inkscape:pagecheckerboard="0"
     showgrid="false"
     width="100px"
     inkscape:zoom="0.69650018"
     inkscape:cx="564.24967"
     inkscape:cy="455.13269"
     inkscape:window-width="1920"
     inkscape:window-height="1057"
     inkscape:window-x="-8"
     inkscape:window-y="-8"
     inkscape:window-maximized="1"
     inkscape:current-layer="svg895" />
  <defs
     id="defs879">
    <style
       id="style877"
       type="text/css">.e{fill:#f79e1b}</style>
  </defs>
  <g
     id="g829"
     transform="matrix(0.09272635,0,0,0.09272635,-91.005798,-80.272588)">
    <path
       id="rect887"
       display="inline"
       fill="#ff5f00"
       stroke-width="5.494"
       d="M 224.833,42.298 H 415.249 V 353.303 H 224.833 Z" />
    <path
       id="path889"
       d="m 244.446,197.828 a 197.448,197.448 0 0 1 75.54,-155.475 197.777,197.777 0 1 0 0,311.004 197.448,197.448 0 0 1 -75.54,-155.53 z"
       fill="#eb001b"
       stroke-width="5.494" />
    <path
       id="path893"
       d="m 640,197.828 a 197.777,197.777 0 0 1 -320.015,155.474 197.777,197.777 0 0 0 0,-311.004 A 197.777,197.777 0 0 1 640,197.773 Z"
       class="e"
       fill="#f79e1b"
       stroke-width="5.494" />
  </g>
</svg>
