<?xml version="1.0" encoding="UTF-8" standalone="no"?>
<svg
   height="100"
   width="100"
   viewBox="-22.5012 -33.95 16.250867 25.4625"
   version="1.1"
   id="svg16"
   sodipodi:docname="mercado_livre.svg"
   inkscape:version="1.1.2 (b8e25be833, 2022-02-05)"
   xmlns:inkscape="http://www.inkscape.org/namespaces/inkscape"
   xmlns:sodipodi="http://sodipodi.sourceforge.net/DTD/sodipodi-0.dtd"
   xmlns="http://www.w3.org/2000/svg"
   xmlns:svg="http://www.w3.org/2000/svg">
  <defs
     id="defs20" />
  <sodipodi:namedview
     id="namedview18"
     pagecolor="#ffffff"
     bordercolor="#666666"
     borderopacity="1.0"
     inkscape:pageshadow="2"
     inkscape:pageopacity="0.0"
     inkscape:pagecheckerboard="0"
     showgrid="false"
     inkscape:zoom="8.48"
     inkscape:cx="50"
     inkscape:cy="50"
     inkscape:window-width="1920"
     inkscape:window-height="1057"
     inkscape:window-x="-8"
     inkscape:window-y="-8"
     inkscape:window-maximized="1"
     inkscape:current-layer="svg16" />
  <g
     id="g1002"
     transform="matrix(0.21397059,0,0,0.21397059,-30.466355,-28.258367)">
    <path
       d="M 122.8,31.1 C 122.8,14 101.5,0 75.2,0 48.9,0 27.6,14 27.6,31.1 v 1.8 c 0,18.2 18.6,32.9 47.6,32.9 29.1,0 47.6,-14.7 47.6,-32.9 z"
       id="path875"
       style="fill:#2d3277;fill-opacity:1" />
    <path
       d="m 121.1,31.1 c 0,16.1 -20.5,29.2 -45.7,29.2 C 50.2,60.3 29.7,47.2 29.7,31.1 29.7,15 50.2,1.9 75.4,1.9 c 25.2,0 45.7,13.1 45.7,29.2 z"
       fill="#ffe600"
       id="path4" />
    <path
       d="m 60.2,21.9 c 0,0 -0.5,0.5 -0.2,0.9 0.7,0.9 2.9,1.4 5.2,0.9 1.3,-0.3 3.1,-1.7 4.7,-3 1.8,-1.4 3.6,-2.9 5.4,-3.4 1.9,-0.6 3.1,-0.3 3.9,-0.1 0.9,0.3 1.9,0.9 3.6,2.1 3.1,2.3 15.7,13.3 17.9,15.2 1.7,-0.8 9.5,-4.1 20.1,-6.5 -0.9,-5.6 -4.3,-10.8 -9.5,-15 -7.2,3 -16.1,4.6 -24.8,0.4 0,0 -4.7,-2.2 -9.4,-2.1 -6.9,0.2 -9.8,3.1 -13,6.3 z"
       id="path6"
       style="fill:#ffffff" />
    <path
       d="M 100.2,35.7 C 100.1,35.6 85.4,22.8 82.1,20.3 c -1.9,-1.4 -3,-1.8 -4.1,-2 -0.6,-0.1 -1.4,0 -2,0.2 -1.5,0.4 -3.6,1.8 -5.4,3.2 -1.9,1.5 -3.6,2.9 -5.2,3.2 -2.1,0.5 -4.6,-0.1 -5.7,-0.9 -0.5,-0.3 -0.8,-0.7 -1,-1.1 -0.4,-1 0.4,-1.8 0.5,-1.9 l 4,-4.4 1.4,-1.4 c -1.3,0.2 -2.5,0.5 -3.7,0.8 -1.5,0.4 -2.9,0.8 -4.3,0.8 -0.6,0 -3.8,-0.5 -4.4,-0.7 -3.7,-1 -6.9,-2 -11.7,-4.2 -5.7,4.3 -9.6,9.6 -10.7,15.5 0.8,0.2 2.2,0.6 2.7,0.7 13,2.9 17,5.9 17.8,6.5 0.8,-0.9 1.9,-1.4 3.2,-1.4 1.4,0 2.7,0.7 3.5,1.8 0.7,-0.6 1.8,-1.1 3.1,-1.1 0.6,0 1.2,0.1 1.9,0.3 1.5,0.5 2.2,1.5 2.6,2.4 0.5,-0.2 1.1,-0.4 1.8,-0.4 0.7,0 1.4,0.2 2.2,0.5 2.4,1 2.8,3.4 2.6,5.2 h 0.5 c 2.9,0 5.2,2.3 5.2,5.2 0,0.9 -0.2,1.7 -0.6,2.4 0.8,0.4 2.7,1.4 4.5,1.2 1.4,-0.2 1.9,-0.6 2.1,-0.9 0.1,-0.2 0.3,-0.4 0.1,-0.6 l -3.7,-4.1 c 0,0 -0.6,-0.6 -0.4,-0.8 0.2,-0.2 0.6,0.1 0.9,0.3 1.9,1.6 4.1,3.9 4.1,3.9 0,0 0.2,0.3 1,0.5 0.7,0.1 2,0 2.9,-0.7 0.2,-0.2 0.5,-0.4 0.6,-0.6 0.9,-1.2 -0.1,-2.4 -0.1,-2.4 L 84,40.5 c 0,0 -0.6,-0.6 -0.4,-0.8 0.2,-0.2 0.6,0.1 0.9,0.3 1.4,1.1 3.3,3.1 5.1,4.9 0.4,0.3 2,1.3 4.1,-0.1 1.3,-0.9 1.6,-1.9 1.5,-2.7 -0.1,-1 -0.9,-1.8 -0.9,-1.8 l -5.8,-5.9 c 0,0 -0.6,-0.5 -0.4,-0.8 0.2,-0.2 0.6,0.1 0.9,0.3 1.9,1.6 6.9,6.2 6.9,6.2 0.1,0 1.8,1.3 4,-0.1 0.8,-0.5 1.3,-1.2 1.3,-2.1 0.1,-1.3 -1,-2.2 -1,-2.2 z"
       id="path8"
       style="fill:#ffffff" />
    <path
       d="m 71.9,43.2 c -0.9,0 -1.9,0.5 -2,0.5 -0.1,0 0,-0.4 0.1,-0.6 0.1,-0.2 1.3,-3.8 -1.6,-5.1 -2.2,-1 -3.6,0.1 -4,0.6 -0.1,0.1 -0.2,0.1 -0.2,0 0,-0.6 -0.3,-2.4 -2.3,-3 -2.8,-0.9 -4.5,1.1 -5,1.8 -0.2,-1.6 -1.5,-2.8 -3.2,-2.8 -1.8,0 -3.2,1.4 -3.2,3.2 0,1.8 1.4,3.2 3.2,3.2 0.9,0 1.6,-0.3 2.2,-0.9 v 0.1 c -0.1,0.8 -0.4,3.7 2.6,4.8 1.2,0.5 2.2,0.1 3.1,-0.5 0.3,-0.2 0.3,-0.1 0.3,0.1 -0.1,0.7 0,2.3 2.3,3.2 1.7,0.7 2.7,0 3.3,-0.6 0.3,-0.3 0.4,-0.2 0.4,0.2 0.1,2.1 1.9,3.8 4,3.8 2.2,0 4,-1.8 4,-4 0,-2.2 -1.8,-4 -4,-4 z"
       id="path10"
       style="fill:#ffffff" />
    <path
       d="M 100.8,34.2 C 96.3,30.3 85.9,21.2 83,19.1 81.4,17.9 80.3,17.2 79.3,17 c -0.4,-0.1 -1,-0.3 -1.8,-0.3 -0.7,0 -1.5,0.1 -2.3,0.4 -1.8,0.6 -3.6,2 -5.4,3.4 l -0.1,0.1 c -1.6,1.3 -3.3,2.6 -4.6,2.9 -0.6,0.1 -1.1,0.2 -1.7,0.2 -1.4,0 -2.7,-0.4 -3.2,-1 -0.1,-0.1 0,-0.3 0.2,-0.5 l 4,-4.3 c 3.1,-3.1 6,-6 12.8,-6.2 h 0.3 c 4.2,0 8.4,1.9 8.9,2.1 4,1.9 8,2.9 12.1,2.9 4.3,0 8.7,-1.1 13.3,-3.2 -0.5,-0.4 -1.1,-0.9 -1.6,-1.3 -4.1,1.8 -7.9,2.6 -11.7,2.6 -3.8,0 -7.6,-0.9 -11.3,-2.7 C 87,12 82.4,9.8 77.5,9.8 h -0.4 c -5.7,0.1 -8.9,2.1 -11,3.9 -2.1,0 -3.9,0.6 -5.5,1 -1.4,0.4 -2.7,0.7 -3.9,0.7 h -1.5 c -1.4,0 -8.4,-1.7 -13.9,-3.9 -0.6,0.4 -1.1,0.8 -1.7,1.2 5.8,2.4 12.9,4.2 15.1,4.4 0.6,0 1.3,0.1 2,0.1 1.5,0 2.9,-0.4 4.4,-0.8 0.9,-0.2 1.8,-0.5 2.7,-0.7 l -0.8,0.8 -4,4.4 c -0.3,0.3 -1,1.2 -0.6,2.2 0.2,0.4 0.6,0.8 1.1,1.2 1,0.6 2.7,1.1 4.3,1.1 0.6,0 1.2,-0.1 1.7,-0.2 1.7,-0.4 3.5,-1.8 5.3,-3.3 1.5,-1.2 3.6,-2.7 5.2,-3.2 0.5,-0.1 1,-0.2 1.5,-0.2 h 0.4 c 1.1,0.1 2.1,0.5 4,1.9 3.3,2.5 18,15.3 18.1,15.4 0,0 0.9,0.8 0.9,2.2 0,0.7 -0.5,1.4 -1.2,1.9 -0.6,0.4 -1.3,0.6 -1.9,0.6 -1,0 -1.7,-0.5 -1.7,-0.5 0,0 -5.1,-4.6 -6.9,-6.2 -0.3,-0.3 -0.6,-0.5 -0.9,-0.5 -0.2,0 -0.3,0.1 -0.4,0.2 -0.3,0.4 0,0.9 0.4,1.2 l 5.9,5.9 c 0,0 0.7,0.7 0.8,1.6 0,1 -0.4,1.8 -1.4,2.4 -0.7,0.5 -1.4,0.7 -2.1,0.7 -0.9,0 -1.5,-0.4 -1.7,-0.5 L 88.9,44 c -1.5,-1.5 -3.1,-3.1 -4.3,-4 -0.3,-0.2 -0.6,-0.5 -0.9,-0.5 -0.1,0 -0.3,0 -0.4,0.2 -0.1,0.1 -0.2,0.4 0.1,0.9 0.1,0.2 0.3,0.3 0.3,0.3 l 4.3,4.8 c 0,0 0.9,1.1 0.1,2 l -0.2,0.2 -0.4,0.4 C 86.8,48.9 85.8,49 85.4,49 h -0.6 c -0.4,-0.1 -0.7,-0.2 -0.9,-0.4 -0.2,-0.3 -2.4,-2.4 -4.2,-3.9 -0.2,-0.2 -0.5,-0.4 -0.8,-0.4 -0.1,0 -0.3,0.1 -0.4,0.2 -0.3,0.4 0.2,1 0.4,1.2 l 3.7,4 c 0,0 0,0.1 -0.1,0.3 -0.1,0.2 -0.6,0.6 -1.9,0.8 h -0.5 c -1.4,0 -2.8,-0.7 -3.6,-1.1 C 76.8,49 77,48.2 77,47.4 77,44.4 74.6,42 71.6,42 h -0.2 c 0.1,-1.4 -0.1,-4 -2.8,-5.1 -0.8,-0.3 -1.5,-0.5 -2.3,-0.5 -0.6,0 -1.1,0.1 -1.7,0.3 -0.6,-1.1 -1.5,-1.9 -2.7,-2.3 -0.7,-0.2 -1.3,-0.3 -2,-0.3 -1.1,0 -2.1,0.3 -3,1 a 4.6,4.6 0 0 0 -3.6,-1.7 c -1.2,0 -2.4,0.5 -3.2,1.3 C 49,33.8 44.5,31 32.4,28.2 c -0.6,-0.1 -1.9,-0.5 -2.7,-0.8 -0.1,0.6 -0.2,1.3 -0.3,2 0,0 2.2,0.5 2.7,0.6 12.3,2.7 16.4,5.6 17.1,6.1 -0.2,0.6 -0.3,1.2 -0.3,1.8 0,2.6 2.1,4.6 4.6,4.6 0.3,0 0.6,0 0.9,-0.1 0.4,1.9 1.6,3.3 3.5,4 0.6,0.2 1.1,0.3 1.6,0.3 0.3,0 0.7,0 1.1,-0.1 0.3,0.9 1.1,2 2.9,2.7 0.6,0.3 1.2,0.4 1.8,0.4 0.5,0 1,-0.1 1.4,-0.3 0.8,2 2.8,3.4 5,3.4 1.5,0 2.9,-0.6 3.9,-1.7 0.9,0.5 2.7,1.4 4.6,1.4 h 0.7 c 1.9,-0.2 2.7,-1 3.1,-1.5 0.1,-0.1 0.1,-0.2 0.2,-0.3 0.4,0.1 0.9,0.2 1.5,0.2 1,0 2,-0.3 3,-1.1 1,-0.7 1.7,-1.7 1.7,-2.6 0.3,0.1 0.7,0.1 1,0.1 1,0 2.1,-0.3 3.1,-1 1.9,-1.2 2.2,-2.9 2.2,-3.9 0.3,0.1 0.7,0.1 1,0.1 1,0 2,-0.3 2.9,-0.9 1.2,-0.8 1.9,-1.9 2,-3.2 0.1,-0.9 -0.2,-1.8 -0.6,-2.6 3.2,-1.4 10.4,-4 19,-6 0,-0.7 -0.1,-1.3 -0.3,-2 -10.3,2.2 -18,5.5 -19.9,6.4 z M 71.9,50.9 c -2,0 -3.6,-1.6 -3.7,-3.6 0,-0.2 0,-0.6 -0.4,-0.6 -0.2,0 -0.3,0.1 -0.5,0.2 -0.4,0.4 -1,0.8 -1.8,0.8 -0.4,0 -0.8,-0.1 -1.2,-0.3 -2.1,-0.9 -2.2,-2.3 -2.1,-2.9 0,-0.2 0,-0.3 -0.1,-0.4 L 62,44 h -0.1 c -0.1,0 -0.2,0 -0.4,0.2 -0.6,0.4 -1.2,0.6 -1.8,0.6 -0.3,0 -0.7,-0.1 -1,-0.2 -2.8,-1.1 -2.6,-3.7 -2.4,-4.5 0,-0.2 0,-0.3 -0.1,-0.4 L 56,39.5 55.8,39.7 c -0.6,0.5 -1.3,0.8 -2,0.8 -1.6,0 -2.9,-1.3 -2.9,-2.9 0,-1.6 1.3,-2.9 2.9,-2.9 1.4,0 2.7,1.1 2.9,2.5 l 0.1,0.8 0.4,-0.7 c 0,-0.1 1.2,-1.9 3.4,-1.8 0.4,0 0.8,0.1 1.3,0.2 1.7,0.5 2,2.1 2,2.7 0,0.4 0.3,0.4 0.3,0.4 0.1,0 0.3,-0.1 0.3,-0.2 0.3,-0.3 1,-0.9 2.1,-0.9 0.5,0 1,0.1 1.6,0.4 2.7,1.2 1.5,4.6 1.5,4.7 -0.2,0.6 -0.3,0.8 0,1 h 0.2 c 0.1,0 0.3,0 0.5,-0.1 0.4,-0.1 0.9,-0.3 1.4,-0.3 2,0 3.7,1.7 3.7,3.7 0.1,2.2 -1.6,3.8 -3.6,3.8 z"
       fill="#2d3277"
       id="path14" />
  </g>
</svg>
