<?xml version="1.0" encoding="UTF-8" standalone="no"?>
<svg
   height="100"
   width="100"
   viewBox="-39.687495 -15.15325 28.663191 11.364937"
   version="1.1"
   id="svg8"
   sodipodi:docname="Motorola_Mobility-Logo.wine.svg"
   inkscape:version="1.1.2 (b8e25be833, 2022-02-05)"
   xmlns:inkscape="http://www.inkscape.org/namespaces/inkscape"
   xmlns:sodipodi="http://sodipodi.sourceforge.net/DTD/sodipodi-0.dtd"
   xmlns="http://www.w3.org/2000/svg"
   xmlns:svg="http://www.w3.org/2000/svg">
  <defs
     id="defs12" />
  <sodipodi:namedview
     id="namedview10"
     pagecolor="#ffffff"
     bordercolor="#666666"
     borderopacity="1.0"
     inkscape:pageshadow="2"
     inkscape:pageopacity="0.0"
     inkscape:pagecheckerboard="0"
     showgrid="false"
     width="100px"
     inkscape:zoom="0.985"
     inkscape:cx="216.24365"
     inkscape:cy="400"
     inkscape:window-width="1920"
     inkscape:window-height="1057"
     inkscape:window-x="-8"
     inkscape:window-y="-8"
     inkscape:window-maximized="1"
     inkscape:current-layer="svg8" />
  <g
     id="g1199"
     transform="matrix(0.3783108,0,0,0.3783108,-36.821176,-20.936058)">
    <path
       d="M 30.3065,0 C 13.5498,0 0,13.5498 0,30.3065 0,47.063 13.5498,60.613 30.3065,60.613 47.0631,60.613 60.613,47.0631 60.613,30.3065 60.613,13.6402 47.2438,0 30.3065,0"
       class="st1"
       id="path4"
       style="fill:#0088e8;fill-opacity:1" />
    <path
       d="M 39.3397,7.4524 30.3517,37.2621 30.3064,37.3073 30.2161,37.2621 21.2281,7.4524 9.6202,45.6178 h 2.168 c 0,0 1.4453,-6.6394 3.8391,-10.614 1.3099,-2.168 3.2972,-3.9295 5.962,-3.8843 1.897,0.0452 3.523,1.084 5.5554,3.9294 0.4517,0.6323 0.9937,1.6712 1.5357,2.6648 0.8581,1.6712 1.5808,3.3875 1.5808,3.3875 0,0 1.897,-4.336 3.1164,-6.0523 2.0325,-2.8454 3.6585,-3.8843 5.5555,-3.9294 2.6648,-0.0452 4.6973,1.7163 5.962,3.8843 2.3937,3.9746 3.839,10.614 3.839,10.614 h 2.168 z"
       class="st2"
       fill="#ffffff"
       id="path6" />
  </g>
</svg>
