<?xml version="1.0" encoding="UTF-8" standalone="no"?>
<!-- Created with Inkscape (http://www.inkscape.org/) -->

<svg
   width="100"
   height="100"
   viewBox="0 0 100 100"
   version="1.1"
   id="svg5"
   inkscape:version="1.1.2 (b8e25be833, 2022-02-05)"
   sodipodi:docname="outro--.svg"
   xmlns:inkscape="http://www.inkscape.org/namespaces/inkscape"
   xmlns:sodipodi="http://sodipodi.sourceforge.net/DTD/sodipodi-0.dtd"
   xmlns="http://www.w3.org/2000/svg"
   xmlns:svg="http://www.w3.org/2000/svg">
  <sodipodi:namedview
     id="namedview7"
     pagecolor="#ffffff"
     bordercolor="#666666"
     borderopacity="1.0"
     inkscape:pageshadow="2"
     inkscape:pageopacity="0.0"
     inkscape:pagecheckerboard="0"
     inkscape:document-units="px"
     showgrid="false"
     width="100px"
     inkscape:zoom="8.48"
     inkscape:cx="50"
     inkscape:cy="50"
     inkscape:window-width="1920"
     inkscape:window-height="1057"
     inkscape:window-x="-8"
     inkscape:window-y="-8"
     inkscape:window-maximized="1"
     inkscape:current-layer="layer1"
     inkscape:object-paths="false"
     inkscape:snap-intersection-paths="true"
     inkscape:object-nodes="true"
     inkscape:snap-smooth-nodes="true"
     inkscape:snap-bbox="true"
     inkscape:snap-bbox-edge-midpoints="true"
     inkscape:bbox-nodes="true"
     inkscape:snap-global="false" />
  <defs
     id="defs2" />
  <g
     inkscape:label="Camada 1"
     inkscape:groupmode="layer"
     id="layer1">
    <rect
       style="fill:#8776da;stroke:none;stroke-width:2.82827;stroke-linecap:round;stroke-linejoin:round;paint-order:markers stroke fill;fill-opacity:1"
       id="rect924"
       width="80"
       height="53.333332"
       x="10"
       y="23.3335"
       ry="5" />
    <rect
       style="fill:#ffffff;stroke:none;stroke-width:2.8205;stroke-linecap:round;stroke-linejoin:round;paint-order:markers stroke fill"
       id="rect1878"
       width="18"
       height="24"
       x="16"
       y="29.3335"
       ry="3.7735848" />
    <rect
       style="fill:#00ffff;stroke:none;stroke-width:0.944357;stroke-linecap:round;stroke-linejoin:round;paint-order:markers stroke fill"
       id="rect2193"
       width="6"
       height="6"
       x="22"
       y="23.3335" />
    <rect
       style="fill:#00ffff;stroke:none;stroke-width:0.944357;stroke-linecap:round;stroke-linejoin:round;paint-order:markers stroke fill"
       id="rect2275"
       width="6"
       height="6"
       x="10"
       y="38.3335" />
    <g
       id="g2984"
       transform="translate(0.236328,3.4506879)">
      <circle
         style="fill:#debc99;fill-opacity:1;stroke:none;stroke-width:2;stroke-linecap:round;stroke-linejoin:round;paint-order:markers stroke fill"
         id="path2444"
         cx="24.764151"
         cy="35.146225"
         r="4.1273584" />
      <path
         id="rect2321"
         style="fill:#999999;stroke:none;stroke-width:1.66762;stroke-linecap:round;stroke-linejoin:round;paint-order:markers stroke fill"
         d="m 22.966797,41.273438 c -2.271002,0 -4.099609,1.828607 -4.099609,4.099609 v 0.205078 0.205078 4.099609 h 4.099609 3.59375 4.099609 v -4.099609 -0.205078 -0.205078 c 0,-2.271002 -1.828607,-4.099609 -4.099609,-4.099609 z" />
    </g>
    <rect
       style="fill:#00ffff;fill-opacity:1;stroke:none;stroke-width:0.81213;stroke-linecap:round;stroke-linejoin:round;paint-order:markers stroke fill"
       id="rect3116"
       width="17.334904"
       height="1"
       x="39.150944"
       y="36.320755" />
    <rect
       style="fill:#00ffff;fill-opacity:1;stroke:none;stroke-width:0.610248;stroke-linecap:round;stroke-linejoin:round;paint-order:markers stroke fill"
       id="rect3222"
       width="9.787735"
       height="1"
       x="39.150944"
       y="40.457546" />
    <rect
       style="fill:#00ffff;fill-opacity:1;stroke:none;stroke-width:2.05913;stroke-linecap:round;stroke-linejoin:round;paint-order:markers stroke fill"
       id="rect3228"
       width="37.146225"
       height="3"
       x="16"
       y="67.735001" />
    <rect
       style="fill:#00ffff;fill-opacity:1;stroke:none;stroke-width:1.01585;stroke-linecap:round;stroke-linejoin:round;paint-order:markers stroke fill"
       id="rect3312"
       width="27.122643"
       height="1"
       x="39.150944"
       y="44.457546" />
    <rect
       style="fill:#00ffff;fill-opacity:1;stroke:none;stroke-width:0.418311;stroke-linecap:round;stroke-linejoin:round;paint-order:markers stroke fill"
       id="rect3554"
       width="4.5990558"
       height="1"
       x="51.150944"
       y="40.457546" />
    <rect
       style="fill:#00ffff;fill-opacity:1;stroke:none;stroke-width:0.944915;stroke-linecap:round;stroke-linejoin:round;paint-order:markers stroke fill"
       id="rect3556"
       width="23.46698"
       height="1"
       x="58.061317"
       y="40.457546" />
    <rect
       style="fill:#00ffff;fill-opacity:1;stroke:none;stroke-width:0.81213;stroke-linecap:round;stroke-linejoin:round;paint-order:markers stroke fill"
       id="rect3558"
       width="17.334904"
       height="1"
       x="59.150944"
       y="36.320755" />
    <rect
       style="fill:#00ffff;fill-opacity:1;stroke:none;stroke-width:0.663104;stroke-linecap:round;stroke-linejoin:round;paint-order:markers stroke fill"
       id="rect3560"
       width="11.556605"
       height="1"
       x="69.17453"
       y="44.457546" />
    <path
       id="path4500"
       style="fill:#00ffff;fill-opacity:1;stroke:none;stroke-width:2.04337;stroke-linecap:round;stroke-linejoin:round;paint-order:markers stroke fill"
       d="M 79.75 60.724609 L 79.75 61.994141 A 3.75 3.75 0 0 1 82.673828 64.917969 L 83.943359 64.917969 A 5 5 0 0 0 79.75 60.724609 z M 78.25 60.726562 A 5 5 0 0 0 74.058594 64.917969 L 75.335938 64.917969 A 3.75 3.75 0 0 1 78.25 62.003906 L 78.25 60.726562 z M 74.058594 66.417969 A 5 5 0 0 0 78.25 70.609375 L 78.25 69.332031 A 3.75 3.75 0 0 1 75.335938 66.417969 L 74.058594 66.417969 z M 82.664062 66.417969 A 3.75 3.75 0 0 1 79.75 69.332031 L 79.75 70.609375 A 5 5 0 0 0 83.941406 66.417969 L 82.664062 66.417969 z " />
  </g>
</svg>
