<?xml version="1.0" encoding="UTF-8" standalone="no"?>
<svg
   width="100"
   height="100"
   viewBox="-49.6 0 100 100"
   id="svg2"
   version="1.1"
   sodipodi:docname="netflix.svg"
   inkscape:version="1.1.2 (b8e25be833, 2022-02-05)"
   xmlns:inkscape="http://www.inkscape.org/namespaces/inkscape"
   xmlns:sodipodi="http://sodipodi.sourceforge.net/DTD/sodipodi-0.dtd"
   xmlns="http://www.w3.org/2000/svg"
   xmlns:svg="http://www.w3.org/2000/svg">
  <defs
     id="defs21">
    <radialGradient
       id="path5719_1_"
       cx="18038.016"
       cy="-146.44"
       r="368.71701"
       gradientTransform="matrix(0.02056113,-0.00712022,-0.26079378,-0.75319104,-351.73658,127.8519)"
       gradientUnits="userSpaceOnUse">
      <stop
         offset="0"
         id="stop8" />
      <stop
         offset="1"
         stop-opacity="0"
         id="stop10" />
    </radialGradient>
  </defs>
  <sodipodi:namedview
     id="namedview19"
     pagecolor="#ffffff"
     bordercolor="#666666"
     borderopacity="1.0"
     inkscape:pageshadow="2"
     inkscape:pageopacity="0.0"
     inkscape:pagecheckerboard="0"
     showgrid="false"
     inkscape:zoom="1.9617117"
     inkscape:cx="138.65442"
     inkscape:cy="127.94948"
     inkscape:window-width="1920"
     inkscape:window-height="1057"
     inkscape:window-x="-8"
     inkscape:window-y="-8"
     inkscape:window-maximized="1"
     inkscape:current-layer="svg2" />
  <style
     id="style2">.st0{fill:#b1060f;stroke:#000}.st1{fill:url(#path5719_1_)}.st2{fill:#e50914}</style>
  <g
     id="g1147"
     transform="matrix(0.36193857,0,0,0.36193672,-21.820763,9.8261061)">
    <path
       id="path4155"
       class="st0"
       d="m 78.86215,0.654898 -0.08722,48.84432 -0.08722,48.84432 -4.012212,-11.33886 v -0.02907 l -5.20425,108.736752 c 5.117024,14.42071 7.84998,22.12532 7.879054,22.15439 0.02907,0.0291 2.936474,0.20352 6.454428,0.37796 10.64108,0.52334 23.84068,1.65722 33.87121,2.9074 2.32592,0.29074 4.30295,0.43611 4.44832,0.31982 0.14537,-0.1163 0.17445,-49.83284 0.14537,-110.51028 L 122.18241,0.654898 Z"
       style="stroke:none;stroke-width:0.29074" />
    <path
       id="path4157"
       class="st0"
       d="M 0.50772,0.509528 V 110.93258 c 0,60.73559 0.058148,110.4812 0.14537,110.56842 0.087222,0.0872 3.837768,-0.29074 8.373312,-0.785 4.535544,-0.49425 10.786454,-1.13388 13.897372,-1.39555 4.768136,-0.40703 19.072544,-1.30833 20.700688,-1.3374 0.494258,0 0.523332,-2.47129 0.58148,-46.78007 l 0.08722,-46.78006 3.459806,9.76886 c 0.523332,1.51185 0.697776,1.97703 1.221108,3.45981 L 54.178324,28.9439 C 53.073512,25.832982 53.654992,27.461126 52.40481,23.914098 48.160006,11.906536 44.55483,1.75971 44.40946,1.294526 L 44.11872,0.480454 h -43.611 z"
       style="stroke:none;stroke-width:0.29074" />
    <path
       id="path5721"
       class="st2"
       d="M 0.50772,0.509528 44.26409,124.51014 v -0.0582 l 3.459806,9.76886 c 19.217914,54.39746 29.539184,83.58775 29.597334,83.6459 0.0291,0.0291 2.93647,0.20352 6.45443,0.37796 10.64108,0.52334 23.84068,1.65722 33.87121,2.9074 2.29684,0.29074 4.30295,0.43611 4.41924,0.31982 L 78.68771,98.314464 v 0.02907 L 74.67549,87.004678 C 70.7505,75.927484 68.13384,68.513614 52.346662,23.914098 48.101858,11.906536 44.496682,1.75971 44.351312,1.294526 L 44.060572,0.480454 H 22.284146 Z"
       style="stroke-width:0.29074" />
  </g>
</svg>
