<?xml version="1.0" encoding="UTF-8" standalone="no"?>
<!-- Created with Inkscape (http://www.inkscape.org/) -->

<svg
   width="100"
   height="100"
   viewBox="0 0 100 100"
   version="1.1"
   id="svg5"
   inkscape:version="1.1.2 (b8e25be833, 2022-02-05)"
   sodipodi:docname="next.svg"
   xmlns:inkscape="http://www.inkscape.org/namespaces/inkscape"
   xmlns:sodipodi="http://sodipodi.sourceforge.net/DTD/sodipodi-0.dtd"
   xmlns:xlink="http://www.w3.org/1999/xlink"
   xmlns="http://www.w3.org/2000/svg"
   xmlns:svg="http://www.w3.org/2000/svg">
  <sodipodi:namedview
     id="namedview7"
     pagecolor="#ffffff"
     bordercolor="#666666"
     borderopacity="1.0"
     inkscape:pageshadow="2"
     inkscape:pageopacity="0.0"
     inkscape:pagecheckerboard="0"
     inkscape:document-units="px"
     showgrid="false"
     width="100px"
     inkscape:snap-global="true"
     inkscape:snap-object-midpoints="true"
     inkscape:zoom="3.3991107"
     inkscape:cx="28.242681"
     inkscape:cy="-11.179395"
     inkscape:window-width="1920"
     inkscape:window-height="1057"
     inkscape:window-x="-8"
     inkscape:window-y="-8"
     inkscape:window-maximized="1"
     inkscape:current-layer="layer1" />
  <defs
     id="defs2">
    <linearGradient
       inkscape:collect="always"
       id="linearGradient1045">
      <stop
         style="stop-color:#00ff5f;stop-opacity:1"
         offset="0"
         id="stop1041" />
      <stop
         style="stop-color:#1e3c3c;stop-opacity:1"
         offset="1"
         id="stop1043" />
    </linearGradient>
    <linearGradient
       inkscape:collect="always"
       xlink:href="#linearGradient1045"
       id="linearGradient1047"
       x1="52.740685"
       y1="86.714615"
       x2="81.132072"
       y2="86.714615"
       gradientUnits="userSpaceOnUse"
       gradientTransform="matrix(0.6717255,0,0,1,40.183926,-105.82099)" />
    <linearGradient
       inkscape:collect="always"
       xlink:href="#linearGradient1045"
       id="linearGradient3669"
       gradientUnits="userSpaceOnUse"
       x1="52.740685"
       y1="86.714615"
       x2="81.132072"
       y2="86.714615"
       gradientTransform="translate(-44.039542,-6.0367834)" />
  </defs>
  <g
     inkscape:label="Camada 1"
     inkscape:groupmode="layer"
     id="layer1">
    <rect
       style="fill:#ffb836;fill-opacity:1;stroke-width:2.31167;stroke-linejoin:round;paint-order:markers stroke fill"
       id="rect3751"
       width="86.999878"
       height="5.5495129"
       x="5.3350258"
       y="143.93985"
       ry="2.7747564" />
    <g
       id="g10355"
       transform="matrix(1.0048629,0,0,1.0048629,11.766819,-16.983909)">
      <rect
         style="fill:url(#linearGradient1047);fill-opacity:1;stroke-width:1.89462;stroke-linejoin:round;paint-order:markers stroke fill"
         id="rect858"
         width="58.440037"
         height="5.5495129"
         x="43.767605"
         y="-21.881145"
         ry="2.7747564"
         transform="matrix(0.75284621,0.65819646,0.65819646,-0.75284621,0,0)" />
      <path
         style="color:#000000;fill:#00ff5f;fill-opacity:1;stroke-linecap:round;-inkscape-stroke:none"
         d="m 21.511719,42.378906 a 2.8,2.8 0 0 0 -1.613282,1.410156 L -1.4667969,86.890625 a 2.8,2.8 0 0 0 1.2636719,3.751953 2.8,2.8 0 0 0 3.7539063,-1.263672 L 24.914062,46.277344 a 2.8,2.8 0 0 0 -1.263671,-3.753907 2.8,2.8 0 0 0 -2.138672,-0.144531 z"
         id="path4108" />
      <rect
         style="fill:url(#linearGradient3669);fill-opacity:1;stroke-width:2.31167;stroke-linejoin:round;paint-order:markers stroke fill"
         id="rect3667"
         width="86.999878"
         height="5.5495129"
         x="-38.704514"
         y="77.903061"
         ry="2.7747564"
         transform="rotate(-24.66775)" />
      <path
         style="color:#000000;fill:#1e3c3c;fill-opacity:1;stroke-linecap:round;-inkscape-stroke:none"
         d="m 74.164234,51.684566 a 2.8,2.8 0 0 0 -1.6182,1.406941 L 59.871223,78.564131 a 2.8,2.8 0 0 0 1.259201,3.754156 2.8,2.8 0 0 0 3.754156,-1.259199 L 77.561344,55.586449 a 2.8,2.8 0 0 0 -1.2592,-3.754157 2.8,2.8 0 0 0 -2.13791,-0.147726 z"
         id="path4639" />
    </g>
  </g>
</svg>
