<?xml version="1.0" encoding="UTF-8" standalone="no"?>
<svg
   height="100"
   width="100"
   viewBox="-60.890925 -25 43.976779 18.75"
   version="1.1"
   id="svg10"
   sodipodi:docname="Nintendo_Research_&amp;_Development_2-Logo.wine.svg"
   inkscape:version="1.1.2 (b8e25be833, 2022-02-05)"
   xmlns:inkscape="http://www.inkscape.org/namespaces/inkscape"
   xmlns:sodipodi="http://sodipodi.sourceforge.net/DTD/sodipodi-0.dtd"
   xmlns="http://www.w3.org/2000/svg"
   xmlns:svg="http://www.w3.org/2000/svg">
  <defs
     id="defs14" />
  <sodipodi:namedview
     id="namedview12"
     pagecolor="#ffffff"
     bordercolor="#666666"
     borderopacity="1.0"
     inkscape:pageshadow="2"
     inkscape:pageopacity="0.0"
     inkscape:pagecheckerboard="0"
     showgrid="false"
     width="100px"
     inkscape:zoom="8.48"
     inkscape:cx="50"
     inkscape:cy="50"
     inkscape:window-width="1920"
     inkscape:window-height="1057"
     inkscape:window-x="-8"
     inkscape:window-y="-8"
     inkscape:window-maximized="1"
     inkscape:current-layer="svg10" />
  <g
     id="g835"
     transform="matrix(0.08666667,0,0,0.08666667,-56.493247,-19.51848)">
    <path
       d="M 53.0963,100 C 21.2746,99.9856 0,77.4422 0,50.083 0,22.7383 21.3178,-0.0863 53.053,2e-4 h 299.8479 c 31.7208,-0.0865 53.0386,22.738 53.0386,50.0828 0,27.3592 -21.2674,49.9026 -53.089,49.917 z"
       fill="#ed1c24"
       id="path2" />
    <path
       d="m 53.19,12.292 c -25.2036,0.0433 -40.6603,16.8986 -40.6603,37.7261 0,20.8348 15.3774,37.8054 40.6603,37.719 h 299.5523 c 25.3045,0.0864 40.6674,-16.8842 40.6674,-37.719 0,-20.8275 -15.4638,-37.6828 -40.6674,-37.726 z"
       fill="#ffffff"
       id="path4" />
    <path
       d="m 40.2638,26.3717 h 14.678 l 20.2941,32.831 -0.0075,-32.831 H 89.7767 V 73.4555 H 75.2428 l -20.395,-32.831 v 32.831 H 40.2635 V 26.3717 Z m 128.6349,4.8447 h 14.1735 v 6.337 h 7.6634 v 4.6571 h -7.6635 l 0.0144,31.245 h -14.1878 l 0.007,-31.245 h -7.6923 v -4.6428 l 7.6923,-0.0143 z M 97.8802,42.1456 h 14.159 v 31.317 h -14.159 z m -0.036,-15.7883 h 14.195 v 9.6316 h -14.195 z m 248.1286,13.6616 c -11.4267,0 -20.6906,7.858 -20.6906,17.569 0,9.7036 9.2639,17.5762 20.6906,17.5762 11.4339,0 20.6834,-7.8726 20.6834,-17.5762 0,-9.711 -9.2495,-17.569 -20.6834,-17.569 m 5.688,17.5257 c 0,0 -0.0143,4.7293 -0.0143,6.6325 0,4.9889 -2.9414,7.0435 -5.789,7.0435 -2.8405,0 -5.8035,-2.0546 -5.8035,-7.0435 0,-1.9032 0.007,-6.755 0.007,-6.755 0,0 0.008,-4.6212 0.008,-6.5172 0,-4.9744 2.9774,-7.0146 5.789,-7.0146 2.826,0 5.789,2.0402 5.789,7.0146 0,1.896 -0.007,5.407 0.0145,6.6541 v -0.0143 z m -44.8632,0.1009 V 52.044 c 0,-4.8446 -3.3451,-6.0702 -5.544,-6.0702 -2.2564,0 -5.551,1.2256 -5.551,6.0702 v 11.1456 c 0,4.8518 3.2946,6.099 5.551,6.099 2.1989,0 5.544,-1.2472 5.544,-6.099 z m -0.0937,-31.2738 h 13.9643 v 47.0766 h -13.9931 c 0,0 -0.007,-1.5212 -0.007,-1.8024 -5.4142,3.3884 -11.5277,3.3884 -16.3002,1.1824 -1.276,-0.6056 -9.6748,-4.6356 -9.6748,-15.536 0,-8.2618 7.786,-17.2878 17.9943,-16.3867 3.3595,0.2956 5.7458,1.5212 8.0167,2.8044 V 26.3717 Z M 145.1802,40.7038 c 5.2988,-0.1514 16.0262,3.309 15.9541,15.7018 -0.0144,2.2132 -0.007,17.0427 -0.007,17.0427 h -14.058 V 52.8874 c 0,-2.7323 -2.6098,-5.7602 -6.474,-5.7602 -3.8569,0 -6.719,3.028 -6.719,5.7602 0,1.3337 0.0144,20.5609 0.0144,20.5609 h -14.0509 l -0.0144,-31.3027 14.0653,-0.0144 c 0,0 -0.0144,2.516 0,3.2947 2.7107,-2.581 6.6181,-4.5923 11.2897,-4.722 m 115.0453,-10e-5 c 5.2916,-0.1514 16.0334,3.309 15.9613,15.7018 -0.0144,2.2132 0,17.0427 0,17.0427 H 262.1146 V 52.8874 c 0,-2.7323 -2.6098,-5.7602 -6.474,-5.7602 -3.857,0 -6.7118,3.028 -6.7118,5.7602 0,1.3337 0.0144,20.5609 0.0144,20.5609 H 234.8923 V 42.1456 l 14.051,-0.0144 c 0,0 -0.0145,2.516 0,3.2947 2.7034,-2.581 6.6036,-4.5923 11.2824,-4.722 m -44.5388,21.7935 c 0,0 0.007,0.1442 0.007,1.9032 0,5.7242 -3.7633,7.0002 -5.854,7.0002 -2.0834,0 -5.926,-1.276 -5.926,-7.0002 0,-1.7158 0.0144,-6.4595 0.0144,-6.4595 0,0 26.6671,0.0144 26.6671,-0.0144 0,-9.7036 -9.372,-17.742 -20.8852,-17.742 -11.5132,0 -20.842,7.8581 -20.842,17.5762 0,9.7181 9.3288,17.569 20.842,17.569 9.5522,0 17.6266,-5.4502 20.085,-12.8469 l -14.1086,0.0144 z m -11.7583,-9.4442 c -0.029,-2.7395 0.0289,-4.5706 0.93,-6.135 1.103,-1.9321 3.136,-2.8477 4.9816,-2.8621 1.8383,0.0144 3.8713,0.93 4.9672,2.862 0.9011,1.5645 0.9516,3.3956 0.93,6.1351 z M 369.576,31.5408 c 1.3769,0 2.6097,-0.0865 2.6097,-1.7447 0,-1.3265 -1.204,-1.5644 -2.3358,-1.5644 h -2.206 v 3.309 z m -1.9322,6.027 h -1.622 v -10.713 h 4.066 c 2.5376,0 3.792,0.93 3.792,3.0495 0,1.9176 -1.2039,2.7467 -2.7755,2.9486 l 3.0423,4.7148 h -1.8167 l -2.8333,-4.65 h -1.8528 v 4.65 z"
       fill="#ed1c24"
       id="path6" />
    <path
       d="m 369.5975,39.9612 c 4.2102,0 7.5265,-3.2946 7.5265,-7.7716 0,-4.4048 -3.3163,-7.7139 -7.5265,-7.7139 -4.2462,0 -7.5697,3.309 -7.5697,7.714 0,4.4769 3.3235,7.7715 7.5697,7.7715 m -9.4297,-7.7716 c 0,-5.3348 4.3184,-9.2639 9.4297,-9.2639 5.0681,0 9.3937,3.929 9.3937,9.264 0,5.378 -4.3256,9.3215 -9.3937,9.3215 -5.1113,0 -9.4297,-3.9435 -9.4297,-9.3216"
       fill="#ed1c24"
       id="path8" />
  </g>
</svg>
