<?xml version="1.0" encoding="UTF-8" standalone="no"?>
<svg
   width="100"
   height="100"
   viewBox="0 0 100 100"
   version="1.1"
   id="svg4"
   sodipodi:docname="notion.svg"
   inkscape:version="1.1.2 (b8e25be833, 2022-02-05)"
   xmlns:inkscape="http://www.inkscape.org/namespaces/inkscape"
   xmlns:sodipodi="http://sodipodi.sourceforge.net/DTD/sodipodi-0.dtd"
   xmlns="http://www.w3.org/2000/svg"
   xmlns:svg="http://www.w3.org/2000/svg">
  <defs
     id="defs8" />
  <sodipodi:namedview
     id="namedview6"
     pagecolor="#ffffff"
     bordercolor="#666666"
     borderopacity="1.0"
     inkscape:pageshadow="2"
     inkscape:pageopacity="0.0"
     inkscape:pagecheckerboard="0"
     showgrid="false"
     width="100px"
     inkscape:zoom="8.48"
     inkscape:cx="50"
     inkscape:cy="50"
     inkscape:window-width="1920"
     inkscape:window-height="1057"
     inkscape:window-x="-8"
     inkscape:window-y="-8"
     inkscape:window-maximized="1"
     inkscape:current-layer="svg4" />
  <path
     d="m 24.872723,24.023303 c 2.474856,2.01739 3.412301,1.874897 8.084526,1.562414 l 44.047417,-2.642355 c 0.937445,0 0.157492,-0.937449 -0.15749,-1.09494 l -7.317071,-5.287211 c -1.392419,-1.09494 -3.267308,-2.329873 -6.849599,-2.032389 l -42.639999,3.124829 c -1.562408,0.142492 -1.87489,0.924949 -1.249926,1.549915 z m 2.642346,10.274438 v 46.337467 c 0,2.487364 1.237427,3.424813 4.037263,3.267322 l 48.409661,-2.799847 c 2.799836,-0.157492 3.124817,-1.862398 3.124817,-3.892287 V 31.185411 c 0,-2.032389 -0.782454,-3.112329 -2.499853,-2.954838 l -50.582034,2.954838 c -1.874891,0.157492 -2.487355,1.079941 -2.487355,3.099831 z m 47.784698,2.472365 c 0.312482,1.407423 0,2.799847 -1.407417,2.969838 l -2.329864,0.469974 v 34.203131 c -2.032381,1.09494 -3.892272,1.719906 -5.442182,1.719906 -2.499853,0 -3.124816,-0.782458 -4.987207,-3.11233 L 45.873992,49.064434 v 23.176233 l 4.829717,1.09494 c 0,0 0,2.799847 -3.892272,2.799847 l -10.74187,0.624966 c -0.312482,-0.624966 0,-2.18738 1.094936,-2.487364 l 2.799835,-0.782457 V 42.854774 l -3.892271,-0.312483 c -0.312482,-1.407423 0.469972,-3.424813 2.642344,-3.579805 L 50.236237,38.180029 66.120304,62.448703 V 40.977376 l -4.049761,-0.469974 c -0.312482,-1.704907 0.924945,-2.954839 2.487354,-3.099831 z M 16.460717,13.451381 60.820615,10.184059 c 5.442182,-0.4699743 6.849599,-0.157491 10.271899,2.329873 l 14.166668,9.959456 c 2.329864,1.704906 3.112318,2.174881 3.112318,4.037279 v 54.594516 c 0,3.424813 -1.249927,5.442202 -5.599672,5.754685 L 31.23735,89.972197 c -3.254809,0.15749 -4.817218,-0.31248 -6.537117,-2.487363 L 14.270845,73.943074 C 12.408454,71.45571 11.6285,69.593312 11.6285,67.420931 V 18.896083 c 0,-2.799847 1.249927,-5.129719 4.829717,-5.442202 z"
     id="path2"
     style="stroke-width:2.49986" />
</svg>
