<?xml version="1.0" encoding="UTF-8" standalone="no"?>
<svg
   viewBox="0 0 100 99.999996"
   height="100"
   width="100"
   xml:space="preserve"
   id="svg2"
   version="1.1"
   sodipodi:docname="notredame-intermedica--.svg"
   inkscape:version="1.1.2 (b8e25be833, 2022-02-05)"
   xmlns:inkscape="http://www.inkscape.org/namespaces/inkscape"
   xmlns:sodipodi="http://sodipodi.sourceforge.net/DTD/sodipodi-0.dtd"
   xmlns="http://www.w3.org/2000/svg"
   xmlns:svg="http://www.w3.org/2000/svg"
   xmlns:rdf="http://www.w3.org/1999/02/22-rdf-syntax-ns#"
   xmlns:cc="http://creativecommons.org/ns#"
   xmlns:dc="http://purl.org/dc/elements/1.1/"><sodipodi:namedview
     id="namedview290"
     pagecolor="#ffffff"
     bordercolor="#666666"
     borderopacity="1.0"
     inkscape:pageshadow="2"
     inkscape:pageopacity="0.0"
     inkscape:pagecheckerboard="0"
     showgrid="false"
     inkscape:zoom="8.48"
     inkscape:cx="50"
     inkscape:cy="50"
     inkscape:window-width="1920"
     inkscape:window-height="1057"
     inkscape:window-x="-8"
     inkscape:window-y="-8"
     inkscape:window-maximized="1"
     inkscape:current-layer="svg2" /><metadata
     id="metadata8"><rdf:RDF><cc:Work
         rdf:about=""><dc:format>image/svg+xml</dc:format><dc:type
           rdf:resource="http://purl.org/dc/dcmitype/StillImage" /></cc:Work></rdf:RDF></metadata><defs
     id="defs6"><clipPath
       id="clipPath22"
       clipPathUnits="userSpaceOnUse"><path
         id="path20"
         d="M 0,1003.093 H 2441.258 V 0 H 0 Z" /></clipPath></defs><g
     id="g2278"
     transform="matrix(0.12774442,0,0,0.12545796,-43.541057,-33.349256)"
     style="stroke-width:7.89913"><path
       id="path14"
       style="fill:#f9a035;fill-opacity:1;fill-rule:nonzero;stroke:none;stroke-width:10.5322"
       d="m 663.86492,679.37985 v 0 l -25.012,-17.21733 0.18267,21.81866 8.792,11.71734 z" /><path
       id="path26"
       style="fill:#f9a035;fill-opacity:1;fill-rule:nonzero;stroke:none;stroke-width:10.5322"
       d="m 547.57239,413.73946 -5.66667,-1.80667 c -4.708,-1.50133 -9.752,1.05334 -11.32666,5.73867 l -23.17067,68.952 c -1.61467,4.80533 1.03333,10 5.87067,11.51733 l 34.26133,10.744 -0.0107,-94.72266 c 0,-0.14534 0.036,-0.28 0.0427,-0.42267" /><path
       id="path30"
       style="fill:#f9a035;fill-opacity:1;fill-rule:nonzero;stroke:none;stroke-width:10.5322"
       d="m 913.76091,572.46639 25.01333,-33.96267 -13.20666,-4.212 -11.82134,12.06534 z" /><path
       id="path34"
       style="fill:#f9a035;fill-opacity:1;fill-rule:nonzero;stroke:none;stroke-width:10.5322"
       d="m 450.37732,674.18878 c -3.28,0.57067 -5.98,2.896 -7.032,6.05333 l -20.71733,62.148 c -1.59467,4.788 1.032,9.95467 5.84,11.48533 l 8.92133,2.84134 68.34133,-92.16667 z" /><path
       id="path38"
       style="fill:#f9a035;fill-opacity:1;fill-rule:nonzero;stroke:none;stroke-width:10.5322"
       d="m 934.40118,914.99158 25.516,-76.548 c 1.596,-4.78933 -1.03333,-9.95733 -5.84267,-11.48666 l -40.17466,-12.77067 0.0533,94.29333 z" /><path
       id="path42"
       style="fill:#f9a035;fill-opacity:1;fill-rule:nonzero;stroke:none;stroke-width:10.5322"
       d="m 807.88611,654.39452 15.504,9.32533 0.0413,-25.19066 z" /><path
       id="path46"
       style="fill:#f9a035;fill-opacity:1;fill-rule:nonzero;stroke:none;stroke-width:10.5322"
       d="m 530.26945,786.29465 17.3,5.50933 -0.003,-29.26 z" /><path
       id="path50"
       style="fill:#f9a035;fill-opacity:1;fill-rule:nonzero;stroke:none;stroke-width:10.5322"
       d="m 969.20598,669.00172 44.47462,-7.78133 c 3.284,-0.57467 5.9854,-2.908 7.032,-6.072 l 24.204,-73.19333 c 1.5814,-4.78134 -1.0453,-9.93334 -5.8426,-11.46267 l -7.852,-2.504 -68.54002,92.21066 z" /><path
       id="path54"
       style="fill:#f9a035;fill-opacity:1;fill-rule:nonzero;stroke:none;stroke-width:10.5322"
       d="m 640.31372,837.13678 0.368,44.19867 22.00133,-6.98534 0.83334,-5.81333 z" /><path
       id="path58"
       style="fill:#f9a035;fill-opacity:1;fill-rule:nonzero;stroke:none;stroke-width:10.5322"
       d="m 509.65972,836.27958 c -2.32133,2.36133 -3.16667,5.80267 -2.20533,8.972 l 19.03733,62.72266 c 1.46533,4.82534 6.592,7.52267 11.39867,5.996 l 9.69066,-3.076 -0.012,-113.18799 z" /><path
       id="path62"
       style="fill:#f9a035;fill-opacity:1;fill-rule:nonzero;stroke:none;stroke-width:10.5322"
       d="m 1035.728,755.91065 c 4.7213,-1.49867 7.36,-6.51333 5.92,-11.25333 l -20.8373,-68.652 c -1.4667,-4.83333 -6.6067,-7.52933 -11.4174,-5.98933 l -31.87463,10.2 56.50663,76.23599 z" /><path
       id="path66"
       style="fill:#f9a035;fill-opacity:1;fill-rule:nonzero;stroke:none;stroke-width:10.5322"
       d="m 925.56798,534.29225 31.16133,-31.80267 c 2.32,-2.368 3.15867,-5.81333 2.18934,-8.98266 l -22.57734,-73.748 c -1.47466,-4.81467 -6.59466,-7.50133 -11.39333,-5.976 l -11.276,3.584 0.0653,113.152 z" /><path
       id="path70"
       style="fill:#f9a035;fill-opacity:1;fill-rule:nonzero;stroke:none;stroke-width:10.5322"
       d="m 786.21785,615.71198 25.572,-4.45333 1.85733,-0.0907 -18.38266,-24.596 -4.57867,-1.436 z" /><path
       id="path74"
       style="fill:#f9a035;fill-opacity:1;fill-rule:nonzero;stroke:none;stroke-width:10.5322"
       d="m 823.70598,472.69919 0.0453,-26.75467 -13.348,4.24134 -0.55733,3.81466 z" /><path
       id="path78"
       style="fill:#f9a035;fill-opacity:1;fill-rule:nonzero;stroke:none;stroke-width:10.5322"
       d="m 685.43345,715.60958 -21.68667,1.30267 17.496,23.31333 0.63334,0.20133 z" /><path
       id="path82"
       style="fill:#f9a035;fill-opacity:1;fill-rule:nonzero;stroke:none;stroke-width:10.5322"
       d="m 419.12639,574.53585 23.52533,78.188 c 1.46,4.85466 6.624,7.56266 11.448,6.004 l 43.90133,-14.18667 -56.89199,-76.992 z" /><path
       id="path86"
       style="fill:#f9a035;fill-opacity:1;fill-rule:nonzero;stroke:none;stroke-width:10.5322"
       d="m 681.24292,740.22518 0.556,0.74133 0.0773,-0.53866 z" /><path
       id="path90"
       style="fill:#f9a035;fill-opacity:1;fill-rule:nonzero;stroke:none;stroke-width:10.5322"
       d="m 795.26438,586.57252 -4.00533,-5.35867 -0.57334,3.92267 z" /><path
       id="path94"
       style="fill:#f9a035;fill-opacity:1;fill-rule:nonzero;stroke:none;stroke-width:10.5322"
       d="m 1032.8292,565.82599 c 3.0053,-4.044 2.1293,-9.76267 -1.948,-12.72267 l -59.76,-43.36533 c -4.02533,-2.92133 -9.652,-2.04667 -12.60266,1.95733 l -19.744,26.80934 92.44666,29.48266 z" /><path
       id="path98"
       style="fill:#f9a035;fill-opacity:1;fill-rule:nonzero;stroke:none;stroke-width:10.5322"
       d="m 810.40385,450.18559 6.30267,-43.13467 c 0.488,-3.34533 -0.92934,-6.68533 -3.676,-8.65866 l -64.49734,-46.324 c -4.016,-2.88533 -9.60266,-2.012 -12.54799,1.95867 l -0.12,0.16266 71.79866,96.86667 z" /><path
       id="path102"
       style="fill:#f9a035;fill-opacity:1;fill-rule:nonzero;stroke:none;stroke-width:10.5322"
       d="m 724.33758,735.22612 -16.68533,13.39467 28.15066,8.94933 0.51334,-0.164 z" /><path
       id="path106"
       style="fill:#f9a035;fill-opacity:1;fill-rule:nonzero;stroke:none;stroke-width:10.5322"
       d="m 509.26452,659.78558 -3.53333,4.76533 6.25066,-1.088 z" /><path
       id="path110"
       style="fill:#f9a035;fill-opacity:1;fill-rule:nonzero;stroke:none;stroke-width:10.5322"
       d="m 745.68465,596.13092 17.38,-17.684 1.79733,-1.40933 -29.41466,-9.224 -4.47734,1.44666 z" /><path
       id="path114"
       style="fill:#f9a035;fill-opacity:1;fill-rule:nonzero;stroke:none;stroke-width:10.5322"
       d="m 423.42466,775.54891 67.984,48.83333 c 4.04133,2.90134 9.66666,1.99867 12.59466,-2.02266 l 26.26667,-36.06534 -92.88133,-29.57733 z" /><path
       id="path118"
       style="fill:#f9a035;fill-opacity:1;fill-rule:nonzero;stroke:none;stroke-width:10.5322"
       d="m 662.68265,874.35024 -8.464,59.06533 c -0.47867,3.33734 0.93733,6.664 3.67467,8.63067 l 54.87733,39.444 c 4.012,2.884 9.596,2.016 12.544,-1.95067 l 10.14266,-13.644 -68.61999,-92.864 z" /><path
       id="path122"
       style="fill:#f9a035;fill-opacity:1;fill-rule:nonzero;stroke:none;stroke-width:10.5322"
       d="m 774.08371,863.93771 18.668,24.876 8.41867,-11.32533 -3.212,-5.948 z" /><path
       id="path126"
       style="fill:#f9a035;fill-opacity:1;fill-rule:nonzero;stroke:none;stroke-width:10.5322"
       d="m 703.18025,463.36692 -24.23067,-32.42 -13.64533,18.40133 1.28667,2.34934 z" /><path
       id="path130"
       style="fill:#f9a035;fill-opacity:1;fill-rule:nonzero;stroke:none;stroke-width:10.5322"
       d="m 735.80331,757.56971 0.72667,0.23067 -0.21334,-0.39467 z" /><path
       id="path134"
       style="fill:#f9a035;fill-opacity:1;fill-rule:nonzero;stroke:none;stroke-width:10.5322"
       d="m 735.44678,567.81319 -6.36267,-1.99467 1.88534,3.44267 z" /><path
       id="path138"
       style="fill:#f9a035;fill-opacity:1;fill-rule:nonzero;stroke:none;stroke-width:10.5322"
       d="m 782.33798,642.27052 3.88,-26.55867 -27.216,4.73867 7.95067,14.51867 z" /><path
       id="path142"
       style="fill:#f9a035;fill-opacity:1;fill-rule:nonzero;stroke:none;stroke-width:10.5322"
       d="m 715.60078,541.19572 13.484,24.62267 6.36267,1.99466 36.888,-11.91866 -56.536,-75.64267 -28.596,9.08667 25.46666,46.50533 7.332,-10.068 z" /><path
       id="path146"
       style="fill:#f9a035;fill-opacity:1;fill-rule:nonzero;stroke:none;stroke-width:10.5322"
       d="m 681.79945,740.96718 13.304,17.728 12.54933,-10.07467 -25.776,-8.19333 z" /><path
       id="path150"
       style="fill:#f9a035;fill-opacity:1;fill-rule:nonzero;stroke:none;stroke-width:10.5322"
       d="m 791.25865,581.21332 -11.724,-15.68667 -14.67333,11.51067 25.824,8.09867 z" /><path
       id="path154"
       style="fill:#f9a035;fill-opacity:1;fill-rule:nonzero;stroke:none;stroke-width:10.5322"
       d="m 751.64971,785.79798 -15.12,-27.99733 -0.72667,-0.23067 -33.49866,10.72 56.65466,75.49333 20.49334,-6.50666 -25.69067,-47.568 -4.89733,6.65066 z" /><path
       id="path158"
       style="fill:#f9a035;fill-opacity:1;fill-rule:nonzero;stroke:none;stroke-width:10.5322"
       d="m 688.91718,691.30518 -3.484,24.304 26.42133,-1.58667 0.94267,-0.164 -8.132,-15.05733 z" /><path
       id="path162"
       style="fill:#f9a035;fill-opacity:1;fill-rule:nonzero;stroke:none;stroke-width:10.5322"
       d="m 801.17051,877.48811 28.38933,52.56667 c 1.58267,2.93066 4.64667,4.75466 7.97734,4.74933 l 67.39199,-0.104 c 4.99467,-0.009 9.03734,-4.06133 9.03467,-9.05467 l -0.009,-17.16533 -109.824,-34.97467 z" /><path
       id="path166"
       style="fill:#f9a035;fill-opacity:1;fill-rule:nonzero;stroke:none;stroke-width:10.5322"
       d="m 547.58359,925.82011 c 0,4.984 4.02933,9.028 9.012,9.048 l 75.37333,0.31067 c 5.04267,0.02 9.12933,-4.08267 9.08667,-9.12534 l -0.37334,-44.71733 -93.10133,29.55867 z" /><path
       id="path170"
       style="fill:#f9a035;fill-opacity:1;fill-rule:nonzero;stroke:none;stroke-width:10.5322"
       d="m 766.79838,728.37798 -5.55333,21.05067 29.024,-9.28934 0.32266,-0.436 z" /><path
       id="path174"
       style="fill:#f9a035;fill-opacity:1;fill-rule:nonzero;stroke:none;stroke-width:10.5322"
       d="m 547.56932,791.80371 v 5.90267 l 4.41867,-4.49467 z" /><path
       id="path178"
       style="fill:#f9a035;fill-opacity:1;fill-rule:nonzero;stroke:none;stroke-width:10.5322"
       d="m 701.44638,603.88145 3.768,-26.292 0.003,-0.008 -30.00667,9.69733 -2.24667,3.08534 z" /><path
       id="path182"
       style="fill:#f9a035;fill-opacity:1;fill-rule:nonzero;stroke:none;stroke-width:10.5322"
       d="m 913.67158,415.08679 c -0.003,-4.92533 -3.944,-8.94267 -8.86667,-9.04267 l -71.76933,-1.44933 c -5.06266,-0.10267 -9.224,3.968 -9.232,9.032 l -0.0533,32.31733 89.92266,-28.57733 z" /><path
       id="path186"
       style="fill:#f9a035;fill-opacity:1;fill-rule:nonzero;stroke:none;stroke-width:10.5322"
       d="m 883.05944,804.38171 30.84,9.804 -0.008,-15.78933 -4.79333,-2.28134 z" /><path
       id="path190"
       style="fill:#f9a035;fill-opacity:1;fill-rule:nonzero;stroke:none;stroke-width:10.5322"
       d="m 665.30412,449.34812 -21.744,-39.70933 c -1.59333,-2.90534 -4.64533,-4.71067 -7.95867,-4.70267 l -79.04266,0.17467 c -4.84533,0.0107 -8.76133,3.83866 -8.98667,8.628 l 116.56933,37.17733 z" /><path
       id="path194"
       style="fill:#f9a035;fill-opacity:1;fill-rule:nonzero;stroke:none;stroke-width:10.5322"
       d="m 586.88159,521.22212 -39.34133,-12.33733 10e-4,21.956 3.64,1.728 z" /><path
       id="path198"
       style="fill:#f9a035;fill-opacity:1;fill-rule:nonzero;stroke:none;stroke-width:10.5322"
       d="m 551.98852,793.21145 73.05866,23.26533 -41.16799,-55.71333 z" /><path
       id="path202"
       style="fill:#f9a035;fill-opacity:1;fill-rule:nonzero;stroke:none;stroke-width:10.5322"
       d="m 823.43185,638.52878 6.05067,-6.17467 -6.02667,-8.064 z" /><path
       id="path206"
       style="fill:#f9a035;fill-opacity:1;fill-rule:nonzero;stroke:none;stroke-width:10.5322"
       d="m 751.64971,785.79798 2.112,3.91067 15.77333,-21.416 -12.24,-3.89067 z" /><path
       id="path210"
       style="fill:#f9a035;fill-opacity:1;fill-rule:nonzero;stroke:none;stroke-width:10.5322"
       d="m 847.00025,815.83025 36.05867,-11.448 -22.28267,-7.084 z" /><path
       id="path214"
       style="fill:#f9a035;fill-opacity:1;fill-rule:nonzero;stroke:none;stroke-width:10.5322"
       d="m 715.60078,541.19572 -2.93067,-5.352 -14.72,20.21067 12.30934,3.86 z" /><path
       id="path218"
       style="fill:#f9a035;fill-opacity:1;fill-rule:nonzero;stroke:none;stroke-width:10.5322"
       d="m 913.74664,546.35679 -0.009,-15.83733 -61.78,-19.704 41.60933,56.136 z" /><path
       id="path222"
       style="fill:#f9a035;fill-opacity:1;fill-rule:nonzero;stroke:none;stroke-width:10.5322"
       d="m 619.75665,510.77452 -32.87467,10.448 20.38667,6.39333 z" /><path
       id="path226"
       style="fill:#f9a035;fill-opacity:1;fill-rule:nonzero;stroke:none;stroke-width:10.5322"
       d="m 675.21078,587.27839 -5.20533,1.68133 2.95733,1.404 z" /><path
       id="path230"
       style="fill:#f9a035;fill-opacity:1;fill-rule:nonzero;stroke:none;stroke-width:10.5322"
       d="m 790.26931,740.13985 0.74,-0.236 -0.41867,-0.2 z" /><path
       id="path234"
       style="fill:#f9a035;fill-opacity:1;fill-rule:nonzero;stroke:none;stroke-width:10.5322"
       d="m 614.74638,645.56838 -4.01467,0.69867 10.92,14.552 5.09334,-6.992 z" /><path
       id="path238"
       style="fill:#f9a035;fill-opacity:1;fill-rule:nonzero;stroke:none;stroke-width:10.5322"
       d="m 797.95785,871.54038 6.172,1.96533 42.87067,-57.676 -67.548,21.44667 z" /><path
       id="path242"
       style="fill:#f9a035;fill-opacity:1;fill-rule:nonzero;stroke:none;stroke-width:10.5322"
       d="m 547.56625,762.54438 18.67867,-25.64667 -18.684,-25.28533 z" /><path
       id="path246"
       style="fill:#f9a035;fill-opacity:1;fill-rule:nonzero;stroke:none;stroke-width:10.5322"
       d="m 913.77411,594.21492 -0.0133,-21.748 -8.028,10.9 z" /><path
       id="path250"
       style="fill:#f9a035;fill-opacity:1;fill-rule:nonzero;stroke:none;stroke-width:10.5322"
       d="m 863.04571,687.57372 6.816,-1.19333 -20.14667,-26.95467 -10.27333,13.95067 z" /><path
       id="path254"
       style="fill:#f9a035;fill-opacity:1;fill-rule:nonzero;stroke:none;stroke-width:10.5322"
       d="m 666.59092,451.69732 -2.44933,-0.78133 -44.38534,59.85866 67.448,-21.436 z" /><path
       id="path258"
       style="fill:#f9a035;fill-opacity:1;fill-rule:nonzero;stroke:none;stroke-width:10.5322"
       d="m 759.00211,620.45052 -13.31733,-24.32 -19.26534,19.60267 16.01867,7.60133 z" /><path
       id="path262"
       style="fill:#f9a035;fill-opacity:1;fill-rule:nonzero;stroke:none;stroke-width:10.5322"
       d="m 736.52958,757.80025 20.76533,6.60133 3.94934,-14.97333 -24.928,7.97733 z" /><path
       id="path266"
       style="fill:#f9a035;fill-opacity:1;fill-rule:nonzero;stroke:none;stroke-width:10.5322"
       d="m 643.95478,576.59665 26.05067,12.364 5.20533,-1.68267 22.74,-31.224 -90.68267,-28.43866 -17.31466,23.35333 48.16266,22.85733 -0.104,-12.34133 z" /><path
       id="path270"
       style="fill:#f9a035;fill-opacity:1;fill-rule:nonzero;stroke:none;stroke-width:10.5322"
       d="m 819.51131,753.46998 -28.50133,-13.56667 -0.74,0.236 -20.736,28.15334 91.24133,29.00533 13.27867,-17.864 -50.81467,-24.18933 -0.0133,7.704 z" /><path
       id="path274"
       style="fill:#f9a035;fill-opacity:1;fill-rule:nonzero;stroke:none;stroke-width:10.5322"
       d="m 712.79745,713.85865 11.54,21.368 20.36667,-16.34933 0.67733,-0.69334 -15.40133,-7.332 z" /><path
       id="path278"
       style="fill:#f9a035;fill-opacity:1;fill-rule:nonzero;stroke:none;stroke-width:10.5322"
       d="m 729.08465,565.81839 -18.82533,-5.904 -5.04267,17.668 25.75333,-8.32133 z" /><path
       id="path282"
       style="fill:#f9a035;fill-opacity:1;fill-rule:nonzero;stroke:none;stroke-width:10.5322"
       d="m 743.33651,976.55958 c 2.972,4.02133 8.64133,4.87067 12.66,1.89733 l 59.56533,-44.06933 c 4.03733,-2.98667 4.86933,-8.68933 1.85467,-12.70667 l -24.66533,-32.86666 -57.29467,77.08133 z" /><path
       id="path286"
       style="fill:#f9a035;fill-opacity:1;fill-rule:nonzero;stroke:none;stroke-width:10.5322"
       d="m 732.15918,349.18946 c -2.94267,-3.97067 -8.52667,-4.84533 -12.544,-1.96533 l -59.716,42.82133 c -4.11733,2.95333 -5.008,8.712 -1.97333,12.772 l 21.024,28.12933 56.916,-76.75733 z" /><path
       id="path290"
       style="fill:#f9a035;fill-opacity:1;fill-rule:nonzero;stroke:none;stroke-width:10.5322"
       d="m 670.65758,635.83318 -12.53733,-23.21467 -0.48,-1.216 -18.99334,26.08134 0.032,3.91733 z" /><path
       id="path294"
       style="fill:#f9a035;fill-opacity:1;fill-rule:nonzero;stroke:none;stroke-width:10.5322"
       d="m 913.89091,798.39638 51.46933,24.50133 c 3.02667,1.44 6.60134,1.08934 9.29067,-0.90933 l 62.34269,-46.35867 c 4.0053,-2.98 4.8426,-8.64 1.8693,-12.65066 l -4.8387,-6.528 -120.13596,38.14266 z" /><path
       id="path298"
       style="fill:#f9a035;fill-opacity:1;fill-rule:nonzero;stroke:none;stroke-width:10.5322"
       d="m 547.54185,530.84105 -46.628,-22.128 c -2.956,-1.40267 -6.43733,-1.10133 -9.108,0.788 l -53.91466,38.15333 c -4.13867,2.92934 -5.064,8.68667 -2.05067,12.76534 l 5.26933,7.12933 106.432,-33.824 z" /><path
       id="path302"
       style="fill:#f9a035;fill-opacity:1;fill-rule:nonzero;stroke:none;stroke-width:10.5322"
       d="m 798.13358,698.92932 7.81067,19.928 17.39466,-23.61733 v -0.72 z" /><path
       id="path306"
       style="fill:#f9a035;fill-opacity:1;fill-rule:nonzero;stroke:none;stroke-width:10.5322"
       d="m 954.18424,671.62932 -15.656,21.064 38.98933,-12.47733 -8.312,-11.21467 z" /><path
       id="path310"
       style="fill:#f9a035;fill-opacity:1;fill-rule:nonzero;stroke:none;stroke-width:10.5322"
       d="m 498.00079,644.54158 11.264,15.244 18.41333,-24.83333 z" /><path
       id="path314"
       style="fill:#f9a035;fill-opacity:1;fill-rule:nonzero;stroke:none;stroke-width:10.5322"
       d="m 691.37105,674.18572 -7.944,-14.70933 -19.56267,19.904 25.05334,11.92533 z" /><path
       id="path318"
       style="fill:#f9a035;fill-opacity:1;fill-rule:nonzero;stroke:none;stroke-width:10.5322"
       d="m 677.19852,773.06878 4.60133,-32.10133 -0.55733,-0.74267 -41.84933,-13.30267 0.788,94.37467 28.792,9.168 7.736,-53.984 -6.25467,2.00267 z" /><path
       id="path322"
       style="fill:#f9a035;fill-opacity:1;fill-rule:nonzero;stroke:none;stroke-width:10.5322"
       d="m 663.74705,716.91172 -15.92,-21.21333 -8.62133,8.772 0.116,13.908 z" /><path
       id="path326"
       style="fill:#f9a035;fill-opacity:1;fill-rule:nonzero;stroke:none;stroke-width:10.5322"
       d="m 795.36491,553.10839 -4.10667,28.10533 4.00667,5.35867 28.23867,8.856 0.15333,-93.63733 -19.868,-6.33734 -7.70933,52.76667 9.37866,-3.03067 z" /><path
       id="path330"
       style="fill:#f9a035;fill-opacity:1;fill-rule:nonzero;stroke:none;stroke-width:10.5322"
       d="m 823.47758,610.68838 -9.83067,0.48 9.808,13.12267 z" /><path
       id="path334"
       style="fill:#f9a035;fill-opacity:1;fill-rule:nonzero;stroke:none;stroke-width:10.5322"
       d="m 788.45131,674.22838 v 0 l 19.43467,-19.83333 -25.548,-12.124 -2.39867,16.41333 z" /><path
       id="path338"
       style="fill:#f9a035;fill-opacity:1;fill-rule:nonzero;stroke:none;stroke-width:10.5322"
       d="m 795.36491,553.10839 0.71467,-4.888 -23.74534,7.67333 7.2,9.63334 z" /><path
       id="path342"
       style="fill:#f9a035;fill-opacity:1;fill-rule:nonzero;stroke:none;stroke-width:10.5322"
       d="m 735.99638,473.83279 -32.816,-10.46533 12.62,16.884 z" /><path
       id="path346"
       style="fill:#f9a035;fill-opacity:1;fill-rule:nonzero;stroke:none;stroke-width:10.5322"
       d="m 913.77411,594.21492 0.048,84.47466 40.36267,-7.06 8.496,-11.43066 z" /><path
       id="path350"
       style="fill:#f9a035;fill-opacity:1;fill-rule:nonzero;stroke:none;stroke-width:10.5322"
       d="m 734.84051,851.44038 39.24267,12.49733 -15.124,-20.15466 z" /><path
       id="path354"
       style="fill:#f9a035;fill-opacity:1;fill-rule:nonzero;stroke:none;stroke-width:10.5322"
       d="m 677.19852,773.06878 -0.48933,3.412 25.596,-8.19067 -7.20134,-9.59466 z" /><path
       id="path358"
       style="fill:#f9a035;fill-opacity:1;fill-rule:nonzero;stroke:none;stroke-width:10.5322"
       d="m 511.98145,663.46238 35.58,48.15067 -0.007,-54.34534 z" /><path
       id="path362"
       style="fill:#f9a035;fill-opacity:1;fill-rule:nonzero;stroke:none;stroke-width:10.5322"
       d="m 819.51131,753.46998 3.728,1.77467 0.0427,-25.66934 -11.672,3.73467 z" /><path
       id="path366"
       style="fill:#f9a035;fill-opacity:1;fill-rule:nonzero;stroke:none;stroke-width:10.5322"
       d="m 643.95478,576.59665 -5.83867,-2.77067 0.21067,25.37067 12.87867,-4.16133 z" /><path
       id="path370"
       style="fill:#f9a035;fill-opacity:1;fill-rule:nonzero;stroke:none;stroke-width:10.5322"
       d="m 527.67852,634.95158 19.87333,-6.42267 -10e-4,-20.376 z" /><path
       id="path374"
       style="fill:#f9a035;fill-opacity:1;fill-rule:nonzero;stroke:none;stroke-width:10.5322"
       d="m 809.84625,454.00092 -2.18267,-2.944 -71.66666,22.776 67.792,21.62133 z" /><path
       id="path378"
       style="fill:#f9a035;fill-opacity:1;fill-rule:nonzero;stroke:none;stroke-width:10.5322"
       d="m 663.51652,868.53705 3.32,4.49467 68.004,-21.592 -65.868,-20.97467 z" /><path
       id="path382"
       style="fill:#f9a035;fill-opacity:1;fill-rule:nonzero;stroke:none;stroke-width:10.5322"
       d="m 913.84931,725.89465 24.67867,-33.20133 -24.69334,7.90266 z" /><path
       id="path386"
       style="fill:#f9a035;fill-opacity:1;fill-rule:nonzero;stroke:none;stroke-width:10.5322"
       d="m 638.64692,637.48372 -3.272,4.49333 3.304,-0.576 z" /><path
       id="path390"
       style="fill:#f9a035;fill-opacity:1;fill-rule:nonzero;stroke:none;stroke-width:10.5322"
       d="m 823.33838,695.24038 0.608,-0.82667 -0.60667,0.10667 z" /><path
       id="path394"
       style="fill:#f9a035;fill-opacity:1;fill-rule:nonzero;stroke:none;stroke-width:10.5322"
       d="m 695.19505,647.50318 2.34267,-16.35067 -26.88,4.68 12.76933,23.644 z" /><path
       id="path398"
       style="fill:#f9a035;fill-opacity:1;fill-rule:nonzero;stroke:none;stroke-width:10.5322"
       d="m 616.77772,719.73212 7.89333,-0.47467 14.53467,-14.788 -0.17067,-20.488 -17.38266,-23.16266 -55.408,76.07866 17.63466,23.86534 38.55867,-39.232 z" /><path
       id="path402"
       style="fill:#f9a035;fill-opacity:1;fill-rule:nonzero;stroke:none;stroke-width:10.5322"
       d="m 638.85318,662.16225 -0.17333,-20.76133 -3.30534,0.576 -8.63066,11.85066 z" /><path
       id="path406"
       style="fill:#f9a035;fill-opacity:1;fill-rule:nonzero;stroke:none;stroke-width:10.5322"
       d="m 775.77891,687.16238 -2.35067,16.08933 24.70534,-4.32266 -9.68267,-24.7 z" /><path
       id="path410"
       style="fill:#f9a035;fill-opacity:1;fill-rule:nonzero;stroke:none;stroke-width:10.5322"
       d="m 823.39011,663.72038 -0.0507,30.8 0.60667,-0.10667 15.496,-21.03733 z" /><path
       id="path414"
       style="fill:#f9a035;fill-opacity:1;fill-rule:nonzero;stroke:none;stroke-width:10.5322"
       d="m 852.07865,609.29292 -22.596,23.06133 20.232,27.072 56.01867,-76.05866 -12.16667,-16.416 -37.81333,38.59066 9.85466,3.09067 z" /><path
       id="path418"
       style="fill:#f9a035;fill-opacity:1;fill-rule:nonzero;stroke:none;stroke-width:10.5322"
       d="m 851.95771,510.81612 -28.252,-38.11733 -0.048,29.092 z" /><path
       id="path422"
       style="fill:#f9a035;fill-opacity:1;fill-rule:nonzero;stroke:none;stroke-width:10.5322"
       d="m 551.18105,532.56812 -3.63867,1.156 0.008,74.42933 42.40267,-57.18533 z" /><path
       id="path426"
       style="fill:#f9a035;fill-opacity:1;fill-rule:nonzero;stroke:none;stroke-width:10.5322"
       d="m 909.09798,796.11518 4.79067,-1.52133 -0.04,-68.69867 -39.79467,53.53867 z" /><path
       id="path430"
       style="fill:#f9a035;fill-opacity:1;fill-rule:nonzero;stroke:none;stroke-width:10.5322"
       d="m 852.07865,609.29292 3.67467,-3.75067 -32.25067,-10.11466 -0.0253,15.26133 z" /><path
       id="path434"
       style="fill:#f9a035;fill-opacity:1;fill-rule:nonzero;stroke:none;stroke-width:10.5322"
       d="m 624.67145,719.25785 -2.23333,2.27333 16.956,5.39067 -0.072,-8.544 z" /><path
       id="path438"
       style="fill:#f9a035;fill-opacity:1;fill-rule:nonzero;stroke:none;stroke-width:10.5322"
       d="m 625.04718,816.47665 15.26667,20.66 -0.132,-15.84 z" /><path
       id="path442"
       style="fill:#f9a035;fill-opacity:1;fill-rule:nonzero;stroke:none;stroke-width:10.5322"
       d="m 791.00971,739.90331 20.6,-6.59333 -5.66533,-14.452 -15.35334,20.84533 z" /><path
       id="path446"
       style="fill:#f9a035;fill-opacity:1;fill-rule:nonzero;stroke:none;stroke-width:10.5322"
       d="m 745.38211,718.18385 21.416,10.19467 6.62933,-25.12667 -16.188,2.832 z" /><path
       id="path450"
       style="fill:#f9a035;fill-opacity:1;fill-rule:nonzero;stroke:none;stroke-width:10.5322"
       d="m 670.00558,588.96025 -18.8,6.07467 6.436,16.368 15.32133,-21.03867 z" /><path
       id="path454"
       style="fill:#f9a035;fill-opacity:1;fill-rule:nonzero;stroke:none;stroke-width:10.5322"
       d="m 877.04878,695.99612 -14.00267,-8.42267 -39.09866,6.84 -0.60934,0.82667 -0.056,34.33467 90.55334,-28.97867 -0.0133,-21.90533 -43.96,7.69066 z" /><path
       id="path458"
       style="fill:#f9a035;fill-opacity:1;fill-rule:nonzero;stroke:none;stroke-width:10.5322"
       d="m 726.41972,615.73265 -24.97333,-11.85067 -3.908,27.27067 16.55866,-2.88267 z" /><path
       id="path462"
       style="fill:#f9a035;fill-opacity:1;fill-rule:nonzero;stroke:none;stroke-width:10.5322"
       d="m 605.35652,639.10465 9.38933,6.464 20.628,-3.592 3.27334,-4.49333 -0.32,-38.28667 -90.77467,29.33333 0.003,28.73734 63.176,-11 z" /><path
       id="path466"
       style="fill:#f9a035;fill-opacity:1;fill-rule:nonzero;stroke:none;stroke-width:10.5322"
       d="m 729.98052,710.85225 27.25867,-4.768 18.54,-18.92133 4.16,-28.47867 -12.98667,-23.716 -24.51333,-11.63333 -28.34134,4.93467 -18.90266,19.23333 -3.824,26.68266 13.29333,24.616 z" /></g></svg>
