<?xml version="1.0" encoding="UTF-8" standalone="no"?>
<svg
   width="100"
   height="100"
   viewBox="0 0 100 100"
   version="1.1"
   id="svg8"
   sodipodi:docname="nu-invest-.svg"
   style="fill:none"
   inkscape:export-filename="C:\Users\alex\sites\nu-invest-logo-0.png"
   inkscape:export-xdpi="561.73712"
   inkscape:export-ydpi="561.73712"
   inkscape:version="1.1.2 (b8e25be833, 2022-02-05)"
   xmlns:inkscape="http://www.inkscape.org/namespaces/inkscape"
   xmlns:sodipodi="http://sodipodi.sourceforge.net/DTD/sodipodi-0.dtd"
   xmlns="http://www.w3.org/2000/svg"
   xmlns:svg="http://www.w3.org/2000/svg"
   xmlns:rdf="http://www.w3.org/1999/02/22-rdf-syntax-ns#"
   xmlns:cc="http://creativecommons.org/ns#"
   xmlns:dc="http://purl.org/dc/elements/1.1/">
  <metadata
     id="metadata14">
    <rdf:RDF>
      <cc:Work
         rdf:about="">
        <dc:format>image/svg+xml</dc:format>
        <dc:type
           rdf:resource="http://purl.org/dc/dcmitype/StillImage" />
      </cc:Work>
    </rdf:RDF>
  </metadata>
  <defs
     id="defs12" />
  <sodipodi:namedview
     pagecolor="#ffffff"
     bordercolor="#666666"
     borderopacity="1"
     objecttolerance="10"
     gridtolerance="10"
     guidetolerance="10"
     inkscape:pageopacity="0"
     inkscape:pageshadow="2"
     inkscape:window-width="1920"
     inkscape:window-height="1057"
     id="namedview10"
     showgrid="false"
     inkscape:zoom="8.48"
     inkscape:cx="65.566038"
     inkscape:cy="50"
     inkscape:window-x="-8"
     inkscape:window-y="-8"
     inkscape:window-maximized="1"
     inkscape:current-layer="svg8"
     inkscape:pagecheckerboard="0"
     width="100px" />
  <g
     id="g993"
     transform="matrix(1.7212579,0,0,1.7212579,8.8795024,-48.681173)">
    <g
       id="g974"
       transform="translate(-42.871388,16)">
      <path
         id="path938"
         style="fill:#4c0677;stroke-width:0.610689"
         d="m 70.679688,47.322266 c -2.487331,0 -4.453126,1.939049 -4.453126,4.445312 0,2.577105 1.965531,4.527344 4.488282,4.527344 2.119698,0 3.766546,-1.195163 4.085937,-3.015625 h -1.976562 c -0.177709,0.745041 -1.006005,1.230469 -2.072266,1.230469 -1.397255,0 -2.274277,-0.793364 -2.523437,-2.070313 h 6.621093 c 0.03542,-0.153282 0.05859,-0.58972 0.05859,-0.814453 0,-2.517867 -1.895687,-4.302734 -4.228515,-4.302734 z m -0.09375,1.773437 c 1.184122,0 2.011742,0.684756 2.189453,1.677735 h -4.488282 c 0.28458,-1.06382 1.125696,-1.677735 2.298829,-1.677735 z" />
      <path
         style="fill:#4c0677;stroke-width:0.610689"
         d="m 89.987787,49.384526 v -1.88275 h -2.253439 v -2.323058 h -1.970692 v 2.323668 h -1.640308 v 1.882751 h 1.640308 v 3.538326 c 0,2.204584 1.262293,3.37161 3.174356,3.37161 0.318781,0 0.755422,-0.03542 1.061988,-0.107481 v -1.834507 a 2.7456535,2.7456535 0 0 1 -0.637558,0.07145 c -0.955727,0 -1.616491,-0.440917 -1.616491,-1.548705 v -3.502906 h 2.241836 v 0.01221 z"
         id="path944" />
      <path
         style="fill:#4c0677;stroke-width:0.610689"
         d="m 80.139831,56.294461 c 1.893133,0 3.316035,-1.158474 3.316035,-2.718782 0,-3.5939 -4.985657,-1.998171 -4.985657,-3.735579 0,-0.543513 0.54107,-0.88672 1.316644,-0.88672 0.894048,0 1.493131,0.472673 1.576186,1.06382 h 1.963362 c -0.188092,-1.749622 -1.739851,-2.695578 -3.504128,-2.695578 -1.998782,0 -3.245196,1.146872 -3.245196,2.647943 0,3.27512 4.96184,1.785653 4.96184,3.629931 0,0.602748 -0.564276,1.004582 -1.504736,1.004582 -0.964276,0 -1.70504,-0.49649 -1.775881,-1.253132 h -1.880919 c 0.188093,1.856491 1.657408,2.943515 3.76245,2.943515 z"
         id="path942" />
      <path
         style="fill:#4c0677;stroke-width:0.610689"
         d="m 65.692783,47.589714 h -2.156951 l -2.323056,5.960316 -2.335271,-5.960316 h -2.133134 l 3.626877,8.571007 h 1.694659 z"
         id="path936" />
      <path
         style="fill:#4c0677;stroke-width:0.610689"
         d="m 52.564822,47.321622 c -1.128552,0 -2.036034,0.570382 -2.570998,1.54504 v -1.367329 h -1.929773 v 8.660777 h 1.930385 v -4.692526 c 0,-1.366721 0.837253,-2.245501 2.093438,-2.245501 1.23298,0 2.047026,0.890995 2.047026,2.245501 v 4.692526 h 1.941988 v -4.942298 c 0.01222,-2.411607 -1.337407,-3.89619 -3.511456,-3.89619 z"
         id="path2" />
      <path
         style="fill:#4c0677;stroke-width:0.610689"
         d="m 43.522364,45.095053 c 0,-0.671756 0.564276,-1.255575 1.25191,-1.255575 0.687635,0 1.26901,0.583819 1.26901,1.255575 a 1.2769487,1.2769487 0 0 1 -1.26901,1.272675 c -0.687634,0 -1.25191,-0.565498 -1.25191,-1.272675 z"
         id="path834" />
      <path
         style="fill:#4c0677;stroke-width:0.610689"
         d="m 43.786792,47.516432 v 8.644289 h 1.957255 v -8.644289 z"
         id="path832" />
    </g>
    <g
       id="g979">
      <path
         style="fill:#4c0677;stroke-width:0.610689"
         d="m 10.015742,48.644373 c -0.03542,0.681527 0,1.374047 0,2.043972 v 6.543522 h 3.705045 v -5.990849 c 0,-1.868706 -0.0116,-3.524892 0,-3.865655 0.07145,-1.620766 0.511146,-2.677867 1.353896,-3.535885 h -0.189314 c -1.805805,0 -3.504128,1.022293 -4.323672,2.60764 -0.367023,0.694351 -0.497711,1.44611 -0.545344,2.197257 z"
         id="path946" />
      <path
         d="m 18.404764,42.3665 c -1.392369,0 -2.570996,0.540458 -3.463212,1.457102 2.772523,0 4.557564,1.856492 4.665046,4.82993 0.02382,0.681528 0.03542,4.324284 0.03542,4.324284 v 4.254053 h 3.712984 v -5.746575 c 0,-1.739238 0.0122,-3.242753 -0.10687,-4.27726 C 22.903093,44.29383 21.105837,42.3665 18.404764,42.3665 Z m 19.358811,8.989327 c 0.03603,-0.681528 0,-1.374659 0,-2.043973 v -6.543522 h -3.705044 v 5.990851 c 0,1.868704 0.0116,3.52428 0,3.865655 -0.07145,1.620766 -0.511145,2.677866 -1.353895,3.535883 h 0.189313 c 1.805805,0 3.504129,-1.022291 4.323671,-2.608248 0.367634,-0.693131 0.498322,-1.433285 0.545955,-2.196646 z"
         id="path4"
         inkscape:connector-curvature="0"
         style="fill:#4c0677;stroke-width:0.610689"
         inkscape:export-filename="C:\Users\alex\sites\nu-invest-logo-4.png"
         inkscape:export-xdpi="74.161247"
         inkscape:export-ydpi="74.161247" />
      <path
         style="fill:#4c0677;stroke-width:0.610689"
         d="m 29.375165,57.633701 c 1.392368,0 2.570386,-0.54046 3.462601,-1.457102 -2.772524,0 -4.557565,-1.856492 -4.665047,-4.830542 -0.02382,-0.680918 -0.03542,-2.373134 -0.03542,-4.323672 v -4.254053 h -3.712984 v 5.746574 c 0,1.738629 -0.01221,3.242755 0.106871,4.277259 0.345039,2.902601 2.142293,4.841536 4.843366,4.841536 z"
         id="path6" />
    </g>
  </g>
</svg>
