<?xml version="1.0" encoding="UTF-8" standalone="no"?>
<svg
   width="100"
   height="100"
   viewBox="0 0 100 100"
   version="1.1"
   id="svg12"
   sodipodi:docname="outlook.svg"
   inkscape:version="1.1.2 (b8e25be833, 2022-02-05)"
   xmlns:inkscape="http://www.inkscape.org/namespaces/inkscape"
   xmlns:sodipodi="http://sodipodi.sourceforge.net/DTD/sodipodi-0.dtd"
   xmlns="http://www.w3.org/2000/svg"
   xmlns:svg="http://www.w3.org/2000/svg"
   xmlns:rdf="http://www.w3.org/1999/02/22-rdf-syntax-ns#"
   xmlns:cc="http://creativecommons.org/ns#"
   xmlns:dc="http://purl.org/dc/elements/1.1/">
  <defs
     id="defs16" />
  <sodipodi:namedview
     id="namedview14"
     pagecolor="#ffffff"
     bordercolor="#666666"
     borderopacity="1.0"
     inkscape:pageshadow="2"
     inkscape:pageopacity="0.0"
     inkscape:pagecheckerboard="0"
     showgrid="false"
     width="100px"
     inkscape:zoom="8.48"
     inkscape:cx="50"
     inkscape:cy="50"
     inkscape:window-width="1920"
     inkscape:window-height="1057"
     inkscape:window-x="-8"
     inkscape:window-y="-8"
     inkscape:window-maximized="1"
     inkscape:current-layer="svg12" />
  <title
     id="title2">file_type_outlook</title>
  <g
     id="g839"
     transform="matrix(2.8878781,0,0,2.857143,3.7823983,4.285714)">
    <path
       d="m 19.484,7.937 v 5.477 l 1.916,1.205 a 0.489,0.489 0 0 0 0.21,0 L 29.848,9.065 A 1.174,1.174 0 0 0 28.889,7.937 Z"
       style="fill:#0072c6"
       id="path4" />
    <path
       d="m 19.484,15.457 1.747,1.2 a 0.522,0.522 0 0 0 0.543,0 c -0.3,0.181 8.073,-5.378 8.073,-5.378 v 10.066 a 1.408,1.408 0 0 1 -1.49,1.555 h -8.874 v -7.443 z"
       style="fill:#0072c6"
       id="path6" />
    <path
       d="M 10.44,12.932 A 1.609,1.609 0 0 0 9.02,13.77 4.131,4.131 0 0 0 8.494,15.988 4.05,4.05 0 0 0 9.02,18.2 a 1.6,1.6 0 0 0 2.771,0.022 4.014,4.014 0 0 0 0.515,-2.2 4.369,4.369 0 0 0 -0.5,-2.281 1.536,1.536 0 0 0 -1.366,-0.809 z"
       style="fill:#0072c6"
       id="path8" />
    <path
       d="M 2.153,5.155 V 26.582 L 18.453,30 V 2 Z m 10.908,14.336 a 3.231,3.231 0 0 1 -2.7,1.361 3.19,3.19 0 0 1 -2.64,-1.318 5.459,5.459 0 0 1 -1.015,-3.434 5.868,5.868 0 0 1 1.036,-3.616 3.267,3.267 0 0 1 2.744,-1.384 3.116,3.116 0 0 1 2.61,1.321 5.639,5.639 0 0 1 1,3.484 5.763,5.763 0 0 1 -1.035,3.586 z"
       style="fill:#0072c6"
       id="path10" />
  </g>
  <metadata
     id="metadata833">
    <rdf:RDF>
      <cc:Work
         rdf:about="">
        <dc:title>file_type_outlook</dc:title>
      </cc:Work>
    </rdf:RDF>
  </metadata>
</svg>
