<?xml version="1.0" encoding="UTF-8" standalone="no"?>
<svg
   width="100"
   height="100"
   viewBox="-23 0 100 100"
   version="1.1"
   preserveAspectRatio="xMidYMid"
   id="svg12"
   sodipodi:docname="paypal.svg"
   inkscape:version="1.1.2 (b8e25be833, 2022-02-05)"
   xmlns:inkscape="http://www.inkscape.org/namespaces/inkscape"
   xmlns:sodipodi="http://sodipodi.sourceforge.net/DTD/sodipodi-0.dtd"
   xmlns="http://www.w3.org/2000/svg"
   xmlns:svg="http://www.w3.org/2000/svg">
  <defs
     id="defs16" />
  <sodipodi:namedview
     id="namedview14"
     pagecolor="#ffffff"
     bordercolor="#666666"
     borderopacity="1.0"
     inkscape:pageshadow="2"
     inkscape:pageopacity="0.0"
     inkscape:pagecheckerboard="0"
     showgrid="false"
     width="100px"
     inkscape:zoom="8.48"
     inkscape:cx="50"
     inkscape:cy="50"
     inkscape:window-width="1920"
     inkscape:window-height="1057"
     inkscape:window-x="-8"
     inkscape:window-y="-8"
     inkscape:window-maximized="1"
     inkscape:current-layer="svg12" />
  <g
     id="g10"
     transform="matrix(0.26584114,0,0,0.26584096,-6.9069043,9.7831393)">
    <path
       d="M 217.16848,23.507015 C 203.23408,7.6247965 178.04561,0.81575334 145.82335,0.81575334 H 52.303062 c -6.592619,0 -12.19468,4.79463186 -13.226858,11.29568666 L 0.1364683,259.0766 c -0.77413327,4.86955 2.9966449,9.28128 7.932785,9.28128 H 65.804612 l 14.500432,-91.97203 -0.449497,2.88011 c 1.032178,-6.50106 6.592619,-11.29569 13.176914,-11.29569 h 27.435949 c 53.89799,0 96.10074,-21.89215 108.4286,-85.22125 0.36626,-1.872903 0.68257,-3.695862 0.95726,-5.477201 -1.55659,-0.824078 -1.55659,-0.824078 0,0 3.67089,-23.407127 -0.025,-39.339289 -12.68579,-53.764804"
       fill="#27346a"
       id="path2" />
    <path
       d="m 102.39698,68.839593 c 1.53994,-0.732513 3.25468,-1.14039 5.05267,-1.14039 h 73.31791 c 8.68195,0 16.78122,0.566033 24.18126,1.756367 2.12263,0.341284 4.17866,0.732513 6.17642,1.18201 1.99777,0.441173 3.93726,0.940613 5.81849,1.489998 0.94061,0.274693 1.86458,0.557709 2.77189,0.857374 3.6376,1.215306 7.02547,2.630388 10.13865,4.286867 C 233.52516,53.856368 229.8293,37.93253 217.16848,23.507015 203.22575,7.6247965 178.04561,0.81575334 145.82335,0.81575334 H 52.294738 c -6.584295,0 -12.186356,4.79463186 -13.218534,11.29568666 L 0.1364683,259.06828 c -0.77413327,4.87787 2.9966449,9.28127 7.924461,9.28127 H 65.804612 L 95.887597,77.579807 c 0.615977,-3.912286 3.129829,-7.117031 6.509383,-8.740214 z"
       fill="#27346a"
       id="path4" />
    <path
       d="m 228.89701,82.74902 c -12.32786,63.32077 -54.53061,85.22125 -108.4286,85.22125 H 93.024137 c -6.584295,0 -12.144736,4.79463 -13.16859,11.29569 l -18.038138,114.3553 c -0.674245,4.26189 2.622065,8.12423 6.933904,8.12423 h 48.670507 c 5.76022,0 10.66306,-4.1953 11.56206,-9.8806 l 0.47446,-2.48055 9.17307,-58.13492 0.591,-3.21307 c 0.899,-5.6853 5.80184,-9.8806 11.56206,-9.8806 h 7.28351 c 47.14721,0 84.06421,-19.15356 94.85213,-74.54987 4.5033,-23.14908 2.17257,-42.47744 -9.73909,-56.053904 -3.61262,-4.112063 -8.09927,-7.508261 -13.32675,-10.280157 -0.28301,1.789663 -0.591,3.604298 -0.95726,5.477201 z"
       fill="#2790c3"
       id="path6" />
    <path
       d="m 216.95205,72.127578 c -1.88122,-0.549385 -3.82072,-1.048825 -5.81848,-1.489998 -1.99777,-0.441173 -4.06212,-0.832402 -6.17642,-1.173686 -7.40837,-1.198658 -15.49932,-1.764691 -24.18959,-1.764691 h -73.30958 c -1.80632,0 -3.52106,0.407877 -5.05268,1.148714 -3.387874,1.623183 -5.893402,4.819604 -6.509379,8.740214 l -15.582553,98.797719 -0.449497,2.88011 c 1.023854,-6.50106 6.584295,-11.29569 13.16859,-11.29569 h 27.444269 c 53.89799,0 96.10074,-21.89215 108.42861,-85.22125 0.36625,-1.872903 0.67424,-3.687538 0.95726,-5.477201 -3.12151,-1.648155 -6.50106,-3.071561 -10.13865,-4.278543 -0.90732,-0.299665 -1.83129,-0.591005 -2.7719,-0.865698"
       fill="#1f264f"
       id="path8" />
  </g>
</svg>
