<?xml version="1.0" encoding="UTF-8" standalone="no"?>
<!-- Generator: Adobe Illustrator 18.0.0, SVG Export Plug-In . SVG Version: 6.00 Build 0)  -->

<svg
   version="1.1"
   id="Capa_1"
   x="0px"
   y="0px"
   viewBox="0 0 100 100"
   xml:space="preserve"
   sodipodi:docname="pinterest.svg"
   width="100"
   height="100"
   inkscape:version="1.1.2 (b8e25be833, 2022-02-05)"
   xmlns:inkscape="http://www.inkscape.org/namespaces/inkscape"
   xmlns:sodipodi="http://sodipodi.sourceforge.net/DTD/sodipodi-0.dtd"
   xmlns="http://www.w3.org/2000/svg"
   xmlns:svg="http://www.w3.org/2000/svg"><defs
   id="defs43" /><sodipodi:namedview
   id="namedview41"
   pagecolor="#ffffff"
   bordercolor="#666666"
   borderopacity="1.0"
   inkscape:pageshadow="2"
   inkscape:pageopacity="0.0"
   inkscape:pagecheckerboard="0"
   showgrid="false"
   width="100px"
   inkscape:zoom="3.8815309"
   inkscape:cx="31.946158"
   inkscape:cy="77.546722"
   inkscape:window-width="1920"
   inkscape:window-height="1057"
   inkscape:window-x="-8"
   inkscape:window-y="-8"
   inkscape:window-maximized="1"
   inkscape:current-layer="Capa_1" />
<g
   id="g8"
   transform="matrix(0.7130379,0,0,0.7130379,9.9992874,9.9985747)">
	<circle
   style="fill:#cb2027"
   cx="56.098999"
   cy="56.099998"
   r="56.098"
   id="circle2" />
	<g
   id="g6">
		<path
   style="fill:#f1f2f2"
   d="m 60.627,75.122 c -4.241,-0.328 -6.023,-2.431 -9.349,-4.45 -1.828,9.591 -4.062,18.785 -10.679,23.588 -2.045,-14.496 2.998,-25.384 5.34,-36.941 -3.992,-6.72 0.48,-20.246 8.9,-16.913 10.363,4.098 -8.972,24.987 4.008,27.596 13.551,2.724 19.083,-23.513 10.679,-32.047 -12.142,-12.321 -35.343,-0.28 -32.49,17.358 0.695,4.312 5.151,5.621 1.78,11.571 -7.771,-1.721 -10.089,-7.85 -9.791,-16.021 0.481,-13.375 12.018,-22.74 23.59,-24.036 14.635,-1.638 28.371,5.374 30.267,19.14 2.133,15.537 -6.607,32.363 -22.255,31.155 z"
   id="path4" />
	</g>
</g>
<g
   id="g10">
</g>
<g
   id="g12">
</g>
<g
   id="g14">
</g>
<g
   id="g16">
</g>
<g
   id="g18">
</g>
<g
   id="g20">
</g>
<g
   id="g22">
</g>
<g
   id="g24">
</g>
<g
   id="g26">
</g>
<g
   id="g28">
</g>
<g
   id="g30">
</g>
<g
   id="g32">
</g>
<g
   id="g34">
</g>
<g
   id="g36">
</g>
<g
   id="g38">
</g>
</svg>
