<?xml version="1.0" encoding="UTF-8" standalone="no"?>
<svg
   height="100"
   width="100"
   viewBox="-6.003495 -7.75 4.3358575 5.8125"
   version="1.1"
   id="svg4"
   sodipodi:docname="PlayStation-Icon-Logo.wine.svg"
   inkscape:version="1.1.2 (b8e25be833, 2022-02-05)"
   xmlns:inkscape="http://www.inkscape.org/namespaces/inkscape"
   xmlns:sodipodi="http://sodipodi.sourceforge.net/DTD/sodipodi-0.dtd"
   xmlns="http://www.w3.org/2000/svg"
   xmlns:svg="http://www.w3.org/2000/svg">
  <defs
     id="defs8" />
  <sodipodi:namedview
     id="namedview6"
     pagecolor="#ffffff"
     bordercolor="#666666"
     borderopacity="1.0"
     inkscape:pageshadow="2"
     inkscape:pageopacity="0.0"
     inkscape:pagecheckerboard="0"
     showgrid="false"
     inkscape:zoom="8.48"
     inkscape:cx="50"
     inkscape:cy="50"
     inkscape:window-width="1920"
     inkscape:window-height="1057"
     inkscape:window-x="-8"
     inkscape:window-y="-8"
     inkscape:window-maximized="1"
     inkscape:current-layer="svg4" />
  <path
     fill="#0070d1"
     d="m -6.0664522,-4.0188611 c -0.1742733,0.1161822 -0.1161822,0.3369284 0.2556008,0.4414924 0.3834013,0.1278004 0.8016572,0.1626551 1.2082949,0.092946 0.023236,0 0.046473,-0.011618 0.058091,-0.011618 v -0.3950199 l -0.3950194,0.1278004 c -0.1510368,0.046473 -0.3020737,0.058091 -0.4531106,0.023236 -0.1161822,-0.034855 -0.092946,-0.104564 0.046473,-0.1626551 l 0.8016571,-0.2788368 v -0.4298742 l -1.1153491,0.3834013 c -0.1394187,0.046473 -0.2788373,0.1161822 -0.4066377,0.2091279 z m 2.6954271,-1.7427329 v 1.1269673 c 0.476347,0.2323644 0.84813,0 0.84813,-0.6041475 0,-0.6157656 -0.2207462,-0.8946029 -0.8597483,-1.115349 -0.3369283,-0.1161822 -0.685475,-0.2207462 -1.0340216,-0.2904555 v 3.3576655 l 0.8132755,0.2439826 V -5.866158 c 0,-0.1278004 0,-0.2207462 0.092946,-0.1858915 0.1278004,0.034855 0.1394187,0.1626551 0.1394184,0.2904555 z m 1.5103686,1.4755139 c -0.3369284,-0.1161822 -0.6970932,-0.1626551 -1.0456398,-0.1278004 -0.1858916,0.011618 -0.3601649,0.058091 -0.5228199,0.1161822 l -0.034855,0.011618 v 0.4531106 l 0.7551843,-0.2788373 c 0.1510369,-0.046473 0.3020737,-0.058091 0.4531106,-0.023236 0.1161822,0.034855 0.092946,0.104564 -0.046473,0.1626551 l -1.1618219,0.4298737 v 0.4414923 l 1.6033144,-0.5925292 c 0.1161822,-0.046473 0.2207461,-0.104564 0.3136919,-0.1975097 0.081327,-0.1161822 0.046473,-0.2788373 -0.3136916,-0.3950193 z"
     id="path2"
     style="stroke-width:0.116182" />
</svg>
