<?xml version="1.0" encoding="UTF-8" standalone="no"?>
<!-- Generator: Adobe Illustrator 16.0.0, SVG Export Plug-In . SVG Version: 6.00 Build 0)  -->

<svg
   version="1.1"
   id="Layer_1"
   x="0px"
   y="0px"
   width="100"
   height="100"
   viewBox="0 0 100 99.999999"
   enable-background="new 0 0 249.999 50.908"
   xml:space="preserve"
   sodipodi:docname="porto-seguro-logo.svg"
   inkscape:version="1.1.2 (b8e25be833, 2022-02-05)"
   inkscape:export-filename="G:\Users\suitedoalex\sites\porto-seguro-logo-0.png"
   inkscape:export-xdpi="561.73712"
   inkscape:export-ydpi="561.73712"
   xmlns:inkscape="http://www.inkscape.org/namespaces/inkscape"
   xmlns:sodipodi="http://sodipodi.sourceforge.net/DTD/sodipodi-0.dtd"
   xmlns="http://www.w3.org/2000/svg"
   xmlns:svg="http://www.w3.org/2000/svg"
   xmlns:rdf="http://www.w3.org/1999/02/22-rdf-syntax-ns#"
   xmlns:cc="http://creativecommons.org/ns#"
   xmlns:dc="http://purl.org/dc/elements/1.1/"><metadata
   id="metadata23"><rdf:RDF><cc:Work
       rdf:about=""><dc:format>image/svg+xml</dc:format><dc:type
         rdf:resource="http://purl.org/dc/dcmitype/StillImage" /></cc:Work></rdf:RDF></metadata><defs
   id="defs21" /><sodipodi:namedview
   pagecolor="#ffffff"
   bordercolor="#666666"
   borderopacity="1"
   objecttolerance="10"
   gridtolerance="10"
   guidetolerance="10"
   inkscape:pageopacity="0"
   inkscape:pageshadow="2"
   inkscape:window-width="1920"
   inkscape:window-height="1057"
   id="namedview19"
   showgrid="false"
   inkscape:zoom="8.48"
   inkscape:cx="50"
   inkscape:cy="50"
   inkscape:window-x="-8"
   inkscape:window-y="-8"
   inkscape:window-maximized="1"
   inkscape:current-layer="Layer_1"
   inkscape:pagecheckerboard="0" />

<g
   id="g849"
   transform="matrix(0.35393216,0,0,0.35396526,-311.67443,-3.8234441)"
   style="stroke-width:2.82527"><path
     d="M 1123.8095,39.053109 H 919.9476 c -6.0945,0 -11.0886,4.965873 -11.0886,11.081542 V 254.0036 c 0,6.09447 4.9871,11.06039 11.0886,11.06039 h 203.8619 c 6.0874,0 11.0815,-4.96592 11.0815,-11.06039 V 50.134651 c 0.01,-6.115669 -4.987,-11.081542 -11.0815,-11.081542 z"
     id="path2-6"
     inkscape:connector-curvature="0"
     style="fill:#009ee2;stroke-width:19.9288"
     inkscape:export-filename="G:\Users\suitedoalex\sites\porto-seguro-logo-4.png"
     inkscape:export-xdpi="125.23907"
     inkscape:export-ydpi="125.23907" /><path
     d="m 1119.7606,173.77365 c -8.1753,-10.36908 -28.1799,-12.54164 -39.0075,-12.54164 -45.1302,0 -88.3136,8.38697 -128.0336,23.72896 0.3457,-11.77275 0.01,-23.55967 -1.319,-35.19141 30.2396,-8.82426 83.5946,-15.91335 118.7155,-12.83788 32.8072,2.87794 45.1655,21.16139 49.6446,36.84197 z"
     id="path4-1"
     inkscape:connector-curvature="0"
     style="fill:#ffffff;stroke-width:19.9288"
     inkscape:export-filename="G:\Users\suitedoalex\sites\porto-seguro-logo-4.png"
     inkscape:export-xdpi="125.23907"
     inkscape:export-ydpi="125.23907" /><path
     d="m 1105.0746,143.83735 c -9.1488,-8.59154 -16.125,-14.7848 -43.8676,-18.79841 -27.7355,-3.99241 -86.4161,2.04562 -112.3882,8.58451 -1.8622,-10.26331 -4.3663,-20.39963 -7.4982,-30.33137 17.7897,-3.12482 36.1014,-4.768388 54.808,-4.768388 18.1636,0 36.0026,1.551858 53.3197,4.507378 36.6868,6.28497 48.3609,26.83268 55.6263,40.80628 z"
     id="path6-9"
     inkscape:connector-curvature="0"
     style="fill:#ffffff;stroke-width:19.9288"
     inkscape:export-filename="G:\Users\suitedoalex\sites\porto-seguro-logo-4.png"
     inkscape:export-xdpi="125.23907"
     inkscape:export-ydpi="125.23907" /><path
     d="m 921.4359,58.331128 c 94.4645,-2.454721 147.5303,38.901712 158.0969,50.293612 -9.1981,-7.66748 -26.9456,-14.199286 -42.2311,-17.147775 -18.7843,-3.604516 -38.1752,-5.480798 -58.0881,-5.480798 -14.552,0 -28.8924,1.015729 -42.9012,2.990801 -3.5692,-9.318078 -10.1857,-21.83153 -14.8765,-30.65584 z"
     id="path8-5"
     inkscape:connector-curvature="0"
     style="fill:#ffffff;stroke-width:19.9288"
     inkscape:export-filename="G:\Users\suitedoalex\sites\porto-seguro-logo-4.png"
     inkscape:export-xdpi="125.23907"
     inkscape:export-ydpi="125.23907" /><path
     d="m 1105.0746,233.63926 c 15.1939,-31.39645 11.6317,-36.88433 -18.2058,-33.25162 -46.3788,5.66421 -104.8407,25.52067 -149.0046,49.36958 8.0555,-15.58892 11.9844,-31.28362 13.5363,-45.44059 42.6402,-18.72078 89.555,-29.49901 138.8752,-30.47243 51.6338,-1.02281 32.2571,38.4785 14.7989,59.79506 z"
     id="path10-1"
     inkscape:connector-curvature="0"
     style="fill:#ffffff;stroke-width:19.9288"
     inkscape:export-filename="G:\Users\suitedoalex\sites\porto-seguro-logo-4.png"
     inkscape:export-xdpi="125.23907"
     inkscape:export-ydpi="125.23907" /></g>
</svg>
