<?xml version="1.0" encoding="UTF-8" standalone="no"?>
<svg
   version="1.1"
   id="Icons"
   x="0px"
   y="0px"
   viewBox="0 0 100 100"
   xml:space="preserve"
   sodipodi:docname="reddit.svg"
   width="100"
   height="100"
   inkscape:version="1.1.2 (b8e25be833, 2022-02-05)"
   xmlns:inkscape="http://www.inkscape.org/namespaces/inkscape"
   xmlns:sodipodi="http://sodipodi.sourceforge.net/DTD/sodipodi-0.dtd"
   xmlns="http://www.w3.org/2000/svg"
   xmlns:svg="http://www.w3.org/2000/svg"><defs
   id="defs15" /><sodipodi:namedview
   id="namedview13"
   pagecolor="#ffffff"
   bordercolor="#666666"
   borderopacity="1.0"
   inkscape:pageshadow="2"
   inkscape:pageopacity="0.0"
   inkscape:pagecheckerboard="0"
   showgrid="false"
   width="100px"
   inkscape:zoom="8.48"
   inkscape:cx="50"
   inkscape:cy="50"
   inkscape:window-width="1920"
   inkscape:window-height="1057"
   inkscape:window-x="-8"
   inkscape:window-y="-8"
   inkscape:window-maximized="1"
   inkscape:current-layer="Icons" />
<style
   type="text/css"
   id="style2">
	.st0{fill:#FFFFFF;}
	.st1{fill:#3A559F;}
	.st2{fill:#F4F4F4;}
	.st3{fill:#FF0084;}
	.st4{fill:#0063DB;}
	.st5{fill:#00ACED;}
	.st6{fill:#FFEC06;}
	.st7{fill:#FF0000;}
	.st8{fill:#25D366;}
	.st9{fill:#0088FF;}
	.st10{fill:#314358;}
	.st11{fill:#EE6996;}
	.st12{fill:#01AEF3;}
	.st13{fill:#FFFEFF;}
	.st14{fill:#F06A35;}
	.st15{fill:#00ADEF;}
	.st16{fill:#1769FF;}
	.st17{fill:#1AB7EA;}
	.st18{fill:#6001D1;}
	.st19{fill:#E41214;}
	.st20{fill:#05CE78;}
	.st21{fill:#7B519C;}
	.st22{fill:#FF4500;}
	.st23{fill:#00F076;}
	.st24{fill:#FFC900;}
	.st25{fill:#00D6FF;}
	.st26{fill:#FF3A44;}
	.st27{fill:#FF6A36;}
	.st28{fill:#0061FE;}
	.st29{fill:#F7981C;}
	.st30{fill:#EE1B22;}
	.st31{fill:#EF3561;}
	.st32{fill:none;stroke:#FFFFFF;stroke-width:2;stroke-miterlimit:10;}
	.st33{fill:#0097D3;}
	.st34{fill:#01308A;}
	.st35{fill:#019CDE;}
	.st36{fill:#FFD049;}
	.st37{fill:#16A05D;}
	.st38{fill:#4486F4;}
	.st39{fill:none;}
	.st40{fill:#34A853;}
	.st41{fill:#4285F4;}
	.st42{fill:#FBBC05;}
	.st43{fill:#EA4335;}
</style>
<path
   id="path4"
   class="st22"
   d="m 57.53418,17.527339 c -0.972658,-0.02345 -1.910158,0.446288 -2.285158,1.196287 L 48.500977,32.473599 C 41.250978,32.723599 34.25,34.472617 28.75,37.722611 26.5,35.972614 24,34.973594 21.25,34.973594 15,34.973594 10,39.973584 10,46.223572 c 0,3.749993 2,7.501937 5,9.501933 v 1.748045 c 0,13.749972 15.75,24.99995 35,24.99995 19.25,0 35,-11.249978 35,-24.99995 v -1.748045 c 3,-1.999996 5,-5.75194 5,-9.501933 0,-6.249988 -5,-11.249978 -11.25,-11.249978 -2.75,0 -5.250978,0.99902 -7.250978,2.749017 -5,-2.749995 -11.25,-4.499991 -17.5,-4.99999 L 58.75,23.474592 65,26.472633 v 1.000976 c 0,4.249992 3.25,7.499985 7.5,7.499985 4.25,0 7.5,-3.249993 7.5,-7.499985 0,-4.249991 -3.25,-7.499985 -7.5,-7.499985 -2,0 -3.749022,0.751951 -5.249022,2.001948 l -8.75,-4.252921 c -0.3125,-0.125 -0.642581,-0.187499 -0.966798,-0.195312 z M 37.5,44.973575 A 7.5,7.4999851 0 0 1 45,52.47356 7.5,7.4999851 0 0 1 37.5,59.973545 7.5,7.4999851 0 0 1 30,52.47356 7.5,7.4999851 0 0 1 37.5,44.973575 Z m 25,0 A 7.5,7.4999851 0 0 1 70,52.47356 7.5,7.4999851 0 0 1 62.5,59.973545 7.5,7.4999851 0 0 1 55,52.47356 7.5,7.4999851 0 0 1 62.5,44.973575 Z m -25.097655,22.49019 c 0.578062,-8.55e-4 1.159178,0.179699 1.596677,0.507811 1,0.749998 4.750978,2.001949 11.000978,2.001949 6.25,0 10.000977,-1.251951 11.000977,-2.001949 1,-0.749999 2.750975,-0.497069 3.500975,0.502929 0.75,0.999998 0.49707,2.750969 -0.50293,3.500968 C 61.249022,74.225468 55,74.973515 50,74.973515 c -5,0 -11.249023,-0.748047 -13.999023,-2.998042 -1.25,-0.749999 -1.25293,-2.50097 -0.50293,-3.500968 0.421875,-0.703124 1.16107,-1.009643 1.904298,-1.01074 z"
   style="stroke-width:2.5" />



</svg>
