<?xml version="1.0" encoding="UTF-8" standalone="no"?>
<svg
   height="100"
   width="100"
   viewBox="-7.5 -12.5 5.4166667 9.375"
   version="1.1"
   id="svg16"
   sodipodi:docname="Skype-Logo.wine.svg"
   inkscape:version="1.1.2 (b8e25be833, 2022-02-05)"
   xmlns:inkscape="http://www.inkscape.org/namespaces/inkscape"
   xmlns:sodipodi="http://sodipodi.sourceforge.net/DTD/sodipodi-0.dtd"
   xmlns="http://www.w3.org/2000/svg"
   xmlns:svg="http://www.w3.org/2000/svg">
  <defs
     id="defs20" />
  <sodipodi:namedview
     id="namedview18"
     pagecolor="#ffffff"
     bordercolor="#666666"
     borderopacity="1.0"
     inkscape:pageshadow="2"
     inkscape:pageopacity="0.0"
     inkscape:pagecheckerboard="0"
     showgrid="false"
     width="100px"
     inkscape:zoom="8.48"
     inkscape:cx="50"
     inkscape:cy="50"
     inkscape:window-width="1920"
     inkscape:window-height="1057"
     inkscape:window-x="-8"
     inkscape:window-y="-8"
     inkscape:window-maximized="1"
     inkscape:current-layer="svg16" />
  <g
     id="g844"
     transform="matrix(0.15,0,0,0.15,-8.5416666,-11.5625)">
    <circle
       fill="#28a8ea"
       r="14.5"
       cy="14.5"
       cx="14.5"
       id="circle2" />
    <circle
       fill="#28a8ea"
       r="14.5"
       cy="35.5"
       cx="35.5"
       id="circle4" />
    <circle
       fill="#28a8ea"
       r="24"
       cy="25"
       cx="25"
       id="circle6" />
    <path
       fill-rule="evenodd"
       fill="#ffffff"
       d="m 18.776,24.5443 a 7.2937,7.2937 0 0 1 -2.2873,-2.415 6.6719,6.6719 0 0 1 -0.7835,-3.3355 5.9947,5.9947 0 0 1 1.4123,-4.0371 8.501,8.501 0 0 1 3.6814,-2.4607 14.2181,14.2181 0 0 1 4.8206,-0.811 18.7203,18.7203 0 0 1 3.2077,0.246 11.5793,11.5793 0 0 1 2.2235,0.5741 4.3117,4.3117 0 0 1 1.7406,1.1118 2.25,2.25 0 0 1 0.5376,1.4946 2.1653,2.1653 0 0 1 -0.565,1.5585 1.8812,1.8812 0 0 1 -1.4216,0.5924 2.559,2.559 0 0 1 -1.057,-0.2371 19.1342,19.1342 0 0 0 -2.5152,-0.9204 9.13,9.13 0 0 0 -2.4239,-0.3007 5.5322,5.5322 0 0 0 -3.0346,0.7746 2.5251,2.5251 0 0 0 -1.2119,2.2692 2.2815,2.2815 0 0 0 0.6287,1.5948 5.7338,5.7338 0 0 0 1.695,1.212 q 1.0663,0.529 3.1803,1.4036 a 3.2956,3.2956 0 0 1 0.4557,0.1823 22.5888,22.5888 0 0 1 3.9366,2.023 7.9373,7.9373 0 0 1 2.424,2.488 6.5598,6.5598 0 0 1 0.8748,3.4539 6.9475,6.9475 0 0 1 -1.212,4.1648 7.2036,7.2036 0 0 1 -3.3898,2.5153 14.2881,14.2881 0 0 1 -5.094,0.8293 16.0498,16.0498 0 0 1 -6.9437,-1.3123 3.779,3.779 0 0 1 -1.4307,-1.1118 2.4995,2.4995 0 0 1 -0.4648,-1.5129 1.9773,1.9773 0 0 1 0.6104,-1.5401 2.2517,2.2517 0 0 1 1.5765,-0.556 4.0286,4.0286 0 0 1 1.8407,0.474 q 1.0567,0.5288 1.6677,0.793 a 8.382,8.382 0 0 0 1.4398,0.4556 8.2326,8.2326 0 0 0 1.8497,0.1912 4.937,4.937 0 0 0 3.1075,-0.8291 2.7366,2.7366 0 0 0 1.0479,-2.2693 2.4117,2.4117 0 0 0 -0.656,-1.6587 6.9745,6.9745 0 0 0 -1.9318,-1.4033 q -1.276,-0.6743 -3.5905,-1.6404 a 22.2443,22.2443 0 0 1 -3.9458,-2.0506"
       id="path8" />
    <path
       opacity="0.1"
       fill-rule="evenodd"
       d="M 19.03,0.73 A 14.1527,14.1527 0 0 0 17.09,0.23 26.0751,26.0751 0 0 0 0.23,17.09 14.1592,14.1592 0 0 0 0.73,19.03 10.9825,10.9825 0 0 0 1.4,20.7 23.9474,23.9474 0 0 1 20.7,1.4 10.9902,10.9902 0 0 0 19.03,0.73 Z"
       id="path10" />
    <path
       opacity="0.1"
       fill-rule="evenodd"
       d="M 19.03,0.73 A 25.0192,25.0192 0 0 0 0.73,19.03 10.9825,10.9825 0 0 0 1.4,20.7 23.9474,23.9474 0 0 1 20.7,1.4 10.9902,10.9902 0 0 0 19.03,0.73 Z M 49.27,30.97 A 10.9818,10.9818 0 0 0 48.6,29.3 23.9474,23.9474 0 0 1 29.3,48.6 a 10.984,10.984 0 0 0 1.67,0.67 14.1527,14.1527 0 0 0 1.94,0.5 26.0751,26.0751 0 0 0 16.86,-16.86 14.1614,14.1614 0 0 0 -0.5,-1.94 z"
       id="path12" />
    <path
       opacity="0.1"
       fill-rule="evenodd"
       d="M 48.6,29.3 A 23.9474,23.9474 0 0 1 29.3,48.6 10.984,10.984 0 0 0 30.97,49.27 25.019,25.019 0 0 0 49.27,30.97 10.9818,10.9818 0 0 0 48.6,29.3 Z"
       id="path14" />
  </g>
</svg>
