<?xml version="1.0" encoding="UTF-8" standalone="no"?>
<svg
   height="100"
   width="100"
   xml:space="preserve"
   y="0"
   x="0"
   id="Layer_1"
   version="1.1"
   viewBox="-18.42 -30.7 13.303333 23.025"
   sodipodi:docname="slack--.svg"
   inkscape:version="1.1.2 (b8e25be833, 2022-02-05)"
   xmlns:inkscape="http://www.inkscape.org/namespaces/inkscape"
   xmlns:sodipodi="http://sodipodi.sourceforge.net/DTD/sodipodi-0.dtd"
   xmlns="http://www.w3.org/2000/svg"
   xmlns:svg="http://www.w3.org/2000/svg"><defs
     id="defs19" /><sodipodi:namedview
     id="namedview17"
     pagecolor="#ffffff"
     bordercolor="#666666"
     borderopacity="1.0"
     inkscape:pageshadow="2"
     inkscape:pageopacity="0.0"
     inkscape:pagecheckerboard="0"
     showgrid="false"
     inkscape:zoom="8.48"
     inkscape:cx="50"
     inkscape:cy="50"
     inkscape:window-width="1920"
     inkscape:window-height="1057"
     inkscape:window-x="-8"
     inkscape:window-y="-8"
     inkscape:window-maximized="1"
     inkscape:current-layer="Layer_1" /><style
     id="style166"
     type="text/css">.st0{fill:#e01e5a}.st1{fill:#36c5f0}.st2{fill:#2eb67d}.st3{fill:#ecb22e}</style><g
     id="g864"
     transform="matrix(0.15,0,0,0.15,-20.978334,-28.3975)"><path
       id="path168"
       d="M 25.8,77.6 C 25.8,84.7 20,90.5 12.9,90.5 5.8,90.5 0,84.7 0,77.6 0,70.5 5.8,64.7 12.9,64.7 h 12.9 z"
       class="st0" /><path
       id="path170"
       d="m 32.3,77.6 c 0,-7.1 5.8,-12.9 12.9,-12.9 7.1,0 12.9,5.8 12.9,12.9 v 32.3 c 0,7.1 -5.8,12.9 -12.9,12.9 -7.1,0 -12.9,-5.8 -12.9,-12.9 z"
       class="st0" /><path
       id="path174"
       d="M 45.2,25.8 C 38.1,25.8 32.3,20 32.3,12.9 32.3,5.8 38.1,0 45.2,0 52.3,0 58.1,5.8 58.1,12.9 v 12.9 z"
       class="st1" /><path
       id="path176"
       d="m 45.2,32.3 c 7.1,0 12.9,5.8 12.9,12.9 0,7.1 -5.8,12.9 -12.9,12.9 H 12.9 C 5.8,58.1 0,52.3 0,45.2 0,38.1 5.8,32.3 12.9,32.3 Z"
       class="st1" /><path
       id="path180"
       d="m 97,45.2 c 0,-7.1 5.8,-12.9 12.9,-12.9 7.1,0 12.9,5.8 12.9,12.9 0,7.1 -5.8,12.9 -12.9,12.9 H 97 Z"
       class="st2" /><path
       id="path182"
       d="m 90.5,45.2 c 0,7.1 -5.8,12.9 -12.9,12.9 -7.1,0 -12.9,-5.8 -12.9,-12.9 V 12.9 C 64.7,5.8 70.5,0 77.6,0 84.7,0 90.5,5.8 90.5,12.9 Z"
       class="st2" /><path
       id="path186"
       d="m 77.6,97 c 7.1,0 12.9,5.8 12.9,12.9 0,7.1 -5.8,12.9 -12.9,12.9 -7.1,0 -12.9,-5.8 -12.9,-12.9 V 97 Z"
       class="st3" /><path
       id="path188"
       d="m 77.6,90.5 c -7.1,0 -12.9,-5.8 -12.9,-12.9 0,-7.1 5.8,-12.9 12.9,-12.9 h 32.3 c 7.1,0 12.9,5.8 12.9,12.9 0,7.1 -5.8,12.9 -12.9,12.9 z"
       class="st3" /></g></svg>
