<?xml version="1.0" encoding="UTF-8" standalone="no"?>
<svg
   width="100"
   height="100"
   viewBox="0 0 100 100"
   version="1.1"
   id="svg4"
   sodipodi:docname="spotify.svg"
   inkscape:version="1.1.2 (b8e25be833, 2022-02-05)"
   xmlns:inkscape="http://www.inkscape.org/namespaces/inkscape"
   xmlns:sodipodi="http://sodipodi.sourceforge.net/DTD/sodipodi-0.dtd"
   xmlns="http://www.w3.org/2000/svg"
   xmlns:svg="http://www.w3.org/2000/svg">
  <defs
     id="defs8" />
  <sodipodi:namedview
     id="namedview6"
     pagecolor="#ffffff"
     bordercolor="#666666"
     borderopacity="1.0"
     inkscape:pageshadow="2"
     inkscape:pageopacity="0.0"
     inkscape:pagecheckerboard="0"
     showgrid="false"
     width="100px"
     inkscape:zoom="8.48"
     inkscape:cx="50"
     inkscape:cy="50"
     inkscape:window-width="1920"
     inkscape:window-height="1057"
     inkscape:window-x="-8"
     inkscape:window-y="-8"
     inkscape:window-maximized="1"
     inkscape:current-layer="svg4" />
  <path
     fill="#1ed760"
     fill-rule="evenodd"
     d="M 73.661233,45.46093 C 60.76726,37.803937 39.500127,37.099547 27.190983,40.835283 25.214453,41.43543 23.124253,40.31936 22.52529,38.34283 c -0.598967,-1.977707 0.515923,-4.06673 2.49422,-4.667463 14.12901,-4.288764 37.61709,-3.460694 52.460503,5.35065 1.77805,1.055406 2.361707,3.35174 1.307477,5.126256 -1.054817,1.778054 -3.352327,2.364064 -5.126257,1.308657 m -0.42228,11.34149 C 72.33491,58.270093 70.415507,58.730067 68.9496,57.828967 58.20001,51.22149 41.808827,49.30739 29.09095,53.167983 c -1.649073,0.498257 -3.3912,-0.431703 -3.89181,-2.07783 -0.497077,-1.64907 0.43347,-3.387663 2.079597,-3.889453 14.527733,-4.40832 32.588013,-2.273363 44.93426,5.314133 1.465906,0.902867 1.927056,2.82286 1.025956,4.287587 m -4.89421,10.89153 c -0.719113,1.178497 -2.253926,1.54777 -3.4283,0.829837 C 55.5238,62.78266 43.700547,61.486373 29.77708,64.666727 c -1.341637,0.307433 -2.67915,-0.533594 -2.98482,-1.874644 -0.307433,-1.341636 0.53006,-2.67915 1.87523,-2.985406 15.236833,-3.483077 28.306907,-1.984187 38.849773,4.45897 1.175554,0.717346 1.546004,2.25334 0.82748,3.428303 M 50,10 C 27.90892,10 10,27.90833 10,49.99941 10,72.09285 27.90892,90 50,90 72.09167,90 90,72.09285 90,49.99941 90,27.90833 72.09167,10 50,10"
     id="path2"
     style="stroke-width:3.33333;fill:#00d44c;fill-opacity:1" />
</svg>
