<?xml version="1.0" encoding="UTF-8" standalone="no"?>
<svg
   height="100"
   width="100"
   viewBox="-34.92765 -58.25 25.225525 43.6875"
   version="1.1"
   id="svg23"
   sodipodi:docname="steam.svg"
   inkscape:version="1.1.2 (b8e25be833, 2022-02-05)"
   xmlns:inkscape="http://www.inkscape.org/namespaces/inkscape"
   xmlns:sodipodi="http://sodipodi.sourceforge.net/DTD/sodipodi-0.dtd"
   xmlns="http://www.w3.org/2000/svg"
   xmlns:svg="http://www.w3.org/2000/svg">
  <sodipodi:namedview
     id="namedview25"
     pagecolor="#ffffff"
     bordercolor="#666666"
     borderopacity="1.0"
     inkscape:pageshadow="2"
     inkscape:pageopacity="0.0"
     inkscape:pagecheckerboard="0"
     showgrid="false"
     width="100px"
     inkscape:zoom="0.985"
     inkscape:cx="482.2335"
     inkscape:cy="400"
     inkscape:window-width="1920"
     inkscape:window-height="1057"
     inkscape:window-x="-8"
     inkscape:window-y="-8"
     inkscape:window-maximized="1"
     inkscape:current-layer="svg23" />
  <defs
     id="defs17">
    <linearGradient
       gradientUnits="userSpaceOnUse"
       y1="0"
       gradientTransform="matrix(0.15008041,0,0,0.15008137,-39.827639,-53.881293)"
       y2="232.875"
       x1="116.689"
       x2="116.689"
       id="a">
      <stop
         offset="0"
         stop-color="#111D2E"
         id="stop2" />
      <stop
         offset=".212"
         stop-color="#051839"
         id="stop4" />
      <stop
         offset=".407"
         stop-color="#0A1B48"
         id="stop6" />
      <stop
         offset=".581"
         stop-color="#132E62"
         id="stop8" />
      <stop
         offset=".738"
         stop-color="#144B7E"
         id="stop10" />
      <stop
         offset=".873"
         stop-color="#136497"
         id="stop12" />
      <stop
         offset="1"
         stop-color="#1387B8"
         id="stop14" />
    </linearGradient>
  </defs>
  <path
     id="path19"
     style="fill:url(#a);stroke-width:0.150081"
     d="m -22.333657,-53.88125 c -9.270971,0 -16.857086,7.204321 -17.45623,16.313992 0.0027,0.0045 0.0047,0.0085 0.0074,0.01306 1e-6,-2.9e-5 1.28e-4,-0.0026 1.28e-4,-0.0026 l 9.40002,3.865464 a 4.7598189,4.7547116 0 0 1 0.819126,-0.431971 c 0.65981,-0.271501 1.355586,-0.392945 2.049032,-0.361446 l 4.280902,-6.211789 c -0.0015,-0.0276 -0.0015,-0.05699 -0.0015,-0.0864 0,-3.666008 2.980676,-6.648365 6.644616,-6.648365 3.665441,0 6.644617,2.982357 6.644617,6.648365 0,3.66571 -2.979176,6.65067 -6.644617,6.65067 -0.04955,0 -0.100613,-0.0016 -0.150166,-0.0031 l -6.125055,4.372558 c 0.01802,0.675002 -0.106593,1.35153 -0.373879,1.996531 -1.027105,2.467507 -3.874026,3.642032 -6.343132,2.611529 -1.509123,-0.628496 -2.532063,-1.935019 -2.865722,-3.424522 l -6.622191,-2.729534 c 2.183982,7.164675 8.850294,12.377502 16.73666,12.377502 9.66139,0 17.49377,-7.823975 17.49377,-17.474999 0,-9.651175 -7.83238,-17.475001 -17.49377,-17.475001 z m 5.743488,8.668961 c -2.440124,0 -4.426712,1.98813 -4.426712,4.429385 0,2.443207 1.986588,4.430667 4.426712,4.430667 2.441625,0 4.42825,-1.98746 4.42825,-4.430667 0,-2.441255 -1.986625,-4.429385 -4.42825,-4.429385 z m 0.0076,1.093939 c 1.836475,0 3.326089,1.490709 3.326089,3.328663 0,1.838105 -1.489614,3.327383 -3.326089,3.327383 -1.834974,0 -3.324549,-1.489278 -3.324549,-3.327383 0,-1.837954 1.489575,-3.328663 3.324549,-3.328663 z m -11.094138,10.740624 c -0.467603,-0.0037 -0.928489,0.08096 -1.359828,0.244462 l 2.235843,0.925504 c 1.405211,0.585002 2.070343,2.19898 1.484112,3.604485 -0.584428,1.404003 -2.197524,2.07008 -3.603486,1.485079 l -2.163066,-0.895555 c 0.383062,0.799504 1.047173,1.470033 1.926668,1.836033 1.906451,0.793501 4.099684,-0.111017 4.894638,-2.017523 0.384413,-0.921003 0.38593,-1.940949 0.006,-2.864951 -0.379907,-0.924002 -1.096771,-1.64709 -2.020715,-2.03109 -0.458217,-0.190501 -0.932585,-0.282694 -1.400188,-0.286444 z" />
</svg>
