<?xml version="1.0" encoding="UTF-8" standalone="no"?>
<svg
   height="100"
   width="100"
   xml:space="preserve"
   y="0"
   x="0"
   id="Layer_1"
   version="1.1"
   viewBox="-54 -37.45 39 28.0875"
   sodipodi:docname="stripe--.svg"
   inkscape:version="1.1.2 (b8e25be833, 2022-02-05)"
   xmlns:inkscape="http://www.inkscape.org/namespaces/inkscape"
   xmlns:sodipodi="http://sodipodi.sourceforge.net/DTD/sodipodi-0.dtd"
   xmlns="http://www.w3.org/2000/svg"
   xmlns:svg="http://www.w3.org/2000/svg"><defs
     id="defs14" /><sodipodi:namedview
     id="namedview12"
     pagecolor="#ffffff"
     bordercolor="#666666"
     borderopacity="1.0"
     inkscape:pageshadow="2"
     inkscape:pageopacity="0.0"
     inkscape:pagecheckerboard="0"
     showgrid="false"
     width="100px"
     inkscape:zoom="8.48"
     inkscape:cx="50"
     inkscape:cy="50"
     inkscape:window-width="1920"
     inkscape:window-height="1057"
     inkscape:window-x="-8"
     inkscape:window-y="-8"
     inkscape:window-maximized="1"
     inkscape:current-layer="Layer_1" /><style
     id="style16"
     type="text/css">.st0{fill-rule:evenodd;clip-rule:evenodd;fill:#32325d}</style><path
     id="path30"
     d="m -36.711421,-29.714821 c 0,-1.337142 1.097138,-1.851428 2.914278,-1.851428 2.605702,0 5.897121,0.78857 8.502827,2.194283 v -8.05714 c -2.845703,-1.131428 -5.657124,-1.577144 -8.502827,-1.577144 -6.959981,0 -11.588537,3.634287 -11.588537,9.702858 0,9.462857 13.028532,7.954283 13.028532,12.034285 0,1.57714 -1.371425,2.091426 -3.291418,2.091426 -2.845708,0 -6.479979,-1.165711 -9.35997,-2.742856 v 8.1600014 c 3.188562,1.3714298 6.411405,1.9542856 9.35997,1.9542856 7.131403,0 12.034246,-3.53143 12.034246,-9.668571 -0.03442,-10.217144 -13.097101,-8.400002 -13.097101,-12.24 z"
     class="st0"
     style="stroke-width:0.342856" /></svg>
