<?xml version="1.0" encoding="UTF-8" standalone="no"?>
<svg
   id="bhf_icon-logo"
   viewBox="0 0 100 99.999999"
   version="1.1"
   sodipodi:docname="submarino.svg"
   width="100"
   height="100"
   inkscape:version="1.1.2 (b8e25be833, 2022-02-05)"
   inkscape:export-filename="G:\Users\suitedoalex\sites\submarino-logo-0.png"
   inkscape:export-xdpi="561.73712"
   inkscape:export-ydpi="561.73712"
   xmlns:inkscape="http://www.inkscape.org/namespaces/inkscape"
   xmlns:sodipodi="http://sodipodi.sourceforge.net/DTD/sodipodi-0.dtd"
   xmlns="http://www.w3.org/2000/svg"
   xmlns:svg="http://www.w3.org/2000/svg"
   xmlns:rdf="http://www.w3.org/1999/02/22-rdf-syntax-ns#"
   xmlns:cc="http://creativecommons.org/ns#"
   xmlns:dc="http://purl.org/dc/elements/1.1/">
  <metadata
     id="metadata13">
    <rdf:RDF>
      <cc:Work
         rdf:about="">
        <dc:format>image/svg+xml</dc:format>
        <dc:type
           rdf:resource="http://purl.org/dc/dcmitype/StillImage" />
      </cc:Work>
    </rdf:RDF>
  </metadata>
  <defs
     id="defs11" />
  <sodipodi:namedview
     pagecolor="#ffffff"
     bordercolor="#666666"
     borderopacity="1"
     objecttolerance="10"
     gridtolerance="10"
     guidetolerance="10"
     inkscape:pageopacity="0"
     inkscape:pageshadow="2"
     inkscape:window-width="1920"
     inkscape:window-height="1057"
     id="namedview9"
     showgrid="false"
     inkscape:zoom="8.48"
     inkscape:cx="50"
     inkscape:cy="50"
     inkscape:window-x="-8"
     inkscape:window-y="-8"
     inkscape:window-maximized="1"
     inkscape:current-layer="bhf_icon-logo"
     inkscape:pagecheckerboard="0" />
  <path
     d="M 79.51544,48.77714 H 66.6774 v -3.51642 c 0,-3.16566 -2.47336,-5.55604 -5.60216,-5.55604 h -5.1685 v -5.40842 c 0,-1.6612 0.26768,-1.80895 2.62119,-1.80895 1.39365,0 2.62111,-1.17217 2.62111,-2.62112 0,-1.40291 -1.09835,-2.55657 -2.49186,-2.62119 h -5.38074 c -1.79977,0 -2.62119,1.52283 -2.62119,2.62119 v 9.83849 h -5.40842 c -3.63627,0 -5.54672,2.82418 -5.54672,5.55604 v 3.51642 H 27.05588 c -4.89164,0 -8.97089,3.36865 -10.1338,7.89103 h -1.67977 v -2.62104 c 0,-1.44917 -1.17209,-2.62112 -2.62119,-2.62112 C 11.17209,51.43671 10,52.60721 10,54.05616 v 10.48462 c 0,1.44909 1.17209,2.62118 2.62112,2.62118 1.4491,0 2.62119,-1.17209 2.62119,-2.62118 v -2.62112 h 1.71664 c 1.18134,4.50395 5.2423,7.83574 10.10603,7.83574 h 52.44121 c 5.79604,0 10.49379,-4.69776 10.49379,-10.48447 0.0107,-5.79604 -4.6885,-10.49379 -10.48454,-10.49379 z"
     id="path2-5"
     inkscape:connector-curvature="0"
     style="fill:#0433ff;fill-opacity:1;stroke-width:0.0922932" />
</svg>
