<?xml version="1.0" encoding="UTF-8" standalone="no"?>
<!-- Created with Inkscape (http://www.inkscape.org/) -->

<svg
   width="100mm"
   height="100mm"
   viewBox="0 0 100 100"
   version="1.1"
   id="svg2293"
   inkscape:version="1.1.2 (b8e25be833, 2022-02-05)"
   sodipodi:docname="sulamerica--.svg"
   inkscape:export-filename="C:\Users\suitedoalex\sites\sulamerica-saude-logo-0.png"
   inkscape:export-xdpi="148.6263"
   inkscape:export-ydpi="148.6263"
   xmlns:inkscape="http://www.inkscape.org/namespaces/inkscape"
   xmlns:sodipodi="http://sodipodi.sourceforge.net/DTD/sodipodi-0.dtd"
   xmlns="http://www.w3.org/2000/svg"
   xmlns:svg="http://www.w3.org/2000/svg"
   xmlns:rdf="http://www.w3.org/1999/02/22-rdf-syntax-ns#"
   xmlns:cc="http://creativecommons.org/ns#"
   xmlns:dc="http://purl.org/dc/elements/1.1/">
  <defs
     id="defs2287" />
  <sodipodi:namedview
     id="base"
     pagecolor="#ffffff"
     bordercolor="#666666"
     borderopacity="1.0"
     inkscape:pageopacity="0.0"
     inkscape:pageshadow="2"
     inkscape:zoom="2.2436667"
     inkscape:cx="188.97638"
     inkscape:cy="188.97638"
     inkscape:document-units="mm"
     inkscape:current-layer="layer1"
     showgrid="false"
     inkscape:window-width="1920"
     inkscape:window-height="1057"
     inkscape:window-x="-8"
     inkscape:window-y="-8"
     inkscape:window-maximized="1"
     inkscape:pagecheckerboard="0"
     width="100mm" />
  <metadata
     id="metadata2290">
    <rdf:RDF>
      <cc:Work
         rdf:about="">
        <dc:format>image/svg+xml</dc:format>
        <dc:type
           rdf:resource="http://purl.org/dc/dcmitype/StillImage" />
      </cc:Work>
    </rdf:RDF>
  </metadata>
  <g
     inkscape:label="Layer 1"
     inkscape:groupmode="layer"
     id="layer1"
     transform="translate(0,403)">
    <g
       id="g1019"
       transform="translate(0,4.0539383)">
      <path
         d="m 25.280808,-354.617 c -0.20099,0.21148 -0.300869,0.46487 -0.300869,0.76019 v 4.31204 c 0,0.5068 -0.1529,0.8761 -0.458701,1.10853 -0.307651,0.23305 -0.650445,0.34896 -1.030845,0.34896 -0.380397,0 -0.71888,-0.11591 -1.015433,-0.34896 -0.295937,-0.23243 -0.443289,-0.60173 -0.443289,-1.10853 v -5.38974 h -2.218908 v 4.94584 c 0,1.4581 0.419866,2.35331 1.125792,2.88476 0.73306,0.55304 1.553674,0.76081 2.487724,0.76019 0.929728,0 1.735538,-0.21147 2.563545,-0.68435 0.857599,-0.48953 1.17758,-1.45996 1.17758,-2.9606 v -4.94584 h -1.109763 c -0.316898,0 -0.575842,0.10604 -0.776833,0.31751 z"
         style="fill:#1a2f5f;fill-opacity:1;fill-rule:nonzero;stroke:none;stroke-width:4.01769"
         id="path464"
         inkscape:connector-curvature="0" />
      <path
         d="m 34.862309,-350.59146 1.520991,-4.62832 1.522224,4.62832 z m 1.0142,-6.81579 c -0.528986,0 -0.88781,0.24292 -1.077702,0.72936 l -3.614126,10.17591 h 2.377358 l 0.6973,-2.25097 h 4.247929 l 0.729977,2.25097 h 2.376741 l -3.963091,-10.90527 z"
         style="fill:#1a2f5f;fill-opacity:1;fill-rule:nonzero;stroke:none;stroke-width:4.01769"
         id="path470"
         inkscape:connector-curvature="0" />
      <path
         d="m 53.699166,-354.39541 c -0.727511,-0.56352 -1.637509,-0.72936 -2.567249,-0.72936 -0.464867,0.0216 -0.9137,0.0906 -1.347739,0.20592 -0.43343,0.11714 -0.80766,0.31258 -1.125792,0.58694 -0.380409,-0.3169 -0.803352,-0.52837 -1.267602,-0.63441 -0.464866,-0.10543 -0.940831,-0.15845 -1.426043,-0.15845 -0.909389,0.0432 -1.821861,0.27867 -2.48895,0.79286 -0.708398,0.54563 -1.125792,1.44762 -1.125792,2.88477 l -0.01109,4.95755 2.230005,-0.0123 v -5.38913 c 0,-0.50741 0.148591,-0.87671 0.444521,-1.10914 0.296554,-0.23244 0.633797,-0.34896 1.015433,-0.34896 0.379169,0 0.721963,0.11652 1.029618,0.34896 0.305802,0.23243 0.459935,0.60173 0.459935,1.10914 v 0.44391 4.94522 h 2.186226 v -4.94522 -0.44391 c 0,-0.50741 0.1529,-0.87671 0.460557,-1.10914 0.305795,-0.23244 0.649821,-0.34896 1.029613,-0.34896 0.380396,0 0.724422,0.11652 1.030223,0.34896 0.307034,0.23243 0.459935,0.60173 0.459935,1.10914 v 4.31143 c 0,0.3169 0.0894,0.58817 0.289154,0.78916 0.20099,0.20099 0.459935,0.30087 0.776834,0.30087 h 1.110378 l 0.01048,-4.95755 c 0,-1.47907 -0.443905,-2.38538 -1.17265,-2.94827 z"
         style="fill:#1a2f5f;fill-opacity:1;fill-rule:nonzero;stroke:none;stroke-width:4.01769"
         id="path476"
         inkscape:connector-curvature="0" />
      <path
         d="m 60.212545,-355.87775 1.609771,-1.72013 h -1.425427 c -0.190509,0 -0.348342,0.0271 -0.459935,0.11036 -0.0968,0.0703 -0.0931,0.0795 -0.205922,0.25216 l -0.88781,1.54011 c 0,0 0.377936,-0.0234 0.927268,-0.0234 0.334778,0 0.442055,-0.15907 0.442055,-0.15907 z"
         style="fill:#1a2f5f;fill-opacity:1;fill-rule:nonzero;stroke:none;stroke-width:4.01769"
         id="path482"
         inkscape:connector-curvature="0" />
      <path
         d="m 57.955905,-351.57403 c 0.02035,-0.54933 0.179411,-0.97166 0.475349,-1.26821 0.295319,-0.29532 0.675721,-0.44329 1.140588,-0.44329 0.508025,0 0.898291,0.14797 1.172649,0.44329 0.254012,0.27498 0.402604,0.6973 0.444521,1.26821 z m 1.553667,-3.55062 c -1.205325,0 -2.146157,0.3915 -2.821872,1.17327 -0.654766,0.76018 -0.983378,1.81754 -0.983378,3.1696 0,1.41618 0.33786,2.50498 1.014815,3.26517 0.676955,0.78238 1.61717,1.17326 2.821262,1.17326 0.99386,0 1.81755,-0.24291 2.472304,-0.72874 0.655382,-0.46487 1.099281,-1.14182 1.331715,-2.02902 h -1.584495 c -0.254013,0 -0.45007,0.007 -0.591256,0.20223 0,0 -0.146736,0.26511 -0.540695,0.50679 -0.393972,0.24168 -0.981523,0.24168 -0.986461,0.24168 -0.541318,-0.003 -0.938983,-0.20346 -1.210257,-0.53885 -0.295938,-0.31752 -0.455003,-0.80273 -0.475349,-1.45811 l 5.433519,-6.1e-4 c 0,0 0.05487,-0.005 0.05734,-0.0456 0.0037,-0.0426 0.02096,-0.28793 0.02528,-0.52406 0.02281,-1.39522 -0.339711,-2.48402 -1.014809,-3.26578 -0.697308,-0.76081 -1.680058,-1.14121 -2.947659,-1.14121 z"
         style="fill:#1a2f5f;fill-opacity:1;fill-rule:nonzero;stroke:none;stroke-width:4.01769"
         id="path488"
         inkscape:connector-curvature="0" />
      <path
         d="m 68.85605,-354.93605 c -0.06412,0 -0.231199,0.002 -0.273125,0.002 -0.569678,0 -1.125169,0.074 -1.664636,0.22133 -0.538235,0.14797 -1.008651,0.3804 -1.410014,0.6973 -0.423566,0.3391 -0.755879,0.78793 -0.99941,1.34836 -0.241674,0.55982 -0.363748,1.25157 -0.363748,2.07588 v 4.08947 h 2.219524 v -4.34287 c 0,-0.63441 0.146728,-1.09866 0.443281,-1.39522 0.294704,-0.29593 0.750324,-0.4439 1.363158,-0.4439 l 0.692369,-0.003 c 0,0 0.03576,0 0.03576,-0.0333 0.0012,-0.0345 0,-2.19609 0,-2.19609 -0.0025,-0.0105 -0.0037,-0.0197 -0.04316,-0.0197 z"
         style="fill:#1a2f5f;fill-opacity:1;fill-rule:nonzero;stroke:none;stroke-width:4.01769"
         id="path494"
         inkscape:connector-curvature="0" />
      <path
         d="m 64.508989,-352.66745 c -0.242299,0.55981 -0.363755,1.25156 -0.363755,2.07587 v 4.08947 z"
         style="fill:#1a2f5f;fill-opacity:1;fill-rule:nonzero;stroke:none;stroke-width:4.01769"
         id="path500"
         inkscape:connector-curvature="0" />
      <path
         d="m 78.374974,-348.92669 c -0.12639,0.10604 -0.295936,0.34773 -0.602355,0.53885 -0.260793,0.13502 -0.559812,0.22195 -0.918636,0.22195 -0.549948,0 -0.961793,-0.16893 -1.236768,-0.5074 -0.380402,-0.40075 -0.570288,-1.08819 -0.570288,-2.06046 0,-0.97228 0.189886,-1.66958 0.570288,-2.0919 0.296554,-0.29594 0.676954,-0.44391 1.141823,-0.44391 0.50679,0 0.898289,0.14797 1.172648,0.44391 0.106043,0.10604 0.166465,0.1566 0.243531,0.291 0.05425,0.0925 0.09001,0.0993 0.136871,0.0993 h 2.102999 c 0.02959,0 0.0093,-0.0728 0.008,-0.0765 -0.172013,-0.56166 -0.426026,-1.02283 -0.779916,-1.45564 -0.697301,-0.76018 -1.680057,-1.14059 -2.948261,-1.14059 -1.204099,0 -2.144314,0.39027 -2.821269,1.17265 -0.654754,0.76081 -0.98214,1.81755 -0.98214,3.17022 0,1.41557 0.337867,2.50437 1.014817,3.26517 0.675721,0.78177 1.615942,1.17265 2.820028,1.17265 0.993854,0 1.818161,-0.2423 2.473536,-0.72874 0.654767,-0.46487 1.098049,-1.14121 1.330483,-2.02902 H 78.94588 c -0.252779,0 -0.443288,0.053 -0.570911,0.15845 z"
         style="fill:#1a2f5f;fill-opacity:1;fill-rule:nonzero;stroke:none;stroke-width:4.01769"
         id="path506"
         inkscape:connector-curvature="0" />
      <path
         d="m 29.41461,-357.40521 c -0.01541,0 -0.03021,-0.002 -0.04562,-0.002 -0.582625,0 -1.05859,0.44945 -1.104214,1.01975 l -0.0049,9.8849 h 2.219525 v -10.90465 h -1.045643 c -0.0068,0 -0.01295,0.001 -0.01911,0.002 z"
         style="fill:#1a2f5f;fill-opacity:1;fill-rule:nonzero;stroke:none;stroke-width:4.01769"
         id="path512"
         inkscape:connector-curvature="0" />
      <path
         d="m 17.543916,-352.11232 c -0.295936,-0.12639 -0.591257,-0.2534 -0.887193,-0.37979 -0.170163,-0.0425 -0.396432,-0.10049 -0.681887,-0.17448 -0.285449,-0.0746 -0.617768,-0.17509 -0.998169,-0.30148 -0.169547,-0.0204 -0.433424,-0.0838 -0.792241,-0.1899 -1.22691,-0.27497 -1.839129,-0.6973 -1.839129,-1.26821 0,-0.42232 0.15784,-0.75032 0.475971,-0.98275 0.274352,-0.23244 0.728737,-0.34896 1.363158,-0.34896 0.65352,0 1.172642,0.1381 1.553044,0.41246 0.19051,0.14797 0.337251,0.328 0.443288,0.53885 0.210855,0.4439 0.559814,0.66586 1.04626,0.66586 h 1.268211 c -0.04192,-1.05674 -0.422942,-1.91249 -1.141822,-2.56787 -0.696684,-0.59187 -1.690537,-0.88781 -2.980328,-0.88781 -1.373633,0 -2.418665,0.28484 -3.137544,0.85575 -0.718873,0.59249 -1.077696,1.4057 -1.077696,2.44148 0,0.59187 0.105421,1.0777 0.317509,1.45749 0.168931,0.44452 0.463634,0.78299 0.886577,1.01481 0.360062,0.2534 1.078935,0.49754 2.156644,0.72875 l 0.252772,0.0641 0.06351,0.0315 c 1.902619,0.42294 2.8527,0.97289 2.8527,1.64861 0,0.44391 -0.169548,0.78177 -0.506793,1.0142 -0.338476,0.23305 -0.835403,0.34896 -1.489541,0.34896 -0.740464,0 -1.320623,-0.14797 -1.743565,-0.44391 -0.401981,-0.25339 -0.645506,-0.69791 -0.729977,-1.33171 H 10 c 0.06227,1.20471 0.485213,2.11348 1.267595,2.72693 0.717653,0.61345 1.795348,0.91864 3.233723,0.91864 1.393985,0 2.471688,-0.29532 3.233108,-0.88781 0.760803,-0.63318 1.141211,-1.52099 1.141211,-2.66281 0,-0.52714 -0.11653,-1.0142 -0.348964,-1.45749 -0.232435,-0.40198 -0.559814,-0.72936 -0.982757,-0.98337 z"
         style="fill:#1a2f5f;fill-opacity:1;fill-rule:nonzero;stroke:none;stroke-width:4.01769"
         id="path518"
         inkscape:connector-curvature="0" />
      <path
         d="m 86.01544,-348.43778 c -0.351426,0.36129 -0.568445,0.38904 -1.531472,0.38904 -0.409379,0 -0.62516,-0.0345 -0.905689,-0.31259 -0.172007,-0.17078 -0.29778,-0.38841 -0.29778,-0.70285 0,-0.23058 0.06042,-0.50124 0.243531,-0.6936 0.205916,-0.21702 0.424786,-0.30272 0.808886,-0.40814 l 0.733677,-0.15722 c 0.530836,-0.12516 0.940215,-0.27313 1.239234,-0.41986 l 0.0068,0.91432 c 0,0.58694 0.02219,1.06414 -0.29717,1.3909 z m 1.44269,-6.03772 c -0.596189,-0.39828 -1.488314,-0.59804 -2.679458,-0.59804 -1.06229,0 -1.881048,0.24107 -2.455035,0.72381 -0.510497,0.41986 -0.808277,0.9544 -0.892742,1.60422 h 2.136286 c 0.106044,-0.22996 0.276208,-0.38718 0.510497,-0.47164 0.23366,-0.0838 0.49877,-0.12578 0.797173,-0.12578 0.276207,0 0.594956,0.0425 0.911855,0.13256 0.343409,0.0968 0.491378,0.30765 0.491378,0.6227 0,0.41924 -0.468567,0.69237 -1.403233,0.81814 l -0.893358,0.12516 c -0.807661,0.12639 -1.471663,0.37793 -1.992641,0.75525 -0.521582,0.37794 -0.780532,1.0068 -0.780532,1.88783 0,0.9433 0.310733,1.64306 0.885343,2.05183 0.572761,0.40938 1.425435,0.53638 2.189931,0.53638 0.521589,0 0.579543,0 1.136891,-0.0333 0.409377,-0.0247 0.828622,-0.14057 1.213955,-0.30765 0.137488,0.0863 0.285456,0.16523 0.450071,0.21825 0.223186,0.0715 1.281776,0.0407 1.281776,0.0407 l 0.0093,-3.21029 c 0.0012,-0.0499 0.0062,-0.0937 0.0062,-0.14551 v -2.86318 c 0,-0.75464 -0.308268,-1.34158 -0.92357,-1.76144 z"
         style="fill:#1a2f5f;fill-opacity:1;fill-rule:nonzero;stroke:none;stroke-width:4.01769"
         id="path524"
         inkscape:connector-curvature="0" />
      <path
         d="m 72.018195,-357.51964 h -1.152304 c -0.299019,0 -0.555497,0.10666 -0.769434,0.3206 -0.212089,0.2127 -0.320598,0.46918 -0.320598,0.7682 v 0.67264 h 2.242336 z"
         style="fill:#1a2f5f;fill-opacity:1;fill-rule:nonzero;stroke:none;stroke-width:4.01769"
         id="path530"
         inkscape:connector-curvature="0" />
      <path
         d="m 71.989279,-355.02157 c -0.0099,0 -1.123326,-6.1e-4 -1.123326,-6.1e-4 -0.299013,0 -0.555497,0.10789 -0.769435,0.32122 -0.212088,0.21332 -0.320592,0.46918 -0.320592,0.7682 v 7.43047 h 2.24233 l 0.0012,-8.48968 c 0,0 -0.0049,-0.0296 -0.03021,-0.0296 z"
         style="fill:#1a2f5f;fill-opacity:1;fill-rule:nonzero;stroke:none;stroke-width:4.01769"
         id="path536"
         inkscape:connector-curvature="0" />
      <path
         d="m 67.683155,-367.10663 c 5.437835,-1.22012 10.307841,0.59927 16.290082,1.05058 4.215857,0.31874 5.982228,-0.4809 5.982228,-0.4809 0,0 0.128856,-0.004 -0.05179,0.12207 -0.82739,0.57893 -3.040755,1.35083 -8.821993,1.07154 -10.981719,-0.52837 -12.577311,0.6153 -17.97692,2.4686 -4.650513,1.59745 -6.850314,1.8083 -6.850314,1.8083 0,0 0.268197,-0.1677 0.534535,-0.33663 1.93284,-1.22444 6.590753,-4.73868 10.894164,-5.70356 z"
         style="fill:#d2421b;fill-opacity:1;fill-rule:nonzero;stroke:none;stroke-width:4.01769"
         id="path542"
         inkscape:connector-curvature="0" />
      <path
         d="m 11.147371,-366.70921 c -0.12639,0.15413 4.353966,2.99636 12.632792,2.90264 9.542106,-0.10912 14.540357,-3.7886 19.318499,0.56475 7.374364,6.71653 14.047739,1.59929 14.047739,1.59929 0,0 -0.898291,0.46363 -7.141935,-0.0727 -9.843597,-0.84589 -6.696182,-7.32813 -15.115583,-6.12281 -4.554336,0.6523 -6.967451,1.90818 -10.84361,2.54999 -7.871906,1.30336 -12.7524,-1.59806 -12.897902,-1.42111 z"
         style="fill:#f36318;fill-opacity:1;fill-rule:nonzero;stroke:none;stroke-width:4.01769"
         id="path548"
         inkscape:connector-curvature="0" />
    </g>
  </g>
</svg>
