<?xml version="1.0" encoding="UTF-8" standalone="no"?>
<svg
   height="100"
   width="100"
   viewBox="-47.55 -64.5 34.341667 48.375"
   version="1.1"
   id="svg4"
   sodipodi:docname="Supercell_(video_game_company)-Logo.wine.svg"
   inkscape:version="1.1.2 (b8e25be833, 2022-02-05)"
   xmlns:inkscape="http://www.inkscape.org/namespaces/inkscape"
   xmlns:sodipodi="http://sodipodi.sourceforge.net/DTD/sodipodi-0.dtd"
   xmlns="http://www.w3.org/2000/svg"
   xmlns:svg="http://www.w3.org/2000/svg">
  <defs
     id="defs8" />
  <sodipodi:namedview
     id="namedview6"
     pagecolor="#ffffff"
     bordercolor="#666666"
     borderopacity="1.0"
     inkscape:pageshadow="2"
     inkscape:pageopacity="0.0"
     inkscape:pagecheckerboard="0"
     showgrid="false"
     width="100px"
     inkscape:zoom="0.985"
     inkscape:cx="392.8934"
     inkscape:cy="400"
     inkscape:window-width="1920"
     inkscape:window-height="1057"
     inkscape:window-x="-8"
     inkscape:window-y="-8"
     inkscape:window-maximized="1"
     inkscape:current-layer="svg4" />
  <path
     d="m -29.26822,-42.778239 h -2.270725 v 1.6603 h 2.270725 z m 1.098738,7.4104 -1.098738,-1.0988 v -3.113 h -2.270725 v 1.6603 h 0.805741 v 2.5637 h -5.859937 v -2.5637 h 1.098738 v -4.8589 h -1.098738 v -2.5637 h 9.815394 l 1.635899,1.6603 v 2.0754 l -1.464984,1.0743 1.464984,1.0988 v 1.8678 h 0.927824 v 2.1975 h -3.955458 m 3.052051,-18.1292 v 5.2129 l -2.197477,2.1975 h -5.982019 l -2.197476,-2.1975 v -5.2129 h -1.098738 v -2.5637 h 6.030852 v 2.5637 h -0.95224 v 4.8589 h 3.357255 v -4.8589 h -0.817949 v -2.5637 h 4.785615 v 2.5637 h -0.940031 m 10.132807,0 h -3.357255 v 1.7092 h 3.369463 v -1.7092 z m 2.3806,3.4549 h -5.737855 v 1.3796 h 1.062113 v 2.5637 h -6.128517 v -2.5637 h 1.098738 v -4.8345 h -1.098738 v -2.5637 h 10.621135 l 1.77019,1.7091 v 2.7347 l -1.587066,1.5626 m -0.659243,14.6865 h -7.544669 l -2.600347,-2.5637 v -4.8589 l 2.600347,-2.5637 h 5.945394 l 0.732492,0.94 0.732492,-0.9278 h 2.3806 v 4.1996 h -3.113092 v -1.6481 h -5.22511 v 4.8833 h 5.22511 v -1.6725 h 3.113092 v 2.0143 l -2.246309,2.1975 m -12.012871,10.7676 h -11.304795 v -2.5637 h 1.098738 v -4.8467 h -1.098738 v -2.5637 h 6.152934 v 2.5637 h -1.098738 v 4.8589 h 4.248454 v -3.223 h 3.100883 v 4.5903 l -1.098738,1.1842 m 13.160442,0 h -11.304795 v -2.5637 h 1.074321 v -4.8467 h -1.074321 v -2.5637 h 6.128517 v 2.5637 h -1.098738 v 4.8589 h 4.27287 v -3.223 h 3.100884 v 4.5903 l -1.098738,1.1842 m -27.151041,-21.4864 h -6.909843 l -0.817949,-0.879 -0.732493,0.879 h -1.989936 v -3.0521 h 2.78347 v 0.8546 h 5.212902 v -1.4284 h -6.201767 l -1.794605,-1.6725 v -2.4416 l 2.075394,-2.2341 h 6.201766 l 0.81795,0.879 0.732492,-0.879 h 1.989937 v 3.052 h -2.807887 v -0.8545 h -4.687949 v 1.4405 h 6.055268 l 2.026562,1.9167 v 2.3196 l -1.953312,2.0998 m 0.830157,10.7188 h -11.280378 v -2.5637 h 1.098738 v -4.8223 h -1.098738 v -2.5637 h 11.280378 l 1.098738,1.2208 v 3.4183 l -3.100883,0.024 v -2.0998 h -4.224038 v 1.465 h 1.83123 v 1.8557 h -1.83123 v 1.5138 h 4.224038 v -2.0754 h 3.100883 v 3.4183 l -1.098738,1.2208 m 0,10.7432 h -11.280378 v -2.5637 h 1.098738 v -4.8345 h -1.098738 v -2.5637 h 11.280378 l 1.098738,1.2208 v 3.4183 h -3.100883 v -2.0754 h -4.224038 v 1.5016 h 1.83123 v 1.8313 h -1.83123 v 1.5504 h 4.224038 v -2.0754 h 3.100883 v 3.4183 l -1.098738,1.2208"
     fill="#100f0d"
     id="path2"
     style="stroke-width:0.122082" />
</svg>
