<?xml version="1.0" encoding="UTF-8" standalone="no"?>
<svg
   width="100"
   height="100"
   viewBox="0 0 100 99.999995"
   version="1.1"
   id="svg14"
   sodipodi:docname="ticket.svg"
   inkscape:version="1.1.2 (b8e25be833, 2022-02-05)"
   xmlns:inkscape="http://www.inkscape.org/namespaces/inkscape"
   xmlns:sodipodi="http://sodipodi.sourceforge.net/DTD/sodipodi-0.dtd"
   xmlns="http://www.w3.org/2000/svg"
   xmlns:svg="http://www.w3.org/2000/svg"
   xmlns:rdf="http://www.w3.org/1999/02/22-rdf-syntax-ns#"
   xmlns:cc="http://creativecommons.org/ns#"
   xmlns:dc="http://purl.org/dc/elements/1.1/">
  <metadata
     id="metadata18">
    <rdf:RDF>
      <cc:Work
         rdf:about="">
        <dc:format>image/svg+xml</dc:format>
        <dc:type
           rdf:resource="http://purl.org/dc/dcmitype/StillImage" />
        <dc:title>Group</dc:title>
      </cc:Work>
    </rdf:RDF>
  </metadata>
  <sodipodi:namedview
     pagecolor="#ffffff"
     bordercolor="#666666"
     borderopacity="1"
     objecttolerance="10"
     gridtolerance="10"
     guidetolerance="10"
     inkscape:pageopacity="0"
     inkscape:pageshadow="2"
     inkscape:window-width="1920"
     inkscape:window-height="1057"
     id="namedview16"
     showgrid="false"
     fit-margin-top="0"
     fit-margin-left="0"
     fit-margin-right="0"
     fit-margin-bottom="0"
     inkscape:zoom="8.48"
     inkscape:cx="50"
     inkscape:cy="50"
     inkscape:window-x="-8"
     inkscape:window-y="-8"
     inkscape:window-maximized="1"
     inkscape:current-layer="svg14"
     inkscape:pagecheckerboard="0" />
  <!-- Generator: Sketch 45.1 (43504) - http://www.bohemiancoding.com/sketch -->
  <title
     id="title2">Group</title>
  <desc
     id="desc4">Created with Sketch.</desc>
  <defs
     id="defs6" />
  <g
     id="Symbols"
     style="fill:none;fill-rule:evenodd;stroke:none;stroke-width:1"
     transform="translate(-2.184491,66.663231)">
    <g
       id="institucional/logo-ticket-pt" />
  </g>
  <path
     inkscape:connector-curvature="0"
     style="fill:#d52b1e;fill-rule:evenodd;stroke:none;stroke-width:1.35795"
     d="M 80.396435,52.828873 H 68.271862 c 0.459463,2.63285 2.969798,3.643315 5.143891,3.643315 1.377682,0 2.602228,-0.3063 3.796477,-0.856962 l -0.336595,3.612353 c -1.347413,0.551002 -2.969798,0.765422 -4.592536,0.765422 -5.38858,0 -9.185071,-3.153243 -9.185071,-8.511188 0,-4.6538 3.398286,-8.143973 8.603094,-8.143973 5.878326,0 8.817488,3.735218 8.695313,9.491033 z m -21.921894,6.858155 c -0.245045,-0.581977 -0.612613,-1.530832 -0.918575,-2.48004 l -0.70416,-2.357525 C 56.484237,53.594635 55.99449,53.073915 54.80024,53.073915 h -2.02059 v 6.613113 H 48.095227 V 38.07178 h 4.684423 v 11.909814 h 0.520721 l 4.439033,-6.337446 h 5.204782 l -5.235412,6.612777 h 0.275677 c 2.081829,0 2.694102,1.163617 3.214822,2.878248 l 0.887951,2.969798 c 0.30596,1.102017 0.949207,2.663484 1.438599,3.582057 z M 43.472064,56.104971 c 1.224538,0 2.235006,-0.336935 3.000427,-0.704166 l -0.428485,3.88837 c -0.979836,0.489406 -2.357871,0.734448 -3.551778,0.734448 -5.05199,0 -8.541819,-3.275758 -8.541819,-8.38866 0,-5.051651 3.428911,-8.297123 8.511189,-8.297123 1.867437,0 3.306733,0.367224 4.775971,1.040754 l -1.347061,3.612696 c -0.70416,-0.428485 -1.683652,-0.765078 -2.72475,-0.765078 -2.571598,0 -4.255594,1.683653 -4.255594,4.408751 0,2.69412 1.775545,4.50029 4.5619,4.470008 z M 27.734798,41.592583 h 4.775971 V 38.07178 h -4.775971 z m 0,18.094445 h 4.775971 V 43.644148 H 27.734798 Z M 81.407593,51.022691 V 40.123 l 4.775967,-1.928697 v 5.755806 h 3.214501 l -0.642908,3.582066 h -2.63285 v 3.67396 c 0,3.568641 1.35256,6.082072 2.786692,8.100246 C 89.621077,56.31973 90,53.204007 90,49.99949 89.999661,27.908258 72.091058,10 49.999834,10 32.06301,10 16.883979,21.80622 11.808928,38.07178 h 14.884428 l -0.581638,4.286224 H 19.896452 V 59.687028 H 14.813829 V 42.358004 H 10.732037 C 10.253649,44.831859 10,47.385904 10,49.99949 c 3.44e-4,22.091578 17.908601,39.999826 40.000177,39.999826 18.750417,0 34.484926,-12.902027 38.816247,-30.312288 h -4.714711 c -0.82668,-1.438953 -2.724756,-4.04152 -2.69412,-8.664337 z m -9.553429,-4.378392 c -2.020591,0 -3.30638,1.316429 -3.704586,3.061688 h 7.195103 c -0.245042,-1.928699 -1.592102,-3.061688 -3.490517,-3.061688"
     id="Combined-Shape-2"
     inkscape:export-filename="C:\Users\suitedoalex\sites\ticket-logo-14.png"
     inkscape:export-xdpi="81.477043"
     inkscape:export-ydpi="81.477043" />
</svg>
