<?xml version="1.0" encoding="UTF-8" standalone="no"?>
<svg
   height="100"
   width="100"
   viewBox="-25.2249 -28.885 18.217983 21.66375"
   version="1.1"
   id="svg16"
   sodipodi:docname="trip_advisor.svg"
   inkscape:version="1.1.2 (b8e25be833, 2022-02-05)"
   xmlns:inkscape="http://www.inkscape.org/namespaces/inkscape"
   xmlns:sodipodi="http://sodipodi.sourceforge.net/DTD/sodipodi-0.dtd"
   xmlns="http://www.w3.org/2000/svg"
   xmlns:svg="http://www.w3.org/2000/svg">
  <defs
     id="defs20" />
  <sodipodi:namedview
     id="namedview18"
     pagecolor="#ffffff"
     bordercolor="#666666"
     borderopacity="1.0"
     inkscape:pageshadow="2"
     inkscape:pageopacity="0.0"
     inkscape:pagecheckerboard="0"
     showgrid="false"
     inkscape:zoom="8.48"
     inkscape:cx="50"
     inkscape:cy="50"
     inkscape:window-width="1920"
     inkscape:window-height="1057"
     inkscape:window-x="-8"
     inkscape:window-y="-8"
     inkscape:window-maximized="1"
     inkscape:current-layer="svg16" />
  <g
     id="g1096"
     transform="matrix(0.15455171,0,0,0.15455171,-29.777285,-23.187109)">
    <path
       d="M 88.276,0 C 73.608,0 60.356,3.694 49.905,10.523 l -17.58,0.016 c 0,0 4.148,5.537 5.494,11.121 -3.425,4.658 -5.48,10.386 -5.48,16.6 0,15.48 12.6,28.053 28.085,28.053 8.847,0 16.736,-4.105 21.89,-10.514 l 5.972,8.928 6.031,-9.004 a 27.794,27.794 0 0 0 10.307,8.121 c 6.82,3.134 14.446,3.44 21.482,0.848 14.53,-5.363 21.98,-21.544 16.615,-36.06 a 27.786,27.786 0 0 0 -3.808,-6.997 c 1.324,-5.62 5.521,-11.23 5.521,-11.23 L 125.7,10.392 C 115.19,3.603 102.42,0 88.274,0 Z"
       id="path2" />
    <path
       fill="#fcc40f"
       d="m 115.482,10.318 a 28.015,28.015 0 0 0 -8.839,1.695 C 99.604,14.618 94.004,19.8 90.866,26.616 89.448,29.691 88.646,32.942 88.391,36.213 87.348,21.873 75.513,10.497 60.978,10.21 69.02,6.77 78.256,4.9 88.27,4.9 c 10.08,0 19.18,1.817 27.213,5.418"
       id="path4" />
    <path
       fill="#ffffff"
       d="m 60.424,15.848 c -12.358,0 -22.414,10.051 -22.414,22.412 0,12.348 10.057,22.4 22.414,22.4 12.35,0 22.404,-10.053 22.404,-22.4 0,-12.361 -10.053,-22.412 -22.404,-22.412 z m 54.389,0.1 a 22.324,22.324 0 0 0 -7.694,1.386 22.263,22.263 0 0 0 -12.596,11.646 22.277,22.277 0 0 0 -0.66,17.137 v 0.004 a 22.222,22.222 0 0 0 11.637,12.586 22.276,22.276 0 0 0 17.145,0.684 c 11.592,-4.293 17.54,-17.212 13.264,-28.793 -3.344,-9.06 -11.959,-14.67 -21.096,-14.65 z"
       id="path6" />
    <path
       fill="#000a12"
       d="m 60.075,24.147 c -7.655,0 -13.88,6.221 -13.88,13.861 0,7.644 6.225,13.869 13.88,13.869 7.635,0 13.85,-6.225 13.85,-13.869 0,-7.64 -6.215,-13.861 -13.85,-13.861 z m 56.246,0 c -7.648,0 -13.87,6.221 -13.87,13.861 0,7.644 6.222,13.869 13.87,13.869 7.642,0 13.859,-6.225 13.859,-13.869 0,-7.64 -6.217,-13.861 -13.86,-13.861 z"
       id="path8" />
    <path
       fill="#ffffff"
       d="m 60.075,28.922 c -5.023,0 -9.108,4.077 -9.108,9.086 0,5.011 4.085,9.098 9.108,9.098 5,0 9.072,-4.087 9.072,-9.098 0,-5.009 -4.072,-9.086 -9.072,-9.086 z m 56.246,0 c -5.013,0 -9.092,4.077 -9.092,9.086 0,5.011 4.08,9.098 9.092,9.098 5.009,0 9.082,-4.087 9.082,-9.098 0,-5.009 -4.073,-9.086 -9.082,-9.086 z"
       id="path10" />
    <path
       fill="#ef6a45"
       d="m 64.72,38.006 a 4.675,4.675 0 0 1 -4.666,4.669 4.67,4.67 0 0 1 -4.667,-4.669 4.667,4.667 0 0 1 9.333,0"
       id="path12" />
    <path
       d="m 116.322,33.342 a 4.657,4.657 0 0 0 -4.662,4.666 4.664,4.664 0 0 0 4.662,4.668 4.668,4.668 0 0 0 0,-9.334 z"
       id="path14"
       style="fill:#00b087;fill-opacity:1" />
  </g>
</svg>
