<?xml version="1.0" encoding="UTF-8" standalone="no"?>
<!-- Generator: Adobe Illustrator 18.0.0, SVG Export Plug-In . SVG Version: 6.00 Build 0)  -->

<svg
   version="1.1"
   id="Capa_1"
   x="0px"
   y="0px"
   viewBox="0 0 100 100"
   xml:space="preserve"
   sodipodi:docname="twitter.svg"
   width="100"
   height="100"
   inkscape:version="1.1.2 (b8e25be833, 2022-02-05)"
   xmlns:inkscape="http://www.inkscape.org/namespaces/inkscape"
   xmlns:sodipodi="http://sodipodi.sourceforge.net/DTD/sodipodi-0.dtd"
   xmlns="http://www.w3.org/2000/svg"
   xmlns:svg="http://www.w3.org/2000/svg"><defs
   id="defs43" /><sodipodi:namedview
   id="namedview41"
   pagecolor="#ffffff"
   bordercolor="#666666"
   borderopacity="1.0"
   inkscape:pageshadow="2"
   inkscape:pageopacity="0.0"
   inkscape:pagecheckerboard="0"
   showgrid="false"
   width="100px"
   inkscape:zoom="2.7446813"
   inkscape:cx="55.015495"
   inkscape:cy="144.27905"
   inkscape:window-width="1920"
   inkscape:window-height="1057"
   inkscape:window-x="-8"
   inkscape:window-y="-8"
   inkscape:window-maximized="1"
   inkscape:current-layer="Capa_1" />
<g
   id="g8"
   transform="matrix(0.7130379,0,0,0.7130379,9.9992873,10)">
	<circle
   style="fill:#55acee"
   cx="56.098999"
   cy="56.098"
   r="56.098"
   id="circle2" />
	<g
   id="g6">
		<path
   style="fill:#f1f2f2"
   d="m 90.461,40.316 c -2.404,1.066 -4.99,1.787 -7.702,2.109 2.769,-1.659 4.894,-4.284 5.897,-7.417 -2.591,1.537 -5.462,2.652 -8.515,3.253 -2.446,-2.605 -5.931,-4.233 -9.79,-4.233 -7.404,0 -13.409,6.005 -13.409,13.409 0,1.051 0.119,2.074 0.349,3.056 -11.144,-0.559 -21.025,-5.897 -27.639,-14.012 -1.154,1.98 -1.816,4.285 -1.816,6.742 0,4.651 2.369,8.757 5.965,11.161 -2.197,-0.069 -4.266,-0.672 -6.073,-1.679 -0.001,0.057 -0.001,0.114 -0.001,0.17 0,6.497 4.624,11.916 10.757,13.147 -1.124,0.308 -2.311,0.471 -3.532,0.471 -0.866,0 -1.705,-0.083 -2.523,-0.239 1.706,5.326 6.657,9.203 12.526,9.312 -4.59,3.597 -10.371,5.74 -16.655,5.74 -1.08,0 -2.15,-0.063 -3.197,-0.188 5.931,3.806 12.981,6.025 20.553,6.025 24.664,0 38.152,-20.432 38.152,-38.153 0,-0.581 -0.013,-1.16 -0.039,-1.734 2.622,-1.89 4.895,-4.251 6.692,-6.94 z"
   id="path4" />
	</g>
</g>
<g
   id="g10">
</g>
<g
   id="g12">
</g>
<g
   id="g14">
</g>
<g
   id="g16">
</g>
<g
   id="g18">
</g>
<g
   id="g20">
</g>
<g
   id="g22">
</g>
<g
   id="g24">
</g>
<g
   id="g26">
</g>
<g
   id="g28">
</g>
<g
   id="g30">
</g>
<g
   id="g32">
</g>
<g
   id="g34">
</g>
<g
   id="g36">
</g>
<g
   id="g38">
</g>
</svg>
