<?xml version="1.0" encoding="UTF-8" standalone="no"?>
<svg
   height="100"
   width="100"
   viewBox="-63.81 -23.875 46.085 17.90625"
   version="1.1"
   id="svg8"
   sodipodi:docname="Wargaming_(company)-Logo.wine.svg"
   inkscape:version="1.1.2 (b8e25be833, 2022-02-05)"
   xmlns:inkscape="http://www.inkscape.org/namespaces/inkscape"
   xmlns:sodipodi="http://sodipodi.sourceforge.net/DTD/sodipodi-0.dtd"
   xmlns="http://www.w3.org/2000/svg"
   xmlns:svg="http://www.w3.org/2000/svg">
  <defs
     id="defs12" />
  <sodipodi:namedview
     id="namedview10"
     pagecolor="#ffffff"
     bordercolor="#666666"
     borderopacity="1.0"
     inkscape:pageshadow="2"
     inkscape:pageopacity="0.0"
     inkscape:pagecheckerboard="0"
     showgrid="false"
     inkscape:zoom="8.48"
     inkscape:cx="50"
     inkscape:cy="50"
     inkscape:window-width="1920"
     inkscape:window-height="1057"
     inkscape:window-x="-8"
     inkscape:window-y="-8"
     inkscape:window-maximized="1"
     inkscape:current-layer="svg8" />
  <path
     d="m -40.7675,-33.355875 c 10.202466,0 18.434,8.26152 18.434,18.4147 0,10.15317 -8.231534,18.4533 -18.434,18.4533 -10.202466,0 -18.434,-8.26152 -18.434,-18.4533 0,-10.19178 8.27018,-18.4147 18.434,-18.4147 z m 0,3.51308 c 8.27018,0 14.955887,6.6787 14.955887,14.94022 0,5.48195 -2.975719,10.3076 -7.419975,12.89415 0.927497,-3.24284 1.313954,-6.56289 1.159371,-10.38481 0.966143,0.27024 1.507183,0.42466 2.473325,0.7335 -1.120726,-2.81818 -2.318742,-5.36613 -3.903216,-7.95268 -1.391245,2.66377 -3.284885,5.17311 -5.178524,7.14197 l 3.091656,-0.19302 c -2.666553,4.74844 -6.415186,7.06475 -11.168608,7.72104 -1.08208,-5.36612 -0.27052,-14.12951 5.796856,-18.22167 l 0.618331,2.934 c 1.198017,-1.89166 3.516759,-4.401 5.255815,-6.13823 -2.743845,-1.08095 -5.912792,-1.42839 -9.004448,-0.84932 0.502394,0.42466 1.120725,0.96513 1.623119,1.38979 -6.840289,2.89539 -10.588922,7.64384 -13.062247,13.16439 -0.115938,-0.7335 -0.154583,-1.50561 -0.154583,-2.23911 0,-8.26152 6.685707,-14.94022 14.917241,-14.94022 z"
     clip-rule="evenodd"
     fill-rule="evenodd"
     id="path2"
     style="stroke-width:0.386255;fill:#333333;fill-opacity:1" />
</svg>
