<?xml version="1.0" encoding="UTF-8" standalone="no"?>
<svg
   height="100"
   width="100"
   viewBox="-12.90591 -21.521775 9.320935 16.141331"
   version="1.1"
   id="svg4"
   sodipodi:docname="Xbox_(app)-Logo.wine.svg"
   inkscape:version="1.1.2 (b8e25be833, 2022-02-05)"
   xmlns:inkscape="http://www.inkscape.org/namespaces/inkscape"
   xmlns:sodipodi="http://sodipodi.sourceforge.net/DTD/sodipodi-0.dtd"
   xmlns="http://www.w3.org/2000/svg"
   xmlns:svg="http://www.w3.org/2000/svg">
  <defs
     id="defs8" />
  <sodipodi:namedview
     id="namedview6"
     pagecolor="#ffffff"
     bordercolor="#666666"
     borderopacity="1.0"
     inkscape:pageshadow="2"
     inkscape:pageopacity="0.0"
     inkscape:pagecheckerboard="0"
     showgrid="false"
     inkscape:zoom="8.48"
     inkscape:cx="50"
     inkscape:cy="50"
     inkscape:window-width="1920"
     inkscape:window-height="1057"
     inkscape:window-x="-8"
     inkscape:window-y="-8"
     inkscape:window-maximized="1"
     inkscape:current-layer="svg4" />
  <path
     d="m -8.8892975,-7.0211002 c -0.9947515,-0.09525 -2.0018105,-0.4522497 -2.8668895,-1.0163997 -0.724902,-0.4724998 -0.888493,-0.6670497 -0.888493,-1.0547997 0,-0.7789497 0.856975,-2.1434994 2.323288,-3.6986984 0.8325121,-0.8835 1.9923553,-1.9185 2.1176748,-1.8906 0.2440354,0.05445 2.1936167,1.9551 2.9236215,2.849999 1.1541401,1.4145 1.6845342,2.5730994 1.4149846,3.0895494 -0.2048635,0.3925499 -1.4763686,1.1599496 -2.4103366,1.4546995 -0.7699271,0.243 -1.7810379,0.3459 -2.6138498,0.2662499 z m -4.7345255,-2.8810491 c -0.602434,-0.9236997 -0.906803,-1.8329997 -1.053585,-3.1481987 -0.04863,-0.43425 -0.03152,-0.6825 0.110012,-1.5741 0.176047,-1.11 0.808948,-2.395499 1.56987,-3.185999 0.32388,-0.336 0.352696,-0.345 0.747715,-0.2115 0.478765,0.162 0.990549,0.5154 1.78449,1.233 l 0.463757,0.4191 -0.253641,0.310499 c -1.174852,1.4415 -2.414839,3.485999 -2.881598,4.750499 -0.253641,0.687 -0.355697,1.3769997 -0.246137,1.6642496 0.07354,0.1941 0.006,0.1218 -0.241634,-0.2570999 z m 10.573814,0.1570499 c 0.059583,-0.2903996 -0.015759,-0.8234996 -0.1921064,-1.3613996 -0.3819619,-1.16475 -1.6590202,-3.331499 -2.8316205,-4.804799 l -0.3692048,-0.4638 0.3995216,-0.366449 c 0.5213891,-0.4785 0.8833899,-0.765 1.2742067,-1.00845 0.308121,-0.192 0.7486151,-0.36195 0.9380202,-0.36195 0.1166147,0 0.5276928,0.4275 0.8593766,0.8925 0.5138851,0.72 0.8917946,1.594499 1.0833015,2.503499 0.1238185,0.588 0.1341742,1.845 0.019961,2.431499 -0.094552,0.4812 -0.2926629,1.1049 -0.4847694,1.52805 -0.1455808,0.31695 -0.5042797,0.9326996 -0.661867,1.1330996 -0.081045,0.1030499 -0.081045,0.1029 -0.03602,-0.1194 z m -5.7327293,-8.5867476 c -0.5412001,-0.2745 -1.3759627,-0.56925 -1.8370187,-0.64875 -0.16149,-0.02775 -0.437192,-0.0435 -0.61234,-0.0345 -0.380611,0.0192 -0.363652,-6.08e-4 0.246587,-0.28875 0.507281,-0.23955 0.930516,-0.3804 1.5053349,-0.501 0.6461083,-0.135749 1.8610322,-0.137249 2.4969349,-0.0033 0.6866307,0.14475 1.4954293,0.4455 1.9510819,0.726 l 0.1356752,0.0831 -0.3106723,-0.0156 c -0.6177424,-0.0312 -1.5179418,0.21825 -2.4844778,0.68805 -0.2914616,0.1419 -0.5448022,0.255 -0.5634124,0.252 -0.01846,-0.0036 -0.256042,-0.11925 -0.528293,-0.25725 z"
     fill="#107c10"
     id="path2"
     style="stroke-width:0.150042" />
</svg>
