<?xml version="1.0" encoding="UTF-8" standalone="no"?>
<svg
   height="100"
   width="100"
   viewBox="-150 -249.37925 108.33333 187.03444"
   version="1.1"
   id="svg8"
   sodipodi:docname="American_Express-Logo.wine.svg"
   inkscape:version="1.1.2 (b8e25be833, 2022-02-05)"
   xmlns:inkscape="http://www.inkscape.org/namespaces/inkscape"
   xmlns:sodipodi="http://sodipodi.sourceforge.net/DTD/sodipodi-0.dtd"
   xmlns="http://www.w3.org/2000/svg"
   xmlns:svg="http://www.w3.org/2000/svg">
  <defs
     id="defs12" />
  <sodipodi:namedview
     id="namedview10"
     pagecolor="#ffffff"
     bordercolor="#666666"
     borderopacity="1.0"
     inkscape:pageshadow="2"
     inkscape:pageopacity="0.0"
     inkscape:pagecheckerboard="0"
     showgrid="false"
     width="100px"
     inkscape:zoom="8.48"
     inkscape:cx="50"
     inkscape:cy="50"
     inkscape:window-width="1920"
     inkscape:window-height="1057"
     inkscape:window-x="-8"
     inkscape:window-y="-8"
     inkscape:window-maximized="1"
     inkscape:current-layer="svg8" />
  <g
     id="g832"
     transform="matrix(0.14962755,0,0,0.15,-170.64711,-230.67581)">
    <path
       d="m 0,0 h 997.517 v 538.49 l -49.375,77.147 49.375,68.661 V 997.517 H 0 V 489.887 L 30.859,454.399 0,420.454 Z"
       fill="#016fd0"
       id="path2" />
    <path
       d="m 193.64,695.099 v -156.61 h 165.82 l 17.791,23.193 18.38,-23.193 H 997.517 V 684.3 c 0,0 -15.74,10.643 -33.945,10.8 H 630.295 L 610.237,670.412 V 695.1 h -65.73 v -42.142 c 0,0 -8.979,5.882 -28.39,5.882 h -22.373 v 36.26 h -99.52 L 376.458,671.41 358.42,695.1 Z M 0,420.454 37.393,333.277 h 64.668 l 21.22,48.833 v -48.833 h 80.388 l 12.633,35.295 12.247,-35.295 h 360.858 v 17.744 c 0,0 18.97,-17.744 50.146,-17.744 l 117.085,0.41 20.854,48.193 v -48.603 h 67.273 l 18.515,27.683 v -27.683 h 67.89 v 156.61 h -67.89 l -17.744,-27.774 v 27.773 h -98.838 l -9.94,-24.687 h -26.57 l -9.779,24.687 h -67.028 c -26.826,0 -43.974,-17.381 -43.974,-17.381 v 17.381 H 488.343 L 468.285,465.2 v 24.687 H 92.481 L 82.548,465.2 H 56.06 L 46.2,489.886 H 0 Z"
       fill="#ffffff"
       id="path4" />
    <path
       d="M 50.628,352.584 0.193,469.848 h 32.836 l 9.306,-23.482 h 54.1 l 9.257,23.482 h 33.56 L 88.863,352.584 Z m 18.66,27.29 16.49,41.034 H 52.75 Z m 73.435,89.954 V 352.564 l 46.661,0.173 27.14,75.605 26.49,-75.778 h 46.289 v 117.264 h -29.316 v -86.405 l -31.076,86.405 h -25.71 l -31.162,-86.405 v 86.405 z m 166.638,0 V 352.564 h 95.663 v 26.23 h -66.038 v 20.058 h 64.495 v 24.688 h -64.495 v 20.83 h 66.038 v 25.458 z M 421.997,352.584 v 117.264 h 29.316 v -41.66 h 12.343 l 35.15,41.66 h 35.826 l -38.574,-43.203 c 15.831,-1.336 32.161,-14.923 32.161,-36.018 0,-24.676 -19.368,-38.043 -40.984,-38.043 z m 29.316,26.23 h 33.51 c 8.04,0 13.887,6.288 13.887,12.343 0,7.79 -7.577,12.344 -13.452,12.344 H 451.313 Z M 570.12,469.828 H 540.187 V 352.564 h 29.933 z m 70.975,0 h -6.46 c -31.262,0 -50.243,-24.63 -50.243,-58.15 0,-34.349 18.768,-59.114 58.246,-59.114 h 32.402 v 27.773 h -33.586 c -16.026,0 -27.36,12.507 -27.36,31.63 0,22.71 12.96,32.248 31.63,32.248 h 7.715 z m 63.792,-117.244 -50.435,117.264 h 32.836 l 9.305,-23.482 h 54.1 l 9.258,23.482 H 793.51 L 743.123,352.584 Z m 18.66,27.29 16.49,41.034 h -33.029 z m 73.386,89.954 V 352.564 h 37.272 l 47.59,73.676 v -73.676 h 29.317 v 117.264 h -36.067 l -48.796,-75.604 v 75.604 z M 213.699,675.04 V 557.776 h 95.662 v 26.23 h -66.038 v 20.059 h 64.495 v 24.687 h -64.495 v 20.83 h 66.038 v 25.458 z m 468.748,0 V 557.776 h 95.662 v 26.23 h -66.038 v 20.059 h 64.187 v 24.687 H 712.07 v 20.83 h 66.038 v 25.458 z m -369.373,0 46.578,-57.908 -47.687,-59.356 H 348.9 l 28.4,36.693 28.497,-36.693 h 35.488 l -47.06,58.632 46.663,58.632 H 403.96 L 376.384,638.926 349.479,675.04 Z M 444.37,557.796 V 675.06 h 30.087 v -37.03 h 30.859 c 26.111,0 45.903,-13.853 45.903,-40.792 0,-22.317 -15.523,-39.442 -42.094,-39.442 z m 30.087,26.52 h 32.498 c 8.436,0 14.465,5.17 14.465,13.5 0,7.826 -5.999,13.501 -14.561,13.501 h -32.402 z m 89.491,-26.54 V 675.04 h 29.316 v -41.66 h 12.344 l 35.15,41.66 h 35.825 L 638.01,631.838 c 15.83,-1.336 32.16,-14.924 32.16,-36.019 0,-24.676 -19.368,-38.043 -40.984,-38.043 z m 29.316,26.23 h 33.511 c 8.039,0 13.887,6.288 13.887,12.344 0,7.79 -7.577,12.343 -13.453,12.343 h -33.945 z m 198.423,91.034 v -25.458 h 58.671 c 8.681,0 12.44,-4.692 12.44,-9.837 0,-4.93 -3.747,-9.913 -12.44,-9.913 h -26.513 c -23.045,0 -35.88,-14.04 -35.88,-35.121 0,-18.803 11.753,-36.935 46,-36.935 h 57.088 l -12.343,26.385 h -49.375 c -9.438,0 -12.343,4.952 -12.343,9.682 0,4.86 3.59,10.222 10.8,10.222 h 27.773 c 25.69,0 36.838,14.572 36.838,33.655 0,20.517 -12.422,37.32 -38.236,37.32 z m 107.597,0 v -25.458 h 58.67 c 8.682,0 12.44,-4.692 12.44,-9.837 0,-4.93 -3.746,-9.913 -12.44,-9.913 h -26.512 c -23.046,0 -35.88,-14.04 -35.88,-35.121 0,-18.803 11.753,-36.935 45.999,-36.935 h 57.089 l -12.344,26.385 h -49.374 c -9.438,0 -12.344,4.952 -12.344,9.682 0,4.86 3.59,10.222 10.801,10.222 h 27.773 c 25.69,0 36.838,14.572 36.838,33.655 0,20.517 -12.422,37.32 -38.236,37.32 z"
       fill="#016fd0"
       id="path6" />
  </g>
</svg>
