<?xml version="1.0" encoding="UTF-8" standalone="no"?>
<svg
   width="100"
   height="100"
   viewBox="0 -72.99 99.999999 99.999999"
   version="1.1"
   id="svg8"
   sodipodi:docname="banco-do-brasil-.svg"
   inkscape:version="1.1.2 (b8e25be833, 2022-02-05)"
   xmlns:inkscape="http://www.inkscape.org/namespaces/inkscape"
   xmlns:sodipodi="http://sodipodi.sourceforge.net/DTD/sodipodi-0.dtd"
   xmlns="http://www.w3.org/2000/svg"
   xmlns:svg="http://www.w3.org/2000/svg">
  <defs
     id="defs12" />
  <sodipodi:namedview
     id="namedview10"
     pagecolor="#ffffff"
     bordercolor="#666666"
     borderopacity="1.0"
     inkscape:pageshadow="2"
     inkscape:pageopacity="0.0"
     inkscape:pagecheckerboard="0"
     showgrid="false"
     inkscape:zoom="8.48"
     inkscape:cx="50"
     inkscape:cy="50"
     inkscape:window-width="1920"
     inkscape:window-height="1057"
     inkscape:window-x="-8"
     inkscape:window-y="-8"
     inkscape:window-maximized="1"
     inkscape:current-layer="svg8"
     inkscape:snap-smooth-nodes="true"
     inkscape:snap-intersection-paths="true"
     inkscape:object-paths="true"
     inkscape:snap-object-midpoints="true"
     inkscape:snap-center="true" />
  <rect
     style="fill:#fff22d;fill-opacity:1;stroke:none;stroke-width:20.2229;stroke-linecap:round;stroke-linejoin:round;paint-order:markers stroke fill"
     id="rect1065"
     width="100"
     height="100"
     x="0"
     y="-72.989998"
     ry="9.8870878" />
  <g
     id="g885"
     style="fill:#2360a5;fill-opacity:1;stroke-width:0.279137"
     transform="matrix(3.5824639,0,0,3.5824639,-14.269613,-137.03699)">
    <path
       d="m 6.7745591,28.114291 11.1659999,-7.442 11.165,7.442 -13.259,8.838 -2.326,-1.551 10.7,-7.133 -6.513,-4.341 -3.024,2.016 2.326,1.55 -5.583,3.723 z"
       id="path835"
       style="fill:#2360a5;fill-opacity:1;stroke-width:0.279137" />
    <path
       d="m 29.104559,35.555291 -11.165,7.444 -11.1649999,-7.444 13.2589999,-8.838 2.326,1.551 -10.7,7.133 6.513,4.342 3.023,-2.016 -2.326,-1.551 5.583,-3.723 z"
       id="path833"
       style="fill:#2360a5;fill-opacity:1;stroke-width:0.279137" />
    <path
       d="m 29.104559,23.772291 -2.326,1.55 -2.326,-1.55 4.652,-3.103 z"
       id="path831"
       style="fill:#2360a5;fill-opacity:1;stroke-width:0.279137" />
    <path
       d="m 6.7745591,39.897291 2.326,-1.55 2.3259999,1.55 -4.6519999,3.102 z"
       id="path4"
       style="fill:#2360a5;fill-opacity:1;stroke-width:0.279137" />
  </g>
</svg>
