<?xml version="1.0" encoding="UTF-8" standalone="no"?>
<svg
   viewBox="0 0 99.999997 99.999999"
   height="100"
   width="100"
   xml:space="preserve"
   id="svg2"
   version="1.1"
   sodipodi:docname="1580768706wpdm_bradesco-logo.svg"
   inkscape:version="1.1.2 (b8e25be833, 2022-02-05)"
   xmlns:inkscape="http://www.inkscape.org/namespaces/inkscape"
   xmlns:sodipodi="http://sodipodi.sourceforge.net/DTD/sodipodi-0.dtd"
   xmlns="http://www.w3.org/2000/svg"
   xmlns:svg="http://www.w3.org/2000/svg"
   xmlns:rdf="http://www.w3.org/1999/02/22-rdf-syntax-ns#"
   xmlns:cc="http://creativecommons.org/ns#"
   xmlns:dc="http://purl.org/dc/elements/1.1/"><sodipodi:namedview
     pagecolor="#ffffff"
     bordercolor="#666666"
     borderopacity="1"
     objecttolerance="10"
     gridtolerance="10"
     guidetolerance="10"
     inkscape:pageopacity="0"
     inkscape:pageshadow="2"
     inkscape:window-width="1920"
     inkscape:window-height="1057"
     id="namedview18"
     showgrid="false"
     inkscape:zoom="8.48"
     inkscape:cx="50"
     inkscape:cy="50"
     inkscape:window-x="-8"
     inkscape:window-y="-8"
     inkscape:window-maximized="1"
     inkscape:current-layer="svg2"
     inkscape:pagecheckerboard="0" /><metadata
     id="metadata8"><rdf:RDF><cc:Work
         rdf:about=""><dc:format>image/svg+xml</dc:format><dc:type
           rdf:resource="http://purl.org/dc/dcmitype/StillImage" /></cc:Work></rdf:RDF></metadata><defs
     id="defs6" /><g
     id="g1023"
     transform="matrix(0.31865898,0,0,0.31865898,-61.530696,-41.868763)"><path
       id="path30"
       style="fill:#ce1c30;fill-opacity:1;fill-rule:nonzero;stroke:none;stroke-width:0.062237"
       d="m 343.17727,219.94192 c -14.59707,0 -30.55714,1.34058 -46.32178,4.02175 15.95944,-20.4903 41.26129,-33.70384 69.48268,-33.70384 20.82575,0 41.65089,7.85182 55.66418,19.53309 2.53056,2.1061 4.47671,2.29779 6.42349,0.38276 1.94615,-1.91503 1.75135,-3.83007 -0.38961,-6.31955 -18.2952,-21.25582 -45.15421,-35.61826 -76.87892,-35.04381 -41.4561,0.76614 -76.68413,27.00092 -90.11426,63.38531 -12.26132,3.83007 -23.54987,8.42565 -33.47606,13.97907 -2.72473,1.53227 -3.69812,3.4473 -2.72473,5.7451 0.97276,2.1061 2.91954,2.87224 5.64427,2.1061 8.56382,-2.48948 17.32182,-4.59559 26.47004,-6.51062 -0.97339,4.78727 -1.55717,9.76624 -1.55717,14.93689 -0.77859,33.51153 17.12701,65.29973 44.76461,82.7261 2.72474,1.72334 5.06049,1.72334 6.61767,-0.38276 1.55717,-2.10673 1.36236,-4.02176 -0.97339,-6.12848 -17.51662,-15.70241 -27.248,-39.06495 -27.248,-62.2358 0,-11.68127 2.33513,-22.97916 6.81184,-33.12877 9.1476,-0.76614 19.07379,-1.34059 29.97274,-1.34059 70.84567,0 130.59758,23.36254 130.59758,54.00183 0,15.51134 -19.65757,31.02206 -43.01388,41.36336 -5.64366,2.48949 -6.22744,4.21283 -5.44948,6.70231 0.77859,2.29779 3.30914,3.06393 6.22806,2.1061 40.87293,-13.40461 71.81906,-35.42657 71.81906,-62.0441 0,-36.19271 -58.38893,-64.15145 -132.34894,-64.15145"
       inkscape:connector-curvature="0" /><path
       id="path32"
       style="fill:#ce1c30;fill-opacity:1;fill-rule:nonzero;stroke:none;stroke-width:0.062237"
       d="m 377.00684,404.03161 v -77.53926 c 0,-2.9712 -2.86913,-4.05537 -5.23476,-2.70793 l -19.71234,11.34456 v 72.64246 l 21.17491,0.028 c 2.08245,0.002 3.77219,-1.68475 3.77219,-3.76783"
       inkscape:connector-curvature="0" /><path
       id="path34"
       style="fill:#ce1c30;fill-opacity:1;fill-rule:nonzero;stroke:none;stroke-width:0.062237"
       d="m 328.0655,351.74939 v 53.62032 c 0,1.34183 1.0879,2.42973 2.42973,2.42973 h 14.91573 v -68.8491 l -14.89021,8.57377 c -1.51796,0.8651 -2.45525,2.22747 -2.45525,4.22528"
       inkscape:connector-curvature="0" /></g></svg>
