<?xml version="1.0" encoding="UTF-8" standalone="no"?>
<svg
   viewBox="0 0 100 100"
   height="100"
   width="100"
   xml:space="preserve"
   id="svg2"
   version="1.1"
   sodipodi:docname="elo--.svg"
   inkscape:version="1.1.2 (b8e25be833, 2022-02-05)"
   xmlns:inkscape="http://www.inkscape.org/namespaces/inkscape"
   xmlns:sodipodi="http://sodipodi.sourceforge.net/DTD/sodipodi-0.dtd"
   xmlns="http://www.w3.org/2000/svg"
   xmlns:svg="http://www.w3.org/2000/svg"
   xmlns:rdf="http://www.w3.org/1999/02/22-rdf-syntax-ns#"
   xmlns:cc="http://creativecommons.org/ns#"
   xmlns:dc="http://purl.org/dc/elements/1.1/"><sodipodi:namedview
     pagecolor="#ffffff"
     bordercolor="#666666"
     borderopacity="1"
     objecttolerance="10"
     gridtolerance="10"
     guidetolerance="10"
     inkscape:pageopacity="0"
     inkscape:pageshadow="2"
     inkscape:window-width="1920"
     inkscape:window-height="1057"
     id="namedview90"
     showgrid="false"
     inkscape:zoom="8.48"
     inkscape:cx="50"
     inkscape:cy="50"
     inkscape:window-x="-8"
     inkscape:window-y="-8"
     inkscape:window-maximized="1"
     inkscape:current-layer="g10"
     fit-margin-top="0"
     fit-margin-left="0"
     fit-margin-right="0"
     fit-margin-bottom="0"
     inkscape:pagecheckerboard="0" /><metadata
     id="metadata8"><rdf:RDF><cc:Work
         rdf:about=""><dc:format>image/svg+xml</dc:format><dc:type
           rdf:resource="http://purl.org/dc/dcmitype/StillImage" /></cc:Work></rdf:RDF></metadata><defs
     id="defs6"><clipPath
       id="clipPath20"
       clipPathUnits="userSpaceOnUse"><path
         id="path18"
         d="M 0,595.28 H 595.28 V 0 H 0 Z"
         inkscape:connector-curvature="0" /></clipPath></defs><g
     transform="matrix(1.3333333,0,0,-1.3333333,-148.21892,501.73283)"
     id="g10"><g
       id="g924"
       transform="matrix(2.6094445,0,0,2.6094445,-190.98343,-545.27936)"><path
         id="path58"
         style="fill:#fbc707;fill-opacity:1;fill-rule:nonzero;stroke:none;stroke-width:0.433061"
         d="m 128.01813,345.21658 c 0.67428,0.22563 1.39489,0.34688 2.14582,0.34688 3.27091,0 6.00179,-2.3238 6.62799,-5.41369 l 4.63765,0.9471 c -1.06403,5.24783 -5.70341,9.19951 -11.26564,9.19951 -1.27623,0 -2.50093,-0.20743 -3.64637,-0.59069 z"
         inkscape:connector-curvature="0" /><path
         id="path62"
         style="fill:#38a7e4;fill-opacity:1;fill-rule:nonzero;stroke:none;stroke-width:0.433061"
         d="m 122.54485,330.18634 3.13709,3.5459 c -1.40052,1.24072 -2.28353,3.05048 -2.28353,5.06681 0,2.01547 0.88215,3.82436 2.28093,5.06378 l -3.13709,3.54634 c -2.37837,-2.10641 -3.87806,-5.18331 -3.87806,-8.61012 0,-3.42854 1.50142,-6.5063 3.88066,-8.61271"
         inkscape:connector-curvature="0" /><path
         id="path66"
         style="fill:#ef3120;fill-opacity:1;fill-rule:nonzero;stroke:none;stroke-width:0.433061"
         d="m 136.79017,337.44137 c -0.62751,-3.08643 -3.35622,-5.40677 -6.62627,-5.40677 -0.75179,0 -1.47413,0.12126 -2.14754,0.34818 l -1.50272,-4.48997 c 1.14587,-0.38369 2.37317,-0.58983 3.65026,-0.58983 5.55704,0 10.19555,3.94345 11.26391,9.18868 z"
         inkscape:connector-curvature="0" /></g></g></svg>
