<?xml version="1.0" encoding="UTF-8" standalone="no"?>
<!-- Created with Inkscape (http://www.inkscape.org/) -->

<svg
   width="100"
   height="100"
   viewBox="0 0 26.458333 26.458333"
   version="1.1"
   id="svg3145"
   inkscape:version="1.1.2 (b8e25be833, 2022-02-05)"
   sodipodi:docname="hipercard.svg"
   inkscape:export-filename="C:\Users\alex\sites\hipercard-logo-0.png"
   inkscape:export-xdpi="561.73999"
   inkscape:export-ydpi="561.73999"
   xmlns:inkscape="http://www.inkscape.org/namespaces/inkscape"
   xmlns:sodipodi="http://sodipodi.sourceforge.net/DTD/sodipodi-0.dtd"
   xmlns="http://www.w3.org/2000/svg"
   xmlns:svg="http://www.w3.org/2000/svg"
   xmlns:rdf="http://www.w3.org/1999/02/22-rdf-syntax-ns#"
   xmlns:cc="http://creativecommons.org/ns#"
   xmlns:dc="http://purl.org/dc/elements/1.1/">
  <defs
     id="defs3139">
    <clipPath
       clipPathUnits="userSpaceOnUse"
       id="clipPath2148">
      <path
         d="M 0,841.89 H 595.28 V 0 H 0 Z"
         id="path2146"
         inkscape:connector-curvature="0" />
    </clipPath>
  </defs>
  <sodipodi:namedview
     id="base"
     pagecolor="#ffffff"
     bordercolor="#666666"
     borderopacity="1.0"
     inkscape:pageopacity="0.0"
     inkscape:pageshadow="2"
     inkscape:zoom="8.48"
     inkscape:cx="50"
     inkscape:cy="50"
     inkscape:document-units="mm"
     inkscape:current-layer="layer1"
     showgrid="false"
     units="px"
     showguides="false"
     inkscape:window-width="1920"
     inkscape:window-height="1057"
     inkscape:window-x="-8"
     inkscape:window-y="-8"
     inkscape:window-maximized="1"
     inkscape:pagecheckerboard="0"
     width="100px" />
  <metadata
     id="metadata3142">
    <rdf:RDF>
      <cc:Work
         rdf:about="">
        <dc:format>image/svg+xml</dc:format>
        <dc:type
           rdf:resource="http://purl.org/dc/dcmitype/StillImage" />
      </cc:Work>
    </rdf:RDF>
  </metadata>
  <g
     inkscape:label="Camada 1"
     inkscape:groupmode="layer"
     id="layer1"
     transform="translate(0,-111.79188)">
    <g
       id="g915"
       transform="matrix(0.1378755,0,0,0.1378755,0.46131585,96.839948)">
      <path
         d="m 141.2678,237.4958 c 7.65611,0 14.34103,-2.35477 15.87927,-9.92635 1.53617,-7.57157 11.54087,-56.26922 11.54087,-56.26922 H 43.913731 c -7.662297,0 -14.371963,2.72799 -15.881328,9.92222 -1.511428,7.19217 -11.509942,56.26304 -11.509942,56.26304 z"
         style="fill:#b3131b;fill-opacity:1;fill-rule:nonzero;stroke:none;stroke-width:2.06197"
         id="path2152"
         inkscape:connector-curvature="0" />
      <path
         d="m 141.2678,238.04449 v -0.54849 -0.5526 c 7.59013,-0.033 13.86884,-2.2723 15.33697,-9.48715 1.43307,-7.04989 10.20471,-49.75751 11.4089,-55.60527 H 43.913731 c -7.57157,0.0227 -13.908018,2.64964 -15.343153,9.48302 -0.754682,3.59402 -3.633199,17.65875 -6.324076,30.82652 -2.319721,11.36973 -4.497166,22.05488 -5.051838,24.77257 l 124.073136,0.0103 v 0.5526 l -0.002,0.54849 -125.421669,-0.0124 0.13609,-0.65983 c 0,0 9.996453,-49.06881 11.509943,-56.2651 1.58772,-7.54889 8.670603,-10.38617 16.423627,-10.36143 H 169.36427 l -0.13609,0.66396 c 0,0.0247 -2.49912,12.17183 -5.19412,25.2963 -2.695,13.12035 -5.5797,27.18714 -6.34469,30.97086 -1.59597,7.88293 -8.60875,10.36967 -16.27311,10.36967 -0.0474,0 -0.099,0 -0.14846,-0.002"
         style="fill:#ffffff;fill-opacity:1;fill-rule:nonzero;stroke:none;stroke-width:2.06197"
         id="path2156"
         inkscape:connector-curvature="0" />
      <path
         d="m 29.965296,213.5736 1.037173,-5.29103 1.051607,-5.58382 0.901083,-5.62301 0.843348,-5.28484 0.07423,-0.33816 h 3.736298 c -0.03918,0.16908 -0.03918,0.27218 -0.07217,0.33816 -0.134029,0.63921 -0.402085,2.05373 -0.773241,4.23736 -0.202073,1.17945 -0.474254,2.52592 -0.775302,4.04353 l -0.06598,0.47425 h 0.30311 l 4.87657,0.0619 4.748727,-0.0619 h 0.37528 l 0.06392,-0.47425 c 0.202073,-1.31348 0.404147,-2.695 0.672204,-4.17756 0.542299,-2.961 0.575291,-3.16513 0.744372,-4.43943 h 3.798158 c -0.0598,0.23713 -0.0598,0.23713 -0.09898,0.33816 -0.06804,0.3361 -0.400023,2.08672 -0.975314,5.28278 l -1.041297,5.62301 -0.944385,5.58589 c -0.536113,3.16719 -0.808294,4.9178 -0.868091,5.28896 0,0.12784 0,0.12784 -0.03918,0.33198 H 43.7331 l 0.07217,-0.33198 c 0.09279,-0.40621 0.263932,-1.38152 0.529927,-2.93007 0.101037,-0.57941 0.305172,-1.54854 0.573229,-3.03316 l 0.540237,-2.96306 c 0.169082,-0.9052 0.270119,-1.44957 0.301049,-1.58359 0,-0.068 0.03505,-0.1629 0.06598,-0.33404 h -0.435077 c -0.63715,-0.0309 -2.928004,-0.0309 -5.115759,-0.0309 -2.187755,0 -3.641447,0 -4.313651,0.0289 h -0.433014 c -0.06805,0.6454 -0.101037,0.77324 -0.303111,1.9197 -0.169082,0.87428 -0.331978,1.88465 -0.503121,2.961 -0.268057,1.58772 -0.441263,2.59396 -0.507246,3.03316 -0.268057,1.61659 -0.439201,2.58778 -0.505184,2.93213 0,0.0598 0,0.19795 -0.03093,0.32992 h -3.771351 z"
         style="fill:#ffffff;fill-opacity:1;fill-rule:nonzero;stroke:none;stroke-width:2.06197"
         id="path2160"
         inkscape:connector-curvature="0" />
      <path
         d="m 50.935578,213.58783 0.707257,-3.60639 0.773241,-4.05178 0.643336,-3.926 c 0.32373,-1.99806 0.515493,-3.24968 0.577353,-3.76517 0,-0.066 0,-0.16289 0.03299,-0.32167 h 3.30947 c -0.02681,0.15878 -0.06186,0.25569 -0.08866,0.32167 -0.129905,0.51549 -0.35466,1.76711 -0.746435,3.76517 l -0.738187,3.926 -0.670142,4.05178 c -0.296924,1.89701 -0.49075,3.11976 -0.556733,3.60639 0,0.0619 0,0.19176 -0.02474,0.31754 h -3.317717 z m 3.381638,-19.82589 c 0,-1.6372 0.802108,-2.60633 2.218685,-2.60633 0.965004,0 1.447506,0.45363 1.447506,1.38565 0,1.6104 -0.839223,2.60633 -2.222808,2.60633 -0.804171,0 -1.286673,-0.32579 -1.418639,-0.93201 -0.02474,-0.16496 -0.02474,-0.2928 -0.02474,-0.45364"
         style="fill:#ffffff;fill-opacity:1;fill-rule:nonzero;stroke:none;stroke-width:2.06197"
         id="path2164"
         inkscape:connector-curvature="0" />
      <path
         d="m 55.923288,220.69298 c 0.15671,-0.7052 0.544361,-2.69912 1.156768,-6.04365 l 1.059855,-5.76322 0.934074,-5.53227 c 0.451573,-2.70325 0.711381,-4.40851 0.808294,-5.11576 0,-0.12991 0,-0.12991 0.02887,-0.32373 h 2.868207 l -0.07011,0.32373 -0.154648,0.89489 -0.06392,0.35673 c 1.544419,-1.3506 3.119768,-1.92589 5.24154,-1.92589 3.602269,0 5.534339,1.95888 5.534339,5.62919 0,2.02692 -0.546423,4.31159 -1.482559,6.34057 -1.517614,3.18369 -4.020851,4.79409 -7.398365,4.79409 -2.127958,0 -3.092962,-0.58147 -3.862079,-2.25167 l -0.06392,0.38146 -0.740249,4.76316 c -0.257747,1.61041 -0.457758,2.76717 -0.517555,3.4435 0,0.0289 0,0.15877 -0.02681,0.38559 h -3.350709 c 0.06186,-0.22682 0.06186,-0.22682 0.09898,-0.35672 m 6.429237,-18.85676 -1.059855,5.98798 c -0.06598,0.41858 -0.125781,0.8021 -0.125781,1.22687 0,2.08878 1.063979,3.12389 3.150698,3.12389 1.385647,0 2.511485,-0.49075 3.348646,-1.42276 1.319664,-1.50936 2.220747,-4.4683 2.220747,-7.17155 0,-2.6084 -1.156768,-3.89919 -3.668253,-3.89919 -1.513489,0 -2.769232,0.58354 -3.769289,1.67432 z"
         style="fill:#ffffff;fill-opacity:1;fill-rule:nonzero;stroke:none;stroke-width:2.06197"
         id="path2168"
         inkscape:connector-curvature="0" />
      <path
         d="m 80.598526,214.25921 c -4.336333,0 -6.468414,-1.8599 -6.468414,-5.7261 0,-2.1259 0.550547,-4.50542 1.484621,-6.49729 1.414515,-2.99398 4.057966,-4.47242 7.946851,-4.47242 3.699182,0 5.540525,1.41039 5.540525,4.21262 0,0.8021 -0.197949,2.06197 -0.517555,3.50535 l -0.35466,-0.033 c -0.577353,-0.0289 -2.383643,-0.0289 -5.408559,-0.0289 -2.573345,0 -4.146631,0 -4.756976,0.0289 l -0.329916,0.033 c -0.286614,1.44751 -0.31342,1.80629 -0.31342,2.83522 0,2.57747 1.474312,3.95899 4.243544,3.95899 1.80629,0 3.538348,-0.3526 5.474542,-1.19182 l -0.486626,2.57334 c -1.866087,0.5155 -4.057966,0.80211 -6.053957,0.80211 m -2.08878,-10.84392 c 0.354659,0.0351 1.546481,0.0351 3.542472,0.0351 h 0.513432 c 1.447506,0 2.445502,0 3.022855,-0.0351 h 0.2928 l 0.06186,-0.41859 c 0.06392,-0.38352 0.09898,-0.74024 0.09898,-1.05779 0,-1.57947 -1.066041,-2.34859 -3.123892,-2.34859 -2.608397,0 -4.088895,1.15471 -4.763161,3.82497 z"
         style="fill:#ffffff;fill-opacity:1;fill-rule:nonzero;stroke:none;stroke-width:2.06197"
         id="path2172"
         inkscape:connector-curvature="0" />
      <path
         d="m 89.577394,213.58783 0.711381,-3.60639 0.771179,-4.05178 0.643336,-3.926 c 0.321668,-1.99806 0.513431,-3.24968 0.579415,-3.76517 0,-0.066 0.03299,-0.16289 0.03299,-0.32167 h 2.892951 l -0.06186,0.32167 -0.379403,2.02692 -0.103099,0.44745 c 0.544362,-0.86397 0.740249,-1.09491 1.154706,-1.57947 0.909331,-1.0248 2.097028,-1.57329 3.350709,-1.57329 0.64746,0 1.193881,0.12991 1.800101,0.41858 l -0.41445,2.31766 c -0.709323,-0.22475 -1.288738,-0.31754 -1.899083,-0.31754 -1.927946,0 -3.637323,1.73618 -4.315713,4.40231 -0.251561,1.00006 -0.484564,2.15889 -0.701071,3.51155 -0.645398,4.02085 -0.715505,4.34045 -0.841286,6.01271 h -3.282663 z"
         style="fill:#ffffff;fill-opacity:1;fill-rule:nonzero;stroke:none;stroke-width:2.06197"
         id="path2176"
         inkscape:connector-curvature="0" />
      <path
         d="m 112.54717,200.42356 c -1.35266,-0.48044 -2.80016,-0.74231 -4.12395,-0.74231 -1.57329,0 -2.77129,0.38971 -3.56928,1.16089 -1.31966,1.25574 -2.34859,4.37757 -2.34859,7.17567 0,2.7383 1.19389,4.05797 3.63939,4.05797 1.44751,0 3.31359,-0.45157 4.59614,-1.09491 l -0.45157,2.44138 c -1.63927,0.55055 -3.37339,0.83716 -5.14257,0.83716 -2.51561,0 -3.89713,-0.58148 -4.96111,-2.02486 -0.707255,-1.02892 -0.995931,-2.09084 -0.995931,-3.79609 0,-2.22075 0.546423,-4.53635 1.577411,-6.56739 0.45363,-0.93408 1.09285,-1.76918 1.89908,-2.4785 1.41657,-1.28461 3.21874,-1.83309 6.14674,-1.83309 1.02893,0 2.11971,0.066 3.86002,0.22475 l 0.32167,0.0309 z"
         style="fill:#ffffff;fill-opacity:1;fill-rule:nonzero;stroke:none;stroke-width:2.06197"
         id="path2180"
         inkscape:connector-curvature="0" />
      <path
         d="m 117.37178,214.25921 c -3.25173,0 -4.79203,-1.35266 -4.79203,-4.17962 0,-4.18581 2.95687,-6.5942 8.07469,-6.5942 0.80211,0 2.38158,0.0598 3.43938,0.12578 l 0.0701,-0.35259 c 0.2227,-1.1609 0.2227,-1.25575 0.2227,-1.6434 0,-1.28667 -1.06192,-1.93413 -3.25174,-1.93413 -1.66813,0 -3.27647,0.26187 -5.3735,0.84335 l 0.64746,-2.64345 c 0.12578,0.033 0.22269,0.033 0.28661,0.033 0.51137,0 1.32173,-0.0639 2.4455,-0.19383 0.96501,-0.0949 1.93001,-0.15671 2.82903,-0.15671 3.82909,0 5.53847,0.998 5.53847,3.21668 0,0.57529 -0.0948,1.22275 -0.35466,2.63521 l -0.5155,2.93006 c -0.57323,3.12389 -0.89696,5.60239 -0.89696,7.04783 0,0.12784 0,0.31961 0.0268,0.51137 h -2.89501 v -0.25362 c 0,-0.4557 0.13196,-1.45163 0.25775,-2.38571 -1.44751,2.12796 -3.1507,2.99399 -5.7591,2.99399 m 6.04983,-8.81288 c -0.96912,-0.0948 -1.45163,-0.0948 -2.12383,-0.0948 -1.96506,0 -3.12183,0.25156 -4.02085,0.96294 -0.96294,0.74025 -1.54648,1.95888 -1.54648,3.31153 0,1.61453 0.965,2.47643 2.73005,2.47643 1.77536,0 3.35071,-0.96294 4.12808,-2.53622 0.48044,-1.03305 0.83303,-2.2888 1.15264,-4.09096 z"
         style="fill:#ffffff;fill-opacity:1;fill-rule:nonzero;stroke:none;stroke-width:2.06197"
         id="path2184"
         inkscape:connector-curvature="0" />
      <path
         d="m 128.53943,213.58783 0.70107,-3.60639 0.78149,-4.05178 0.64334,-3.926 c 0.31754,-1.99806 0.51137,-3.24968 0.57116,-3.76517 0,-0.066 0.0351,-0.16289 0.0351,-0.32167 h 2.89913 l -0.0722,0.32167 -0.38352,2.02692 -0.0949,0.44745 c 0.55054,-0.86397 0.74024,-1.09491 1.15883,-1.57947 0.9052,-1.0248 2.09084,-1.57329 3.34864,-1.57329 0.64128,0 1.1877,0.12991 1.80011,0.41858 l -0.41859,2.31766 c -0.70931,-0.22475 -1.28461,-0.31754 -1.9032,-0.31754 -1.92176,0 -3.62907,1.73618 -4.30334,4.40231 -0.25775,1.00006 -0.48456,2.15889 -0.70932,3.51155 -0.64333,4.02085 -0.70932,4.34045 -0.84128,6.01271 h -3.27854 z"
         style="fill:#ffffff;fill-opacity:1;fill-rule:nonzero;stroke:none;stroke-width:2.06197"
         id="path2188"
         inkscape:connector-curvature="0" />
      <path
         d="m 143.68216,214.25921 c -3.76517,0 -5.53434,-1.73618 -5.53434,-5.49722 0,-2.18982 0.54642,-4.50954 1.57535,-6.50553 1.54442,-3.08472 4.2188,-4.69306 7.75302,-4.69306 1.00212,0 1.99806,0.0928 2.80016,0.28662 0.26188,0.0949 0.42477,0.12784 0.90521,0.28867 l 0.0619,-0.38765 c 0.12991,-0.64333 0.29074,-1.66814 0.51343,-3.08677 0.25569,-1.54442 0.42065,-2.67026 0.5155,-3.3837 l 0.0351,-0.25569 h 3.2806 l -0.0619,0.22682 c -0.26187,1.29079 -0.64127,3.2208 -1.12584,5.85601 -0.87427,4.70336 -1.19182,6.47253 -1.67638,9.39641 -0.58148,3.57547 -0.83716,5.76116 -0.83716,7.17361 v 0.22682 h -2.99193 c 0.0289,-0.51137 0.0289,-0.67427 0.12991,-1.34853 0.0969,-0.51962 0.13196,-0.7052 0.19382,-1.25574 -1.28255,2.18981 -2.76511,2.95893 -5.5364,2.95893 m 3.95693,-14.60497 c -1.41452,0 -2.56716,0.38353 -3.41051,1.12584 -1.60627,1.41452 -2.70118,4.4683 -2.70118,7.62518 0,2.54242 1.03098,3.69712 3.27854,3.69712 1.67638,0 3.25379,-0.96294 3.95693,-2.44756 0.32785,-0.70107 0.58147,-1.57329 0.80829,-2.56716 0.38765,-1.96506 0.90314,-4.76522 1.19182,-6.47254 l 0.033,-0.35053 c -1.15677,-0.41652 -2.0661,-0.61035 -3.15688,-0.61035"
         style="fill:#ffffff;fill-opacity:1;fill-rule:nonzero;stroke:none;stroke-width:2.06197"
         id="path2192"
         inkscape:connector-curvature="0" />
    </g>
  </g>
</svg>
