<?xml version="1.0" encoding="UTF-8" standalone="no"?>
<!-- Created with Inkscape (http://www.inkscape.org/) -->

<svg
   width="100"
   height="100"
   viewBox="0 0 100 100"
   version="1.1"
   id="svg5"
   inkscape:version="1.1.2 (b8e25be833, 2022-02-05)"
   sodipodi:docname="outro--.svg"
   xmlns:inkscape="http://www.inkscape.org/namespaces/inkscape"
   xmlns:sodipodi="http://sodipodi.sourceforge.net/DTD/sodipodi-0.dtd"
   xmlns="http://www.w3.org/2000/svg"
   xmlns:svg="http://www.w3.org/2000/svg">
  <sodipodi:namedview
     id="namedview7"
     pagecolor="#ffffff"
     bordercolor="#666666"
     borderopacity="1.0"
     inkscape:pageshadow="2"
     inkscape:pageopacity="0.0"
     inkscape:pagecheckerboard="0"
     inkscape:document-units="px"
     showgrid="false"
     width="100px"
     inkscape:zoom="8.48"
     inkscape:cx="50"
     inkscape:cy="50"
     inkscape:window-width="1920"
     inkscape:window-height="1057"
     inkscape:window-x="-8"
     inkscape:window-y="-8"
     inkscape:window-maximized="1"
     inkscape:current-layer="layer1" />
  <defs
     id="defs2" />
  <g
     inkscape:label="Camada 1"
     inkscape:groupmode="layer"
     id="layer1">
    <path
       id="path9612"
       style="color:#000000;font-size:40px;font-family:orbitron;-inkscape-font-specification:orbitron;fill:#00cc00;stroke:none;stroke-width:7.42006;-inkscape-stroke:none"
       d="m 47.650883,10.186523 -0.320077,1.206517 -2.801915,10.561739 c -1.720477,0.737463 -3.34731,1.598239 -4.859236,2.601146 0,0 -0.0064,0.0047 -0.0064,0.0047 -2.754305,1.810963 -5.139079,3.95913 -6.992926,6.388489 l -0.01608,0.0235 -0.01608,0.0235 c -1.786305,2.394548 -3.056564,4.989021 -3.761587,7.646583 -1.094379,4.125231 -0.8318,7.971758 0.937135,11.00724 l 0.0099,0.01855 0.01484,0.0188 c 1.936291,3.183148 5.622493,5.177879 10.584695,6.48288 l -0.0013,0.0047 0.0052,-10e-6 c 1.735097,0.454124 3.642045,0.865358 5.731334,1.241399 l 0.0049,-3e-6 0.0052,-1.5e-5 c 2.020826,0.357622 3.634674,0.669721 4.809412,0.927637 l 0.0037,0.0047 0.0052,-1.5e-5 c 3.107508,0.673082 4.832921,1.645113 5.028118,1.8577 0.266233,0.289931 0.445796,0.633998 0.07996,2.013039 -0.456309,1.720043 -0.813969,2.09412 -2.294001,2.805143 -1.685729,0.809846 -4.416066,1.43616 -8.106954,1.460789 -2.808665,0.0188 -5.681488,-0.482444 -8.641046,-1.565417 -0.0025,-9.73e-4 -0.0074,0.0011 -0.0099,6.8e-5 -2.960538,-1.118517 -5.483098,-2.601881 -7.614176,-4.465604 l -0.82321,-0.723605 -5.580345,0.03725 -4.192244,15.802546 1.83811,0.985107 c 2.266972,1.214956 5.042259,2.27461 8.345996,3.237524 l 0.01731,0.0092 0.02374,0.0045 c 0.03794,0.01039 0.07845,0.01707 0.116521,0.02746 l -0.08251,0.311055 -2.61437,9.854799 7.619027,-0.05085 2.356809,-8.883924 c 1.461047,0.115381 2.971954,0.168361 4.538271,0.157898 2.870507,-0.01904 5.640852,-0.263589 8.295142,-0.751648 l -2.491843,9.392925 7.61903,-0.05085 3.141994,-11.84366 c 1.489646,-0.650857 2.928442,-1.399002 4.30791,-2.258741 l 0.0052,-1.2e-5 C 67.785448,72.042706 71.998315,66.77785 73.538098,60.973679 74.741277,56.438322 74.335434,52.28118 72.070512,49.259581 l -0.0074,-0.0094 -0.0087,-0.0047 C 69.84715,46.355029 66.278339,44.488462 61.723665,43.466603 60.307455,43.144241 58.567836,42.802025 56.486661,42.433616 l -0.0099,7e-5 c -1.968863,-0.353545 -3.72831,-0.708936 -5.284338,-1.060018 -2.630434,-0.603161 -4.172038,-1.42342 -4.659196,-1.907587 l -0.01608,-0.0141 -0.01113,-0.0141 c -0.374681,-0.361411 -0.549701,-0.671614 -0.174025,-2.08769 0.358803,-1.352489 0.565419,-1.608122 2.169013,-2.352666 l 0.01756,-0.0096 0.02226,-0.0094 c 1.897458,-0.900477 4.224306,-1.444287 7.137234,-1.463728 2.799212,-0.0188 5.558496,0.455945 8.32379,1.473443 l 0.0136,0.0047 0.0136,0.0047 c 2.842753,1.014434 5.062858,2.248425 6.70328,3.643675 l 0.820647,0.695511 5.555543,-0.03708 L 81.167,24.001414 79.367173,23.001887 C 77.541707,21.990072 75.345055,21.169905 72.80654,20.481656 L 75.58721,10 l -7.61903,0.05086 -0.320074,1.206517 -2.069243,7.799944 c -1.742892,-0.196853 -3.509814,-0.291784 -5.29816,-0.279845 -2.557943,0.01707 -5.055362,0.248077 -7.48899,0.699221 l 2.478088,-9.341082 z" />
  </g>
</svg>
