<?xml version="1.0" encoding="UTF-8" standalone="no"?>
<svg
   viewBox="0 0 100 100"
   version="1.1"
   id="svg6"
   sodipodi:docname="nubank-.svg"
   width="100"
   height="100"
   inkscape:export-filename="C:\Users\alex\sites\nubank-logo-0.png"
   inkscape:export-xdpi="561.73712"
   inkscape:export-ydpi="561.73712"
   inkscape:version="1.1.2 (b8e25be833, 2022-02-05)"
   xmlns:inkscape="http://www.inkscape.org/namespaces/inkscape"
   xmlns:sodipodi="http://sodipodi.sourceforge.net/DTD/sodipodi-0.dtd"
   xmlns="http://www.w3.org/2000/svg"
   xmlns:svg="http://www.w3.org/2000/svg"
   xmlns:rdf="http://www.w3.org/1999/02/22-rdf-syntax-ns#"
   xmlns:cc="http://creativecommons.org/ns#"
   xmlns:dc="http://purl.org/dc/elements/1.1/">
  <metadata
     id="metadata12">
    <rdf:RDF>
      <cc:Work
         rdf:about="">
        <dc:format>image/svg+xml</dc:format>
        <dc:type
           rdf:resource="http://purl.org/dc/dcmitype/StillImage" />
      </cc:Work>
    </rdf:RDF>
  </metadata>
  <defs
     id="defs10" />
  <sodipodi:namedview
     pagecolor="#ffffff"
     bordercolor="#666666"
     borderopacity="1"
     objecttolerance="10"
     gridtolerance="10"
     guidetolerance="10"
     inkscape:pageopacity="0"
     inkscape:pageshadow="2"
     inkscape:window-width="1920"
     inkscape:window-height="1057"
     id="namedview8"
     showgrid="false"
     inkscape:zoom="4.24"
     inkscape:cx="34.198113"
     inkscape:cy="55.660377"
     inkscape:window-x="-8"
     inkscape:window-y="-8"
     inkscape:window-maximized="1"
     inkscape:current-layer="svg6"
     inkscape:pagecheckerboard="0" />
  <g
     id="g930"
     transform="matrix(1.6192591,0,0,1.6192591,-30.963446,-30.963125)">
    <path
       style="opacity:1;vector-effect:none;fill:#820ad1;fill-opacity:1;fill-rule:evenodd;stroke:none;stroke-width:0.0382222;stroke-linecap:butt;stroke-linejoin:miter;stroke-miterlimit:4;stroke-dasharray:none;stroke-dashoffset:0;stroke-opacity:1;paint-order:fill markers stroke"
       d="m 57.553664,36.936209 v 7.658407 c 0,3.520805 0.01682,6.560761 0.05668,7.785776 0.175139,5.335217 3.318742,8.687957 8.174353,8.691377 1.464956,-1.5551 2.249969,-3.456287 2.365733,-6.363575 0.01582,-0.405484 0.01196,-1.842726 0.0067,-3.737071 -0.0027,-0.981451 -0.0056,-2.08566 -0.0067,-3.23254 -0.0049,-4.991813 0,-10.797418 0,-10.797418 h 6.522629 v 11.786427 c 0,0.403862 0.0072,0.811134 0.01465,1.220039 0.01474,0.822444 0.02973,1.651244 -0.01465,2.471978 l 4.42e-4,-2.21e-4 c -0.07368,1.368188 -0.309364,2.713137 -0.944828,3.962715 -1.454558,2.862444 -4.435007,4.70539 -7.612284,4.70539 -0.110991,0 -0.22188,-0.0026 -0.331682,-0.0069 -1.562316,1.64907 -3.634637,2.612502 -6.069397,2.612502 -4.743006,0 -7.887792,-3.479437 -8.488146,-8.691598 C 51.032199,53.30879 51.033881,50.922638 51.036,48.15861 V 47.296541 36.942016 Z"
       id="path828" />
    <path
       style="opacity:1;vector-effect:none;fill:#820ad1;fill-opacity:1;fill-rule:evenodd;stroke:none;stroke-width:0.0382222;stroke-linecap:butt;stroke-linejoin:miter;stroke-miterlimit:4;stroke-dasharray:none;stroke-dashoffset:0;stroke-opacity:1;paint-order:fill markers stroke"
       d="m 40.284914,36.307114 c 4.742986,0 7.887585,3.479236 8.489224,8.691375 0.195065,1.692634 0.193333,4.079095 0.191379,6.843112 v 0.861848 10.354527 h -6.522413 v -7.658615 c 0,0 -0.01337,-6.554516 -0.05323,-7.779532 -0.175026,-5.335327 -3.318854,-8.687779 -8.174568,-8.691376 -1.464985,1.555056 -2.249978,3.456386 -2.365733,6.363575 -0.0159,0.405484 -0.0119,1.842814 -0.0067,3.73707 0.0027,0.981452 0.0059,2.085452 0.0067,3.232332 0.005,4.991878 0,10.797628 0,10.797628 H 25.327159 V 51.27263 c 0,-0.403851 -0.0074,-0.811123 -0.01466,-1.220039 -0.01478,-0.822522 -0.02971,-1.651266 0.01466,-2.471989 0.07371,-1.368188 0.309151,-2.713258 0.944612,-3.962715 1.454525,-2.862466 4.434974,-4.70539 7.612285,-4.70539 0.11091,0 0.221872,0.0024 0.331681,0.0067 1.562289,-1.648934 3.634602,-2.61207 6.069181,-2.61207 z"
       id="path826" />
  </g>
</svg>
