<?xml version="1.0" encoding="UTF-8" standalone="no"?>
<svg
   width="100"
   height="100"
   viewBox="0 0 100 100"
   version="1.1"
   id="svg9"
   sodipodi:docname="original.svg"
   inkscape:export-filename="C:\Users\suitedoalex\sites\banco-original-logo-0.png"
   inkscape:export-xdpi="561.73712"
   inkscape:export-ydpi="561.73712"
   inkscape:version="1.1.2 (b8e25be833, 2022-02-05)"
   xmlns:inkscape="http://www.inkscape.org/namespaces/inkscape"
   xmlns:sodipodi="http://sodipodi.sourceforge.net/DTD/sodipodi-0.dtd"
   xmlns="http://www.w3.org/2000/svg"
   xmlns:svg="http://www.w3.org/2000/svg"
   xmlns:rdf="http://www.w3.org/1999/02/22-rdf-syntax-ns#"
   xmlns:cc="http://creativecommons.org/ns#"
   xmlns:dc="http://purl.org/dc/elements/1.1/">
  <metadata
     id="metadata15">
    <rdf:RDF>
      <cc:Work
         rdf:about="">
        <dc:format>image/svg+xml</dc:format>
        <dc:type
           rdf:resource="http://purl.org/dc/dcmitype/StillImage" />
        <dc:title>Combined Shape</dc:title>
      </cc:Work>
    </rdf:RDF>
  </metadata>
  <defs
     id="defs13" />
  <sodipodi:namedview
     pagecolor="#ffffff"
     bordercolor="#666666"
     borderopacity="1"
     objecttolerance="10"
     gridtolerance="10"
     guidetolerance="10"
     inkscape:pageopacity="0"
     inkscape:pageshadow="2"
     inkscape:window-width="1920"
     inkscape:window-height="1057"
     id="namedview11"
     showgrid="false"
     inkscape:zoom="8.48"
     inkscape:cx="50"
     inkscape:cy="50"
     inkscape:window-x="-8"
     inkscape:window-y="-8"
     inkscape:window-maximized="1"
     inkscape:current-layer="ICONS"
     inkscape:pagecheckerboard="0" />
  <!-- Generator: Sketch 60.1 (88133) - https://sketch.com -->
  <title
     id="title2">Combined Shape</title>
  <desc
     id="desc4">Created with Sketch.</desc>
  <g
     id="PORTUGUES"
     style="fill:#18ad47;fill-opacity:1;fill-rule:evenodd;stroke:none;stroke-width:1"
     transform="matrix(4.2857177,0,0,4.2857177,62.856914,264.28565)"
     inkscape:export-filename="C:\Users\suitedoalex\sites\banco-original-logo-4.png"
     inkscape:export-xdpi="66.865623"
     inkscape:export-ydpi="66.865623">
    <g
       id="ICONS"
       transform="translate(-52,-51)"
       style="fill:#18ad47;fill-opacity:1">
      <g
         id="g1053"
         transform="matrix(0.46666496,0,0,0.46666496,16.551184,-32.133131)">
        <path
           id="path846"
           style="fill:#18ad47;fill-opacity:1;stroke-width:4.28572"
           d="m 138.00781,264.28516 c -0.90817,3.7e-4 -1.81566,0.23618 -2.6289,0.70507 l -69.896488,40.28516 c -1.625509,0.93681 -2.625,2.66645 -2.625,4.53711 0.003,1.86967 1.003371,3.59641 2.630859,4.53125 l 69.880859,40.11328 c 0.81177,0.46493 1.7154,0.69922 2.62109,0.69922 0.90768,0 1.81615,-0.23425 2.62891,-0.70117 L 210.51758,314.25 c 1.62551,-0.93583 2.62695,-2.6645 2.62695,-4.53516 0,-1.86967 -1.00144,-3.59933 -2.62695,-4.53515 l -69.87891,-40.19336 c -0.81325,-0.46742 -1.72269,-0.70154 -2.63086,-0.70117 z m 0.006,11.2832 59.36524,34.14648 L 137.98828,343.875 78.625,309.79883 Z"
           transform="matrix(0.23333315,0,0,0.23333315,37.333398,-10.666603)" />
        <path
           style="fill:#18ad47;fill-opacity:1"
           d="m 85.840814,66.041872 c 0.677361,0 1.226217,0.547045 1.226217,1.221658 v 0 13.133679 c 0,0.436257 -0.233708,0.839415 -0.612993,1.058004 v 0 L 70.144317,90.836576 C 69.954905,90.945755 69.742884,91 69.531324,91 c -0.21156,0 -0.422889,-0.05424 -0.61207,-0.162964 v 0 L 52.614147,81.476818 C 52.2344,81.25869 52,80.855302 52,80.418355 v 0 -13.127473 c 0,-0.674612 0.549317,-1.221657 1.226678,-1.221657 0.67713,0 1.225755,0.547045 1.225755,1.221657 v 0 12.421601 l 15.078199,8.655265 15.083966,-8.676181 V 67.26353 c 0,-0.674613 0.548856,-1.221658 1.226216,-1.221658 z"
           id="Combined-Shape" />
      </g>
    </g>
  </g>
</svg>
