<?xml version="1.0" encoding="UTF-8" standalone="no"?>
<svg
   viewBox="0 0 100 99.999997"
   version="1.1"
   id="svg22"
   sodipodi:docname="pagseguro.svg"
   width="100"
   height="100"
   inkscape:version="1.1.2 (b8e25be833, 2022-02-05)"
   inkscape:export-filename="C:\Users\suitedoalex\sites\pagseguro-logo-0.png"
   inkscape:export-xdpi="561.73712"
   inkscape:export-ydpi="561.73712"
   xmlns:inkscape="http://www.inkscape.org/namespaces/inkscape"
   xmlns:sodipodi="http://sodipodi.sourceforge.net/DTD/sodipodi-0.dtd"
   xmlns="http://www.w3.org/2000/svg"
   xmlns:svg="http://www.w3.org/2000/svg"
   xmlns:rdf="http://www.w3.org/1999/02/22-rdf-syntax-ns#"
   xmlns:cc="http://creativecommons.org/ns#"
   xmlns:dc="http://purl.org/dc/elements/1.1/">
  <metadata
     id="metadata26">
    <rdf:RDF>
      <cc:Work
         rdf:about="">
        <dc:format>image/svg+xml</dc:format>
        <dc:type
           rdf:resource="http://purl.org/dc/dcmitype/StillImage" />
      </cc:Work>
    </rdf:RDF>
  </metadata>
  <sodipodi:namedview
     pagecolor="#ffffff"
     bordercolor="#666666"
     borderopacity="1"
     objecttolerance="10"
     gridtolerance="10"
     guidetolerance="10"
     inkscape:pageopacity="0"
     inkscape:pageshadow="2"
     inkscape:window-width="1920"
     inkscape:window-height="1057"
     id="namedview24"
     showgrid="false"
     inkscape:zoom="1.0505068"
     inkscape:cx="177.0574"
     inkscape:cy="318.8937"
     inkscape:window-x="-8"
     inkscape:window-y="-8"
     inkscape:window-maximized="1"
     inkscape:current-layer="svg22"
     inkscape:pagecheckerboard="0" />
  <defs
     id="defs4">
    <style
       id="style2">.a{fill:#dde460;}.b{fill:#a7dcda;}.c{fill:#f6df3f;}</style>
  </defs>
  <g
     id="g1278"
     transform="matrix(0.56012895,0,0,0.55602559,-28.470197,-144.60895)">
    <path
       d="m 206.04393,322.92627 c -15.09447,-36.54603 -56.89453,-53.91629 -93.30124,-38.79279 -36.406698,15.1235 -53.701478,57.00485 -38.601202,93.55669 15.100276,36.55184 56.894542,53.91048 93.295442,38.78698 36.40089,-15.12349 53.71309,-57.00484 38.607,-93.55088 z"
       id="path6"
       inkscape:connector-curvature="0"
       style="stroke-width:0.580557"
       inkscape:export-filename="C:\Users\suitedoalex\sites\pagseguro-logo-4.png"
       inkscape:export-xdpi="68.249916"
       inkscape:export-ydpi="68.249916" />
    <path
       d="m 165.7417,288.27866 c -34.14833,-14.1772 -73.312681,2.10742 -87.472455,36.37186 -14.159774,34.26445 2.049365,73.52749 36.191895,87.69888 34.14253,14.17138 73.30687,-2.10162 87.46665,-36.36607 14.15977,-34.26444 -2.04356,-73.53909 -36.18609,-87.70467 z"
       id="path8"
       inkscape:connector-curvature="0"
       style="stroke-width:0.580557"
       inkscape:export-filename="C:\Users\suitedoalex\sites\pagseguro-logo-4.png"
       inkscape:export-xdpi="68.249916"
       inkscape:export-ydpi="68.249916" />
    <path
       class="a"
       d="m 199.44301,340.59841 c 0,-32.92917 -26.56627,-59.57091 -59.3561,-59.57091 -32.78984,0 -59.327078,26.64174 -59.327078,59.57091 0,32.92917 26.566268,59.57091 59.327078,59.57091 32.7608,0 59.3561,-26.67077 59.3561,-59.57091 z"
       id="path10"
       inkscape:connector-curvature="0"
       style="fill:#dde460;stroke-width:0.580557"
       inkscape:export-filename="C:\Users\suitedoalex\sites\pagseguro-logo-4.png"
       inkscape:export-xdpi="68.249916"
       inkscape:export-ydpi="68.249916" />
    <path
       d="m 140.08691,401.71941 c -34.02062,0 -61.597053,-27.66352 -61.597053,-61.82347 0,-34.15995 27.576433,-61.83508 61.597053,-61.83508 34.02061,0 61.60285,27.68674 61.60285,61.83508 0,34.14834 -27.57644,61.82347 -61.60285,61.82347 z m 0,-119.08376 a 57.376404,57.376404 0 1 0 57.12095,57.26029 c -0.0174,-31.64614 -25.57932,-57.32416 -57.12095,-57.35899 z"
       id="path12"
       inkscape:connector-curvature="0"
       style="stroke-width:0.580557"
       inkscape:export-filename="C:\Users\suitedoalex\sites\pagseguro-logo-4.png"
       inkscape:export-xdpi="68.249916"
       inkscape:export-ydpi="68.249916" />
    <path
       class="b"
       d="m 179.41961,367.87876 c 0,-27.28615 -22.06115,-49.4518 -49.26603,-49.4518 -27.20488,0 -49.283442,22.14242 -49.283442,49.4518 0,27.30939 22.061152,49.44601 49.260222,49.44601 27.19908,0 49.26603,-22.14243 49.26603,-49.44601 z"
       id="path14"
       inkscape:connector-curvature="0"
       style="fill:#a7dcda;stroke-width:0.580557"
       inkscape:export-filename="C:\Users\suitedoalex\sites\pagseguro-logo-4.png"
       inkscape:export-xdpi="68.249916"
       inkscape:export-ydpi="68.249916" />
    <path
       d="m 130.25808,419.57733 a 51.669533,51.669533 0 0 1 -10.89704,-1.16112 C 91.558184,412.44809 73.85121,384.97035 79.813525,357.05719 a 51.489561,51.489561 0 0 1 61.132605,-39.71007 c 27.81446,5.97973 45.52144,33.45167 39.57654,61.36483 a 51.570839,51.570839 0 0 1 -50.19492,40.86538 z m -0.11611,-98.91523 a 47.187637,47.187637 0 1 0 36.57507,17.53861 47.112164,47.112164 0 0 0 -36.57507,-17.53861 z"
       id="path16"
       inkscape:connector-curvature="0"
       style="stroke-width:0.580557"
       inkscape:export-filename="C:\Users\suitedoalex\sites\pagseguro-logo-4.png"
       inkscape:export-xdpi="68.249916"
       inkscape:export-ydpi="68.249916" />
    <path
       style="stroke-width:0.580557"
       d="m 173.17863,402.88052 a 32.923362,32.923362 0 1 1 32.79564,-32.92336 32.859501,32.859501 0 0 1 -32.79564,32.92336 z"
       id="path20" />
    <path
       class="c"
       d="m 203.74493,369.95716 a 30.560497,30.560497 0 1 0 -30.5663,30.68241 30.612747,30.612747 0 0 0 30.56049,-30.68241 z"
       id="path18"
       inkscape:connector-curvature="0"
       style="fill:#f6df3f;stroke-width:0.580557"
       inkscape:export-filename="C:\Users\suitedoalex\sites\pagseguro-logo-4.png"
       inkscape:export-xdpi="68.249916"
       inkscape:export-ydpi="68.249916" />
  </g>
</svg>
