<?xml version="1.0" encoding="UTF-8" standalone="no"?>
<svg
   height="100"
   width="100"
   viewBox="-35.73 -10.375 25.805 7.78125"
   version="1.1"
   id="svg4"
   sodipodi:docname="santander.svg"
   inkscape:version="1.1.2 (b8e25be833, 2022-02-05)"
   xmlns:inkscape="http://www.inkscape.org/namespaces/inkscape"
   xmlns:sodipodi="http://sodipodi.sourceforge.net/DTD/sodipodi-0.dtd"
   xmlns="http://www.w3.org/2000/svg"
   xmlns:svg="http://www.w3.org/2000/svg">
  <defs
     id="defs8" />
  <sodipodi:namedview
     id="namedview6"
     pagecolor="#ffffff"
     bordercolor="#666666"
     borderopacity="1.0"
     inkscape:pageshadow="2"
     inkscape:pageopacity="0.0"
     inkscape:pagecheckerboard="0"
     showgrid="false"
     inkscape:zoom="8.48"
     inkscape:cx="50"
     inkscape:cy="50"
     inkscape:window-width="1920"
     inkscape:window-height="1057"
     inkscape:window-x="-8"
     inkscape:window-y="-8"
     inkscape:window-maximized="1"
     inkscape:current-layer="svg4" />
  <path
     d="m -18.303287,-7.2620933 c -0.04713,-0.7069625 -0.235654,-1.413925 -0.612701,-2.026626 l -3.204896,-5.6085697 c -0.235655,-0.424177 -0.424178,-0.895486 -0.51844,-1.366794 l -0.141392,0.235654 c -0.801225,1.366794 -0.801225,3.110635 0,4.47743 l 2.592196,4.4774288 c 0.801224,1.3667939 0.801224,3.1106349 0,4.4774289 l -0.141393,0.235654 c -0.09426,-0.471308 -0.282785,-0.942616 -0.518439,-1.366794 l -2.356542,-4.1003822 -1.508187,-2.6393265 c -0.235653,-0.424178 -0.424177,-0.895486 -0.518439,-1.366794 l -0.141392,0.235654 c -0.801224,1.366794 -0.801224,3.063504 0,4.477429 l 2.592196,4.4774287 c 0.801224,1.366795 0.801224,3.11063498 0,4.47743 l -0.141393,0.235654 c -0.09426,-0.471309 -0.282785,-0.942617 -0.518439,-1.36679402 l -3.252027,-5.60856998 c -0.424178,-0.754093 -0.612701,-1.6024477 -0.612701,-2.4508025 -3.440551,0.8954856 -5.844224,2.8278495 -5.844224,5.0429985 0,3.11063498 4.618822,5.60857 10.321653,5.60857 5.702831,0 10.321653,-2.49793502 10.321653,-5.60857 0.04713,-2.120887 -2.309411,-4.0532514 -5.797093,-4.948737 z"
     id="path2"
     style="fill:#ea1d25;fill-opacity:1;stroke-width:0.471308" />
</svg>
