<?xml version="1.0" encoding="UTF-8" standalone="no"?>
<svg
   height="100"
   width="100"
   viewBox="-74.7 -40.204 53.95 30.153"
   version="1.1"
   id="svg16"
   sodipodi:docname="Visa_Inc.-Logo.wine.svg"
   inkscape:version="1.1.2 (b8e25be833, 2022-02-05)"
   xmlns:inkscape="http://www.inkscape.org/namespaces/inkscape"
   xmlns:sodipodi="http://sodipodi.sourceforge.net/DTD/sodipodi-0.dtd"
   xmlns="http://www.w3.org/2000/svg"
   xmlns:svg="http://www.w3.org/2000/svg">
  <sodipodi:namedview
     id="namedview18"
     pagecolor="#ffffff"
     bordercolor="#666666"
     borderopacity="1.0"
     inkscape:pageshadow="2"
     inkscape:pageopacity="0.0"
     inkscape:pagecheckerboard="0"
     showgrid="false"
     width="100px"
     inkscape:zoom="0.4925"
     inkscape:cx="255.83756"
     inkscape:cy="493.40101"
     inkscape:window-width="1920"
     inkscape:window-height="1057"
     inkscape:window-x="-8"
     inkscape:window-y="-8"
     inkscape:window-maximized="1"
     inkscape:current-layer="svg16" />
  <defs
     id="defs10">
    <linearGradient
       x1="0"
       y1="0"
       x2="1"
       y2="0"
       gradientUnits="userSpaceOnUse"
       gradientTransform="matrix(84.199299,31.009346,31.009346,-84.199299,19.511929,-27.428444)"
       spreadMethod="pad"
       id="b">
      <stop
         offset="0"
         stop-color="#222357"
         id="stop2" />
      <stop
         offset="1"
         stop-color="#254aa5"
         id="stop4" />
    </linearGradient>
    <clipPath
       clipPathUnits="userSpaceOnUse"
       id="a">
      <path
         d="m 413.742,90.435 c -0.057,-4.494 4.005,-7.002 7.065,-8.493 3.144,-1.53 4.2,-2.511 4.188,-3.879 -0.024,-2.094 -2.508,-3.018 -4.833,-3.054 -4.056,-0.063 -6.414,1.095 -8.289,1.971 l -1.461,-6.837 c 1.881,-0.867 5.364,-1.623 8.976,-1.656 8.478,0 14.025,4.185 14.055,10.674 0.033,8.235 -11.391,8.691 -11.313,12.372 0.027,1.116 1.092,2.307 3.426,2.61 1.155,0.153 4.344,0.27 7.959,-1.395 l 1.419,6.615 c -1.944,0.708 -4.443,1.386 -7.554,1.386 -7.98,0 -13.593,-4.242 -13.638,-10.314 m 34.827,9.744 c -1.548,0 -2.853,-0.903 -3.435,-2.289 L 433.023,68.973 h 8.472 l 1.686,4.659 h 10.353 l 0.978,-4.659 h 7.467 l -6.516,31.206 h -6.894 m 1.185,-8.43 2.445,-11.718 h -6.696 l 4.251,11.718 m -46.284,8.43 -6.678,-31.206 h 8.073 l 6.675,31.206 h -8.07 m -11.943,0 -8.403,-21.24 -3.399,18.06 c -0.399,2.016 -1.974,3.18 -3.723,3.18 h -13.737 l -0.192,-0.906 c 2.82,-0.612 6.024,-1.599 7.965,-2.655 1.188,-0.645 1.527,-1.209 1.917,-2.742 l 6.438,-24.903 h 8.532 l 13.08,31.206 h -8.478"
         id="path7" />
    </clipPath>
  </defs>
  <g
     clip-path="url(#a)"
     transform="matrix(0.43200609,0,0,-0.43200609,-225.72274,11.42796)"
     id="g14">
    <path
       d="M 0,0 98.437,36.252 120.831,-24.557 22.395,-60.809"
       fill="url(#b)"
       transform="translate(351.611,96.896)"
       id="path12"
       style="fill:url(#b)" />
  </g>
</svg>
